<svg width="28" height="32" viewBox="0 0 28 32" fill="none" xmlns="http://www.w3.org/2000/svg">
<path d="M24.2749 7.23181C23.6007 7.23181 23.0066 7.55703 22.6283 8.05203H5.20449C4.82619 7.55703 4.23202 7.23181 3.55792 7.23181C2.41556 7.23181 1.48621 8.15171 1.48621 9.28234C1.48621 10.413 2.41556 11.3329 3.55792 11.3329C4.23207 11.3329 4.82624 11.0077 5.20449 10.5126H5.95439L5.46719 27.8222C5.46719 27.9871 5.56707 28.1364 5.72074 28.2004L13.7556 31.968C13.807 31.9893 13.8617 32 13.9164 32C13.971 32 14.0257 31.9893 14.0771 31.968L22.2744 28.5252C22.4281 28.4612 22.5279 28.3119 22.5279 28.147L21.8783 10.5126H22.6282C23.0065 11.0077 23.6007 11.3329 24.2748 11.3329C25.4171 11.3329 26.3465 10.413 26.3465 9.28234C26.3466 8.15171 25.4172 7.23181 24.2749 7.23181ZM22.2451 9.69242H21.7889H6.04396H5.58778C5.61512 9.55997 5.62964 9.42257 5.62964 9.28234C5.62964 9.1421 5.61512 9.0047 5.58778 8.87225H22.2451C22.2177 9.0047 22.2032 9.1421 22.2032 9.28234C22.2032 9.42257 22.2177 9.55997 22.2451 9.69242Z" fill="#BE8D69"/>
<path d="M17.6417 3.96821C18.1106 4.07641 18.4532 4.50924 18.4532 5.01421C18.4532 5.60936 17.9663 6.07826 17.3892 6.07826C17.2088 6.07826 17.0465 6.04219 16.9023 5.95202C16.8121 5.89791 16.7219 5.84381 16.6498 5.77167C16.5235 5.89791 16.3612 5.98809 16.1989 6.02416C16.1087 6.04219 16.0186 6.06022 15.9103 6.06022C15.3152 6.06022 14.8463 5.57329 14.8463 4.99618C14.8463 4.41907 15.3152 3.95017 15.8923 3.93214L13.9265 0.0546875L11.9608 3.93214C12.5379 3.95017 13.0068 4.41907 13.0068 4.99618C13.0068 5.59132 12.5198 6.06022 11.9427 6.06022C11.8526 6.06022 11.7443 6.04219 11.6542 6.02416C11.4738 5.97005 11.3295 5.87988 11.2033 5.77167C11.1312 5.84381 11.041 5.89791 10.9508 5.95202C10.8065 6.02416 10.6262 6.07826 10.4639 6.07826C9.86874 6.07826 9.39984 5.59132 9.39984 5.01421C9.39984 4.50924 9.7425 4.09445 10.2114 3.96821L8.53418 1.58763V7.26855V7.86369H9.97695H12.9166H14.9184H17.8581H19.3009V7.26855V1.58763L17.6417 3.96821ZM18.5614 6.69144C18.7057 6.69144 18.8139 6.79965 18.8139 6.94392C18.8139 7.0882 18.7057 7.19641 18.5614 7.19641C18.4172 7.19641 18.309 7.0882 18.309 6.94392C18.309 6.79965 18.4172 6.69144 18.5614 6.69144ZM17.3892 6.69144C17.5335 6.69144 17.6417 6.79965 17.6417 6.94392C17.6417 7.0341 17.5876 7.12427 17.5154 7.16034C17.4794 7.17837 17.4433 7.19641 17.3892 7.19641C17.2449 7.19641 17.1367 7.0882 17.1367 6.94392C17.1367 6.83571 17.1908 6.76358 17.281 6.70947C17.3171 6.70947 17.3531 6.69144 17.3892 6.69144ZM16.235 6.69144C16.3793 6.69144 16.4875 6.79965 16.4875 6.94392C16.4875 7.0882 16.3793 7.19641 16.235 7.19641C16.0907 7.19641 15.9825 7.0882 15.9825 6.94392C15.9825 6.79965 16.0907 6.69144 16.235 6.69144ZM15.0808 6.69144C15.225 6.69144 15.3332 6.79965 15.3332 6.94392C15.3332 7.0882 15.225 7.19641 15.0808 7.19641C14.9365 7.19641 14.8283 7.0882 14.8283 6.94392C14.8283 6.79965 14.9365 6.69144 15.0808 6.69144ZM13.9265 6.69144C14.0708 6.69144 14.179 6.79965 14.179 6.94392C14.179 7.0882 14.0708 7.19641 13.9265 7.19641C13.7823 7.19641 13.6741 7.0882 13.6741 6.94392C13.6741 6.79965 13.7823 6.69144 13.9265 6.69144ZM12.7543 6.69144C12.8986 6.69144 13.0068 6.79965 13.0068 6.94392C13.0068 7.0882 12.8986 7.19641 12.7543 7.19641C12.61 7.19641 12.5018 7.0882 12.5018 6.94392C12.5018 6.79965 12.628 6.69144 12.7543 6.69144ZM11.6001 6.69144C11.7443 6.69144 11.8526 6.79965 11.8526 6.94392C11.8526 7.0882 11.7443 7.19641 11.6001 7.19641C11.4558 7.19641 11.3476 7.0882 11.3476 6.94392C11.3476 6.79965 11.4558 6.69144 11.6001 6.69144ZM10.4459 6.69144C10.4819 6.69144 10.518 6.70947 10.5541 6.70947C10.6442 6.74554 10.6983 6.83571 10.6983 6.94392C10.6983 7.0882 10.5901 7.19641 10.4459 7.19641C10.4098 7.19641 10.3557 7.17837 10.3196 7.16034C10.2475 7.12427 10.1934 7.0341 10.1934 6.94392C10.1934 6.79965 10.3016 6.69144 10.4459 6.69144ZM9.29163 6.69144C9.43591 6.69144 9.54412 6.79965 9.54412 6.94392C9.54412 7.0882 9.43591 7.19641 9.29163 7.19641C9.14736 7.19641 9.03915 7.0882 9.03915 6.94392C9.03915 6.79965 9.14736 6.69144 9.29163 6.69144Z" fill="#BE8D69"/>
<path fill-rule="evenodd" clip-rule="evenodd" d="M23.1895 27.8086L22.8011 17.2655C23.1251 17.0663 23.5143 16.9248 23.9636 16.8484L24.7968 16.7067C25.2729 16.6258 25.4804 16.2934 25.4095 15.8104C25.3999 15.7184 25.388 15.63 25.3763 15.5439L25.3763 15.5438C25.351 15.3567 25.3271 15.18 25.3312 14.9985C25.9758 16.0112 25.8102 17.1285 25.1036 17.5787C24.6677 17.8509 24.2318 18.1231 23.8093 18.4589C23.3177 18.9056 23.5055 19.7979 24.2117 20.3709C24.9543 20.9708 26.0524 20.9161 26.2159 20.2282C26.3928 19.604 26.4372 18.9363 25.9288 18.1316C25.8578 18.035 25.8023 17.9135 25.7219 17.737L25.7219 17.737C25.7046 17.699 25.6861 17.6585 25.666 17.6151C26.5948 18.5134 27.4657 20.0157 27.135 21.2271C26.9158 22.0896 26.355 22.647 25.4661 22.9632C25.3754 23.0021 25.2832 23.0382 25.1916 23.074C24.7694 23.2391 24.3623 23.3982 24.1949 23.8065L24.175 23.8594C24.1 24.0589 24.0138 24.2881 24.0084 24.5313C24.0121 24.6957 24.1982 24.9941 24.3575 25.1651C24.6261 25.4165 24.9007 25.4028 25.0888 25.2718C25.5247 24.9996 25.8013 24.5565 25.8361 23.9895C25.8093 23.862 25.819 23.7614 25.8286 23.6607C26.8475 24.8407 26.8143 26.0016 25.7372 26.4488C25.5128 26.563 25.2597 26.6383 25.004 26.7143C24.8157 26.7703 24.6259 26.8268 24.4451 26.8996C23.9026 27.066 23.539 27.4246 23.1895 27.8086ZM5.09104 17.3012C4.75623 17.0831 4.34783 16.9293 3.87215 16.8484L3.03895 16.7067C2.56283 16.6258 2.35536 16.2934 2.42619 15.8104C2.43584 15.7183 2.44778 15.63 2.45942 15.5438L2.45942 15.5438C2.4847 15.3567 2.50858 15.18 2.50456 14.9985C1.85997 16.0112 2.02553 17.1285 2.73216 17.5787C3.16804 17.8509 3.60393 18.1231 4.0264 18.4589C4.51803 18.9056 4.33027 19.7979 3.62406 20.3709C2.88139 20.9708 1.7833 20.9161 1.61984 20.2282C1.44297 19.604 1.39854 18.9363 1.90692 18.1316C1.97796 18.035 2.0334 17.9134 2.11387 17.737L2.11387 17.737L2.11389 17.7369C2.1312 17.699 2.14967 17.6585 2.1697 17.6151C1.24095 18.5134 0.370033 20.0157 0.700726 21.2271C0.919931 22.0896 1.48072 22.647 2.36967 22.9632C2.46033 23.0021 2.55257 23.0382 2.64411 23.074C3.0663 23.2391 3.47345 23.3982 3.64085 23.8065L3.66069 23.8593C3.73575 24.0588 3.82198 24.2881 3.82737 24.5313C3.82359 24.6957 3.63751 24.9941 3.47825 25.1651C3.2096 25.4165 2.93507 25.4028 2.74689 25.2718C2.31101 24.9996 2.03439 24.5565 1.9996 23.9895C2.02642 23.862 2.01678 23.7614 2.00714 23.6607L2.00714 23.6607C0.988271 24.8407 1.02139 26.0016 2.09852 26.4488C2.32295 26.563 2.57601 26.6383 2.83169 26.7143C3.02005 26.7703 3.20985 26.8268 3.39066 26.8996C3.99711 27.0856 4.37996 27.5117 4.76945 27.9452C4.80104 27.9804 4.83269 28.0156 4.86449 28.0508C4.82003 27.9847 4.79489 27.9059 4.79489 27.8232L5.09104 17.3012ZM4.94596 28.14C4.97645 28.1649 5.01084 28.1857 5.04845 28.2013L5.08297 28.2189C5.03791 28.2146 5.00908 28.2076 4.99799 28.1961C4.98055 28.1774 4.96322 28.1588 4.94596 28.14Z" fill="#BE8D69"/>
<path d="M7.17114 27.1963V11.1655L21.4409 10.8407L20.6989 27.5539L13.8456 30.176L7.17114 27.1963Z" fill="url(#paint0_linear_712_1630)"/>
<path d="M15.9941 15.3809H16.2402V16.7285H16.1406C15.6953 16.7285 15.2988 16.7949 14.9512 16.9277C14.6035 17.0605 14.3086 17.25 14.0664 17.4961C13.8281 17.7383 13.6445 18.0312 13.5156 18.375C13.3906 18.7188 13.3281 19.1035 13.3281 19.5293V20.9473C13.3281 21.252 13.3574 21.5215 13.416 21.7559C13.4785 21.9863 13.5664 22.1797 13.6797 22.3359C13.7969 22.4883 13.9336 22.6035 14.0898 22.6816C14.2461 22.7559 14.4219 22.793 14.6172 22.793C14.8008 22.793 14.9668 22.7539 15.1152 22.6758C15.2676 22.5977 15.3965 22.4883 15.502 22.3477C15.6113 22.2031 15.6934 22.0352 15.748 21.8438C15.8066 21.6484 15.8359 21.4355 15.8359 21.2051C15.8359 20.9746 15.8066 20.7617 15.748 20.5664C15.6934 20.3711 15.6113 20.2031 15.502 20.0625C15.3926 19.918 15.2598 19.8066 15.1035 19.7285C14.9473 19.6504 14.7715 19.6113 14.5762 19.6113C14.3105 19.6113 14.0762 19.6738 13.873 19.7988C13.6738 19.9199 13.5176 20.0762 13.4043 20.2676C13.291 20.459 13.2305 20.6602 13.2227 20.8711L12.7129 20.543C12.7246 20.2422 12.7871 19.957 12.9004 19.6875C13.0176 19.418 13.1777 19.1797 13.3809 18.9727C13.5879 18.7617 13.8359 18.5977 14.125 18.4805C14.4141 18.3594 14.7402 18.2988 15.1035 18.2988C15.502 18.2988 15.8516 18.375 16.1523 18.5273C16.457 18.6797 16.7109 18.8887 16.9141 19.1543C17.1172 19.4199 17.2695 19.7266 17.3711 20.0742C17.4727 20.4219 17.5234 20.793 17.5234 21.1875C17.5234 21.6016 17.4551 21.9863 17.3184 22.3418C17.1855 22.6973 16.9922 23.0078 16.7383 23.2734C16.4883 23.5391 16.1875 23.7461 15.8359 23.8945C15.4844 24.043 15.0898 24.1172 14.6523 24.1172C14.1992 24.1172 13.7871 24.0352 13.416 23.8711C13.0488 23.7031 12.7324 23.4688 12.4668 23.168C12.2012 22.8672 11.9961 22.5098 11.8516 22.0957C11.7109 21.6816 11.6406 21.2285 11.6406 20.7363V20.0801C11.6406 19.3926 11.7402 18.7637 11.9395 18.1934C12.1426 17.6191 12.4336 17.123 12.8125 16.7051C13.1914 16.2832 13.6484 15.957 14.1836 15.7266C14.7188 15.4961 15.3223 15.3809 15.9941 15.3809Z" fill="white"/>
<defs>
<linearGradient id="paint0_linear_712_1630" x1="14.306" y1="-14.0021" x2="14.306" y2="30.176" gradientUnits="userSpaceOnUse">
<stop/>
<stop offset="1" stop-color="#76113C"/>
</linearGradient>
</defs>
</svg>
