<svg width="225" height="192" viewBox="0 0 225 192" fill="none" xmlns="http://www.w3.org/2000/svg">
<path d="M39.1741 157.676L42.6781 145.8H43.7758L42.8887 149.326L39.1519 161.945H38.0985L39.1741 157.676ZM35.1047 145.8L38.0542 157.565L38.9413 161.945H37.8435L33.7075 145.8H35.1047ZM48.4995 157.565L51.4047 145.8H52.8018L48.6769 161.945H47.5791L48.4995 157.565ZM43.8978 145.8L47.3574 157.676L48.4219 161.945H47.3685L43.7093 149.326L42.8111 145.8H43.8978Z" fill="white"/>
<path d="M56.4499 144.913V161.945H55.1304V144.913H56.4499ZM56.1505 155.203L55.5628 154.87C55.6072 154.16 55.7513 153.495 55.9953 152.874C56.2392 152.253 56.5682 151.706 56.9821 151.233C57.4035 150.76 57.8951 150.39 58.4569 150.124C59.0261 149.858 59.6544 149.725 60.3419 149.725C60.9407 149.725 61.4766 149.806 61.9498 149.969C62.4229 150.132 62.8257 150.39 63.1584 150.745C63.491 151.1 63.7424 151.555 63.9124 152.109C64.0898 152.664 64.1785 153.34 64.1785 154.138V161.945H62.8479V154.127C62.8479 153.299 62.7333 152.652 62.5042 152.187C62.275 151.714 61.9498 151.377 61.5284 151.178C61.107 150.978 60.6081 150.878 60.0315 150.878C59.3957 150.878 58.8376 151.019 58.3571 151.3C57.884 151.573 57.4848 151.932 57.1596 152.375C56.8417 152.811 56.5977 153.281 56.4277 153.783C56.2577 154.279 56.1653 154.752 56.1505 155.203Z" fill="white"/>
<path d="M72.2287 162.166C71.4451 162.166 70.7244 162.022 70.0665 161.734C69.416 161.446 68.8468 161.039 68.3589 160.514C67.8784 159.989 67.5051 159.368 67.2389 158.651C66.9802 157.927 66.8508 157.136 66.8508 156.278V155.802C66.8508 154.878 66.9876 154.042 67.2611 153.296C67.5346 152.549 67.9116 151.91 68.3921 151.377C68.8726 150.845 69.4197 150.438 70.0332 150.158C70.6542 149.869 71.3047 149.725 71.9848 149.725C72.7462 149.725 73.4226 149.862 74.014 150.135C74.6054 150.401 75.1006 150.782 75.4998 151.277C75.9064 151.765 76.2132 152.346 76.4202 153.018C76.6271 153.684 76.7306 154.419 76.7306 155.225V156.034H67.6492V154.903H75.4111V154.748C75.3963 154.075 75.2596 153.447 75.0008 152.863C74.7495 152.272 74.3725 151.791 73.8698 151.422C73.3671 151.052 72.7388 150.867 71.9848 150.867C71.423 150.867 70.9055 150.985 70.4324 151.222C69.9667 151.459 69.5638 151.799 69.2238 152.242C68.8911 152.678 68.6324 153.199 68.4476 153.806C68.2702 154.404 68.1815 155.07 68.1815 155.802V156.278C68.1815 156.944 68.2776 157.565 68.4698 158.141C68.6693 158.71 68.9503 159.213 69.3125 159.649C69.6821 160.085 70.1182 160.425 70.6209 160.669C71.1236 160.913 71.678 161.035 72.2842 161.035C72.9938 161.035 73.6222 160.906 74.1692 160.647C74.7162 160.381 75.2078 159.963 75.644 159.394L76.4756 160.037C76.2169 160.422 75.8916 160.777 75.4998 161.102C75.1154 161.427 74.6534 161.686 74.1138 161.878C73.5741 162.07 72.9458 162.166 72.2287 162.166Z" fill="white"/>
<path d="M80.667 151.932V161.945H79.3475V149.947H80.6338L80.667 151.932ZM84.9139 149.858L84.8806 151.078C84.7328 151.056 84.5886 151.037 84.4482 151.022C84.3077 151.008 84.1562 151 83.9936 151C83.417 151 82.9106 151.107 82.4744 151.322C82.0457 151.529 81.6835 151.821 81.3878 152.198C81.0921 152.567 80.8666 153.004 80.7114 153.506C80.5561 154.002 80.4674 154.534 80.4453 155.103L79.9574 155.291C79.9574 154.508 80.0387 153.78 80.2013 153.107C80.3639 152.434 80.6116 151.847 80.9442 151.344C81.2843 150.834 81.7093 150.438 82.2194 150.158C82.7369 149.869 83.343 149.725 84.0379 149.725C84.2079 149.725 84.3743 149.74 84.5369 149.769C84.7069 149.792 84.8326 149.821 84.9139 149.858Z" fill="white"/>
<path d="M91.4117 162.166C90.6281 162.166 89.9074 162.022 89.2495 161.734C88.599 161.446 88.0297 161.039 87.5419 160.514C87.0614 159.989 86.688 159.368 86.4219 158.651C86.1632 157.927 86.0338 157.136 86.0338 156.278V155.802C86.0338 154.878 86.1706 154.042 86.4441 153.296C86.7176 152.549 87.0946 151.91 87.5751 151.377C88.0556 150.845 88.6026 150.438 89.2162 150.158C89.8372 149.869 90.4877 149.725 91.1678 149.725C91.9292 149.725 92.6056 149.862 93.197 150.135C93.7883 150.401 94.2836 150.782 94.6828 151.277C95.0894 151.765 95.3962 152.346 95.6031 153.018C95.8101 153.684 95.9136 154.419 95.9136 155.225V156.034H86.8322V154.903H94.5941V154.748C94.5793 154.075 94.4426 153.447 94.1838 152.863C93.9325 152.272 93.5555 151.791 93.0528 151.422C92.5501 151.052 91.9218 150.867 91.1678 150.867C90.606 150.867 90.0885 150.985 89.6154 151.222C89.1497 151.459 88.7468 151.799 88.4068 152.242C88.0741 152.678 87.8154 153.199 87.6306 153.806C87.4531 154.404 87.3644 155.07 87.3644 155.802V156.278C87.3644 156.944 87.4605 157.565 87.6527 158.141C87.8523 158.71 88.1332 159.213 88.4955 159.649C88.8651 160.085 89.3012 160.425 89.8039 160.669C90.3066 160.913 90.861 161.035 91.4672 161.035C92.1768 161.035 92.8052 160.906 93.3522 160.647C93.8992 160.381 94.3908 159.963 94.827 159.394L95.6586 160.037C95.3999 160.422 95.0746 160.777 94.6828 161.102C94.2984 161.427 93.8364 161.686 93.2967 161.878C92.7571 162.07 92.1288 162.166 91.4117 162.166Z" fill="white"/>
<path d="M114.42 160.78V161.945H105.339V160.78H114.42ZM105.749 145.8V161.945H104.385V145.8H105.749ZM113.289 153.041V154.205H105.339V153.041H113.289ZM114.365 145.8V146.975H105.339V145.8H114.365Z" fill="white"/>
<path d="M118.323 152.508V161.945H117.004V149.947H118.268L118.323 152.508ZM118.024 155.203L117.436 154.87C117.481 154.16 117.625 153.495 117.869 152.874C118.113 152.253 118.442 151.706 118.856 151.233C119.277 150.76 119.769 150.39 120.33 150.124C120.9 149.858 121.528 149.725 122.215 149.725C122.814 149.725 123.35 149.806 123.823 149.969C124.296 150.132 124.699 150.39 125.032 150.745C125.364 151.1 125.616 151.555 125.786 152.109C125.963 152.664 126.052 153.34 126.052 154.138V161.945H124.721V154.127C124.721 153.299 124.607 152.652 124.378 152.187C124.148 151.714 123.823 151.377 123.402 151.178C122.98 150.978 122.482 150.878 121.905 150.878C121.269 150.878 120.711 151.019 120.231 151.3C119.757 151.573 119.358 151.932 119.033 152.375C118.715 152.811 118.471 153.281 118.301 153.783C118.131 154.279 118.039 154.752 118.024 155.203Z" fill="white"/>
<path d="M129.589 149.947H130.92V163.375C130.92 164.107 130.798 164.728 130.554 165.238C130.31 165.748 129.955 166.132 129.489 166.391C129.024 166.657 128.451 166.79 127.771 166.79C127.586 166.79 127.386 166.772 127.172 166.735C126.958 166.698 126.762 166.646 126.584 166.58L126.606 165.471C126.739 165.508 126.898 165.541 127.083 165.57C127.261 165.607 127.434 165.626 127.604 165.626C128.033 165.626 128.395 165.541 128.691 165.371C128.987 165.208 129.208 164.961 129.356 164.628C129.512 164.295 129.589 163.878 129.589 163.375V149.947ZM129.356 146.476C129.356 146.225 129.438 146.014 129.6 145.844C129.763 145.667 129.985 145.578 130.266 145.578C130.546 145.578 130.768 145.667 130.931 145.844C131.101 146.014 131.186 146.225 131.186 146.476C131.186 146.72 131.101 146.931 130.931 147.108C130.768 147.278 130.546 147.363 130.266 147.363C129.985 147.363 129.763 147.278 129.6 147.108C129.438 146.931 129.356 146.72 129.356 146.476Z" fill="white"/>
<path d="M133.947 156.134V155.768C133.947 154.896 134.073 154.09 134.324 153.351C134.575 152.612 134.934 151.972 135.4 151.433C135.873 150.893 136.438 150.475 137.096 150.18C137.754 149.877 138.486 149.725 139.292 149.725C140.105 149.725 140.84 149.877 141.498 150.18C142.156 150.475 142.722 150.893 143.195 151.433C143.668 151.972 144.03 152.612 144.281 153.351C144.533 154.09 144.658 154.896 144.658 155.768V156.134C144.658 157.007 144.533 157.812 144.281 158.551C144.03 159.283 143.668 159.919 143.195 160.459C142.729 160.998 142.167 161.42 141.509 161.723C140.851 162.018 140.119 162.166 139.314 162.166C138.501 162.166 137.765 162.018 137.107 161.723C136.449 161.42 135.884 160.998 135.411 160.459C134.938 159.919 134.575 159.283 134.324 158.551C134.073 157.812 133.947 157.007 133.947 156.134ZM135.266 155.768V156.134C135.266 156.792 135.355 157.417 135.533 158.008C135.71 158.592 135.969 159.113 136.309 159.572C136.649 160.023 137.07 160.377 137.573 160.636C138.076 160.895 138.656 161.024 139.314 161.024C139.964 161.024 140.537 160.895 141.032 160.636C141.535 160.377 141.956 160.023 142.297 159.572C142.637 159.113 142.892 158.592 143.062 158.008C143.239 157.417 143.328 156.792 143.328 156.134V155.768C143.328 155.118 143.239 154.501 143.062 153.917C142.892 153.333 142.633 152.811 142.285 152.353C141.945 151.895 141.524 151.533 141.021 151.266C140.519 151 139.942 150.867 139.292 150.867C138.641 150.867 138.064 151 137.562 151.266C137.066 151.533 136.645 151.895 136.298 152.353C135.958 152.811 135.699 153.333 135.521 153.917C135.351 154.501 135.266 155.118 135.266 155.768Z" fill="white"/>
<path d="M150.79 160.747L154.527 149.947H155.957L150.879 163.874C150.775 164.147 150.642 164.451 150.48 164.783C150.325 165.116 150.118 165.434 149.859 165.737C149.608 166.047 149.29 166.299 148.905 166.491C148.528 166.69 148.066 166.79 147.519 166.79C147.379 166.79 147.198 166.772 146.976 166.735C146.761 166.705 146.606 166.676 146.51 166.646L146.499 165.526C146.58 165.548 146.699 165.567 146.854 165.582C147.009 165.596 147.116 165.604 147.175 165.604C147.656 165.604 148.059 165.522 148.384 165.36C148.717 165.197 148.994 164.953 149.216 164.628C149.437 164.31 149.633 163.911 149.803 163.43L150.79 160.747ZM147.297 149.947L151.123 160.248L151.478 161.634L150.513 162.177L145.856 149.947H147.297Z" fill="white"/>
<path d="M159.284 152.431V161.945H157.953V149.947H159.229L159.284 152.431ZM159.04 155.203L158.397 154.87C158.441 154.16 158.574 153.495 158.796 152.874C159.025 152.253 159.343 151.706 159.75 151.233C160.156 150.76 160.644 150.39 161.213 150.124C161.783 149.858 162.429 149.725 163.154 149.725C163.738 149.725 164.266 149.806 164.74 149.969C165.22 150.124 165.627 150.372 165.959 150.712C166.299 151.045 166.562 151.481 166.747 152.02C166.931 152.56 167.024 153.207 167.024 153.961V161.945H165.704V154.005C165.704 153.207 165.579 152.582 165.327 152.131C165.083 151.68 164.74 151.359 164.296 151.167C163.86 150.974 163.353 150.878 162.777 150.878C162.097 150.878 161.52 151.019 161.047 151.3C160.581 151.573 160.201 151.932 159.905 152.375C159.617 152.811 159.402 153.281 159.262 153.783C159.121 154.279 159.047 154.752 159.04 155.203ZM167.013 154.16L166.126 154.183C166.163 153.599 166.296 153.041 166.525 152.508C166.761 151.976 167.083 151.503 167.489 151.089C167.896 150.668 168.38 150.335 168.942 150.091C169.511 149.847 170.151 149.725 170.86 149.725C171.481 149.725 172.036 149.81 172.524 149.98C173.011 150.143 173.422 150.405 173.754 150.767C174.094 151.122 174.353 151.577 174.531 152.131C174.708 152.686 174.797 153.351 174.797 154.127V161.945H173.466V154.116C173.466 153.266 173.34 152.608 173.089 152.142C172.845 151.669 172.505 151.34 172.069 151.156C171.633 150.971 171.123 150.878 170.539 150.878C169.962 150.886 169.456 150.993 169.02 151.2C168.584 151.399 168.218 151.666 167.922 151.998C167.634 152.323 167.412 152.675 167.257 153.052C167.109 153.429 167.027 153.798 167.013 154.16Z" fill="white"/>
<path d="M182.803 162.166C182.019 162.166 181.298 162.022 180.64 161.734C179.99 161.446 179.421 161.039 178.933 160.514C178.452 159.989 178.079 159.368 177.813 158.651C177.554 157.927 177.425 157.136 177.425 156.278V155.802C177.425 154.878 177.561 154.042 177.835 153.296C178.108 152.549 178.485 151.91 178.966 151.377C179.446 150.845 179.993 150.438 180.607 150.158C181.228 149.869 181.879 149.725 182.559 149.725C183.32 149.725 183.996 149.862 184.588 150.135C185.179 150.401 185.674 150.782 186.074 151.277C186.48 151.765 186.787 152.346 186.994 153.018C187.201 153.684 187.304 154.419 187.304 155.225V156.034H178.223V154.903H185.985V154.748C185.97 154.075 185.833 153.447 185.575 152.863C185.323 152.272 184.946 151.791 184.444 151.422C183.941 151.052 183.313 150.867 182.559 150.867C181.997 150.867 181.479 150.985 181.006 151.222C180.541 151.459 180.138 151.799 179.798 152.242C179.465 152.678 179.206 153.199 179.021 153.806C178.844 154.404 178.755 155.07 178.755 155.802V156.278C178.755 156.944 178.851 157.565 179.044 158.141C179.243 158.71 179.524 159.213 179.886 159.649C180.256 160.085 180.692 160.425 181.195 160.669C181.697 160.913 182.252 161.035 182.858 161.035C183.568 161.035 184.196 160.906 184.743 160.647C185.29 160.381 185.782 159.963 186.218 159.394L187.049 160.037C186.791 160.422 186.465 160.777 186.074 161.102C185.689 161.427 185.227 161.686 184.688 161.878C184.148 162.07 183.52 162.166 182.803 162.166Z" fill="white"/>
<path d="M191.241 152.508V161.945H189.921V149.947H191.185L191.241 152.508ZM190.941 155.203L190.354 154.87C190.398 154.16 190.542 153.495 190.786 152.874C191.03 152.253 191.359 151.706 191.773 151.233C192.194 150.76 192.686 150.39 193.248 150.124C193.817 149.858 194.445 149.725 195.133 149.725C195.732 149.725 196.268 149.806 196.741 149.969C197.214 150.132 197.617 150.39 197.949 150.745C198.282 151.1 198.533 151.555 198.703 152.109C198.881 152.664 198.969 153.34 198.969 154.138V161.945H197.639V154.127C197.639 153.299 197.524 152.652 197.295 152.187C197.066 151.714 196.741 151.377 196.319 151.178C195.898 150.978 195.399 150.878 194.822 150.878C194.187 150.878 193.629 151.019 193.148 151.3C192.675 151.573 192.276 151.932 191.951 152.375C191.633 152.811 191.389 153.281 191.219 153.783C191.049 154.279 190.956 154.752 190.941 155.203Z" fill="white"/>
<path d="M206.942 149.947V151.034H200.932V149.947H206.942ZM203.139 146.864H204.458V159.028C204.458 159.583 204.532 160 204.68 160.281C204.828 160.562 205.02 160.751 205.257 160.847C205.493 160.943 205.748 160.991 206.022 160.991C206.221 160.991 206.414 160.98 206.598 160.958C206.783 160.928 206.949 160.899 207.097 160.869L207.153 161.989C206.99 162.041 206.779 162.081 206.521 162.111C206.262 162.148 206.003 162.166 205.745 162.166C205.234 162.166 204.784 162.074 204.392 161.889C204 161.697 203.693 161.372 203.471 160.913C203.25 160.448 203.139 159.816 203.139 159.017V146.864Z" fill="white"/>
<path d="M35.5038 170.401H36.8788L42.8444 184.617L48.8211 170.401H50.1849L43.3655 186.546H42.3232L35.5038 170.401ZM35.0825 170.401H36.2911L36.4353 179.494V186.546H35.0825V170.401ZM49.4198 170.401H50.6285V186.546H49.2646V179.494L49.4198 170.401Z" fill="white"/>
<path d="M59.0557 186.768C58.2721 186.768 57.5513 186.624 56.8934 186.335C56.2429 186.047 55.6737 185.641 55.1858 185.116C54.7053 184.591 54.332 183.97 54.0659 183.253C53.8071 182.528 53.6778 181.737 53.6778 180.88V180.403C53.6778 179.479 53.8145 178.644 54.0881 177.897C54.3616 177.15 54.7386 176.511 55.2191 175.979C55.6996 175.447 56.2466 175.04 56.8602 174.759C57.4811 174.471 58.1316 174.327 58.8117 174.327C59.5731 174.327 60.2495 174.463 60.8409 174.737C61.4323 175.003 61.9276 175.384 62.3268 175.879C62.7333 176.367 63.0401 176.947 63.2471 177.62C63.4541 178.285 63.5576 179.021 63.5576 179.826V180.636H54.4762V179.505H62.2381V179.35C62.2233 178.677 62.0865 178.049 61.8278 177.465C61.5764 176.873 61.1994 176.393 60.6968 176.023C60.1941 175.654 59.5657 175.469 58.8117 175.469C58.2499 175.469 57.7325 175.587 57.2593 175.824C56.7936 176.06 56.3908 176.4 56.0507 176.844C55.7181 177.28 55.4593 177.801 55.2745 178.407C55.0971 179.006 55.0084 179.671 55.0084 180.403V180.88C55.0084 181.545 55.1045 182.166 55.2967 182.743C55.4963 183.312 55.7772 183.815 56.1394 184.251C56.509 184.687 56.9452 185.027 57.4479 185.271C57.9505 185.515 58.5049 185.637 59.1111 185.637C59.8208 185.637 60.4491 185.507 60.9961 185.249C61.5432 184.983 62.0348 184.565 62.4709 183.996L63.3025 184.639C63.0438 185.023 62.7186 185.378 62.3268 185.703C61.9424 186.029 61.4803 186.287 60.9407 186.48C60.4011 186.672 59.7727 186.768 59.0557 186.768Z" fill="white"/>
<path d="M70.8094 186.768C70.0258 186.768 69.3051 186.624 68.6472 186.335C67.9966 186.047 67.4274 185.641 66.9395 185.116C66.459 184.591 66.0857 183.97 65.8196 183.253C65.5609 182.528 65.4315 181.737 65.4315 180.88V180.403C65.4315 179.479 65.5683 178.644 65.8418 177.897C66.1153 177.15 66.4923 176.511 66.9728 175.979C67.4533 175.447 68.0003 175.04 68.6139 174.759C69.2349 174.471 69.8854 174.327 70.5655 174.327C71.3269 174.327 72.0033 174.463 72.5947 174.737C73.186 175.003 73.6813 175.384 74.0805 175.879C74.4871 176.367 74.7939 176.947 75.0008 177.62C75.2078 178.285 75.3113 179.021 75.3113 179.826V180.636H66.2299V179.505H73.9918V179.35C73.977 178.677 73.8402 178.049 73.5815 177.465C73.3302 176.873 72.9532 176.393 72.4505 176.023C71.9478 175.654 71.3195 175.469 70.5655 175.469C70.0037 175.469 69.4862 175.587 69.0131 175.824C68.5474 176.06 68.1445 176.4 67.8044 176.844C67.4718 177.28 67.2131 177.801 67.0283 178.407C66.8508 179.006 66.7621 179.671 66.7621 180.403V180.88C66.7621 181.545 66.8582 182.166 67.0504 182.743C67.25 183.312 67.5309 183.815 67.8932 184.251C68.2628 184.687 68.6989 185.027 69.2016 185.271C69.7043 185.515 70.2587 185.637 70.8649 185.637C71.5745 185.637 72.2029 185.507 72.7499 185.249C73.2969 184.983 73.7885 184.565 74.2246 183.996L75.0563 184.639C74.7976 185.023 74.4723 185.378 74.0805 185.703C73.6961 186.029 73.2341 186.287 72.6944 186.48C72.1548 186.672 71.5265 186.768 70.8094 186.768Z" fill="white"/>
<path d="M82.4634 174.548V175.635H76.4534V174.548H82.4634ZM78.66 171.466H79.9795V183.63C79.9795 184.184 80.0535 184.602 80.2013 184.883C80.3492 185.164 80.5414 185.352 80.7779 185.448C81.0145 185.544 81.2695 185.592 81.543 185.592C81.7426 185.592 81.9348 185.581 82.1196 185.559C82.3044 185.53 82.4707 185.5 82.6186 185.471L82.674 186.59C82.5114 186.642 82.3007 186.683 82.042 186.712C81.7833 186.749 81.5245 186.768 81.2658 186.768C80.7557 186.768 80.3048 186.675 79.913 186.491C79.5212 186.298 79.2144 185.973 78.9927 185.515C78.7709 185.049 78.66 184.417 78.66 183.619V171.466Z" fill="white"/>
<path d="M92.4319 183.486C92.4319 183.16 92.3505 182.839 92.1879 182.521C92.0253 182.203 91.7111 181.911 91.2454 181.645C90.7871 181.379 90.1107 181.153 89.2162 180.969C88.5509 180.821 87.9558 180.654 87.431 180.47C86.9135 180.285 86.4774 180.063 86.1225 179.804C85.7677 179.546 85.4979 179.235 85.3131 178.873C85.1283 178.511 85.0359 178.082 85.0359 177.587C85.0359 177.143 85.132 176.725 85.3242 176.334C85.5238 175.934 85.8047 175.587 86.1669 175.291C86.5365 174.988 86.98 174.752 87.4975 174.582C88.0224 174.412 88.61 174.327 89.2606 174.327C90.1846 174.327 90.9756 174.486 91.6335 174.803C92.2988 175.114 92.8052 175.539 93.1526 176.079C93.5074 176.618 93.6848 177.228 93.6848 177.908H92.3653C92.3653 177.494 92.2434 177.102 91.9994 176.733C91.7629 176.363 91.4117 176.06 90.946 175.824C90.4877 175.587 89.9259 175.469 89.2606 175.469C88.5731 175.469 88.015 175.572 87.5862 175.779C87.1575 175.986 86.8433 176.249 86.6437 176.566C86.4515 176.884 86.3554 177.213 86.3554 177.553C86.3554 177.819 86.396 178.063 86.4774 178.285C86.5661 178.5 86.7213 178.699 86.9431 178.884C87.1722 179.069 87.4975 179.243 87.9189 179.405C88.3402 179.568 88.8873 179.727 89.5599 179.882C90.5283 180.096 91.3193 180.359 91.9329 180.669C92.5538 180.972 93.0121 181.349 93.3078 181.8C93.6035 182.244 93.7514 182.783 93.7514 183.419C93.7514 183.914 93.6479 184.369 93.4409 184.783C93.2339 185.19 92.9345 185.541 92.5427 185.836C92.1583 186.132 91.6926 186.361 91.1456 186.524C90.606 186.687 89.9998 186.768 89.3271 186.768C88.3144 186.768 87.4568 186.602 86.7546 186.269C86.0597 185.929 85.5312 185.485 85.1689 184.938C84.8141 184.384 84.6367 183.796 84.6367 183.175H85.9562C86.0006 183.796 86.1965 184.288 86.5439 184.65C86.8913 185.005 87.3164 185.256 87.8191 185.404C88.3291 185.552 88.8318 185.626 89.3271 185.626C90.0072 185.626 90.5764 185.526 91.0347 185.326C91.493 185.127 91.8405 184.864 92.077 184.539C92.3136 184.214 92.4319 183.863 92.4319 183.486Z" fill="white"/>
<path d="M111.748 182.576C111.748 182.133 111.674 181.737 111.526 181.39C111.378 181.043 111.134 180.732 110.794 180.459C110.462 180.178 110.011 179.919 109.442 179.682C108.88 179.438 108.177 179.198 107.335 178.962C106.529 178.732 105.801 178.481 105.15 178.208C104.5 177.934 103.942 177.62 103.476 177.265C103.018 176.91 102.666 176.496 102.423 176.023C102.179 175.543 102.057 174.985 102.057 174.349C102.057 173.728 102.19 173.162 102.456 172.652C102.722 172.142 103.095 171.702 103.576 171.333C104.064 170.963 104.637 170.679 105.294 170.479C105.96 170.279 106.688 170.18 107.479 170.18C108.61 170.18 109.586 170.394 110.406 170.823C111.234 171.251 111.874 171.832 112.325 172.564C112.783 173.288 113.012 174.101 113.012 175.003H111.648C111.648 174.301 111.482 173.676 111.149 173.129C110.824 172.575 110.351 172.142 109.73 171.832C109.116 171.514 108.366 171.355 107.479 171.355C106.592 171.355 105.845 171.492 105.239 171.765C104.64 172.031 104.186 172.39 103.875 172.841C103.572 173.284 103.42 173.78 103.42 174.327C103.42 174.711 103.494 175.066 103.642 175.391C103.79 175.709 104.03 176.008 104.363 176.289C104.703 176.563 105.15 176.822 105.705 177.065C106.259 177.302 106.943 177.527 107.756 177.742C108.614 177.978 109.375 178.241 110.04 178.529C110.706 178.817 111.267 179.15 111.726 179.527C112.184 179.897 112.531 180.329 112.768 180.824C113.005 181.32 113.123 181.896 113.123 182.554C113.123 183.212 112.982 183.804 112.702 184.328C112.428 184.846 112.04 185.286 111.537 185.648C111.042 186.01 110.454 186.287 109.774 186.48C109.101 186.672 108.366 186.768 107.568 186.768C106.851 186.768 106.137 186.675 105.427 186.491C104.718 186.306 104.067 186.021 103.476 185.637C102.892 185.245 102.423 184.742 102.068 184.129C101.72 183.515 101.547 182.783 101.547 181.933H102.899C102.899 182.613 103.036 183.186 103.31 183.652C103.583 184.118 103.945 184.495 104.396 184.783C104.855 185.071 105.357 185.282 105.904 185.415C106.459 185.541 107.013 185.604 107.568 185.604C108.418 185.604 109.153 185.478 109.774 185.227C110.403 184.975 110.887 184.624 111.227 184.173C111.574 183.715 111.748 183.183 111.748 182.576Z" fill="white"/>
<path d="M120.397 186.768C119.613 186.768 118.893 186.624 118.235 186.335C117.584 186.047 117.015 185.641 116.527 185.116C116.047 184.591 115.673 183.97 115.407 183.253C115.148 182.528 115.019 181.737 115.019 180.88V180.403C115.019 179.479 115.156 178.644 115.429 177.897C115.703 177.15 116.08 176.511 116.56 175.979C117.041 175.447 117.588 175.04 118.201 174.759C118.822 174.471 119.473 174.327 120.153 174.327C120.914 174.327 121.591 174.463 122.182 174.737C122.773 175.003 123.269 175.384 123.668 175.879C124.075 176.367 124.381 176.947 124.588 177.62C124.795 178.285 124.899 179.021 124.899 179.826V180.636H115.817V179.505H123.579V179.35C123.564 178.677 123.428 178.049 123.169 177.465C122.918 176.873 122.541 176.393 122.038 176.023C121.535 175.654 120.907 175.469 120.153 175.469C119.591 175.469 119.074 175.587 118.601 175.824C118.135 176.06 117.732 176.4 117.392 176.844C117.059 177.28 116.801 177.801 116.616 178.407C116.438 179.006 116.35 179.671 116.35 180.403V180.88C116.35 181.545 116.446 182.166 116.638 182.743C116.837 183.312 117.118 183.815 117.481 184.251C117.85 184.687 118.286 185.027 118.789 185.271C119.292 185.515 119.846 185.637 120.452 185.637C121.162 185.637 121.79 185.507 122.337 185.249C122.884 184.983 123.376 184.565 123.812 183.996L124.644 184.639C124.385 185.023 124.06 185.378 123.668 185.703C123.284 186.029 122.822 186.287 122.282 186.48C121.742 186.672 121.114 186.768 120.397 186.768Z" fill="white"/>
<path d="M131.94 185.626C132.502 185.626 133.027 185.522 133.514 185.315C134.01 185.101 134.416 184.787 134.734 184.373C135.059 183.951 135.244 183.438 135.289 182.831H136.553C136.516 183.593 136.283 184.273 135.854 184.872C135.433 185.463 134.878 185.929 134.191 186.269C133.511 186.602 132.76 186.768 131.94 186.768C131.105 186.768 130.365 186.616 129.722 186.313C129.087 186.01 128.554 185.589 128.126 185.049C127.697 184.502 127.371 183.866 127.15 183.142C126.935 182.41 126.828 181.623 126.828 180.78V180.314C126.828 179.472 126.935 178.688 127.15 177.964C127.371 177.232 127.697 176.596 128.126 176.056C128.554 175.509 129.087 175.084 129.722 174.781C130.358 174.478 131.094 174.327 131.929 174.327C132.786 174.327 133.555 174.5 134.235 174.848C134.923 175.195 135.47 175.687 135.876 176.323C136.29 176.958 136.516 177.712 136.553 178.585H135.289C135.252 177.941 135.082 177.387 134.779 176.921C134.475 176.456 134.076 176.097 133.581 175.846C133.086 175.594 132.535 175.469 131.929 175.469C131.249 175.469 130.668 175.602 130.188 175.868C129.707 176.127 129.316 176.485 129.013 176.943C128.717 177.394 128.499 177.912 128.358 178.496C128.218 179.072 128.148 179.679 128.148 180.314V180.78C128.148 181.423 128.214 182.037 128.347 182.621C128.488 183.197 128.706 183.711 129.002 184.162C129.305 184.613 129.696 184.972 130.177 185.238C130.665 185.496 131.252 185.626 131.94 185.626Z" fill="white"/>
<path d="M146.909 183.774V174.548H148.24V186.546H146.965L146.909 183.774ZM147.153 181.556L147.841 181.534C147.841 182.288 147.752 182.983 147.575 183.619C147.397 184.254 147.12 184.809 146.743 185.282C146.366 185.755 145.878 186.121 145.279 186.38C144.681 186.638 143.96 186.768 143.117 186.768C142.533 186.768 141.997 186.687 141.509 186.524C141.029 186.354 140.615 186.088 140.267 185.726C139.92 185.363 139.65 184.894 139.458 184.317C139.273 183.741 139.181 183.042 139.181 182.222V174.548H140.5V182.244C140.5 182.887 140.57 183.423 140.711 183.852C140.859 184.28 141.058 184.624 141.31 184.883C141.568 185.142 141.864 185.326 142.197 185.437C142.529 185.548 142.888 185.604 143.272 185.604C144.248 185.604 145.017 185.415 145.579 185.038C146.148 184.661 146.551 184.166 146.787 183.552C147.031 182.931 147.153 182.266 147.153 181.556Z" fill="white"/>
<path d="M153.03 176.533V186.546H151.711V174.548H152.997L153.03 176.533ZM157.277 174.46L157.244 175.679C157.096 175.657 156.952 175.639 156.811 175.624C156.671 175.609 156.519 175.602 156.357 175.602C155.78 175.602 155.274 175.709 154.838 175.923C154.409 176.13 154.047 176.422 153.751 176.799C153.455 177.169 153.23 177.605 153.074 178.108C152.919 178.603 152.831 179.135 152.808 179.705L152.32 179.893C152.32 179.109 152.402 178.381 152.564 177.709C152.727 177.036 152.975 176.448 153.307 175.946C153.647 175.435 154.072 175.04 154.583 174.759C155.1 174.471 155.706 174.327 156.401 174.327C156.571 174.327 156.737 174.341 156.9 174.371C157.07 174.393 157.196 174.423 157.277 174.46Z" fill="white"/>
<path d="M160.836 174.548V186.546H159.517V174.548H160.836ZM159.284 171.078C159.284 170.826 159.362 170.616 159.517 170.446C159.679 170.268 159.901 170.18 160.182 170.18C160.463 170.18 160.685 170.268 160.847 170.446C161.018 170.616 161.103 170.826 161.103 171.078C161.103 171.322 161.018 171.532 160.847 171.71C160.685 171.88 160.463 171.965 160.182 171.965C159.901 171.965 159.679 171.88 159.517 171.71C159.362 171.532 159.284 171.322 159.284 171.078Z" fill="white"/>
<path d="M168.997 174.548V175.635H162.988V174.548H168.997ZM165.194 171.466H166.514V183.63C166.514 184.184 166.588 184.602 166.735 184.883C166.883 185.164 167.075 185.352 167.312 185.448C167.549 185.544 167.804 185.592 168.077 185.592C168.277 185.592 168.469 185.581 168.654 185.559C168.839 185.53 169.005 185.5 169.153 185.471L169.208 186.59C169.046 186.642 168.835 186.683 168.576 186.712C168.317 186.749 168.059 186.768 167.8 186.768C167.29 186.768 166.839 186.675 166.447 186.491C166.055 186.298 165.749 185.973 165.527 185.515C165.305 185.049 165.194 184.417 165.194 183.619V171.466Z" fill="white"/>
<path d="M175.34 185.349L179.077 174.548H180.507L175.429 188.475C175.325 188.749 175.192 189.052 175.03 189.385C174.874 189.717 174.667 190.035 174.409 190.338C174.157 190.649 173.839 190.9 173.455 191.092C173.078 191.292 172.616 191.392 172.069 191.392C171.929 191.392 171.747 191.373 171.526 191.336C171.311 191.307 171.156 191.277 171.06 191.248L171.049 190.128C171.13 190.15 171.248 190.168 171.404 190.183C171.559 190.198 171.666 190.205 171.725 190.205C172.206 190.205 172.609 190.124 172.934 189.961C173.267 189.799 173.544 189.555 173.766 189.229C173.987 188.912 174.183 188.512 174.353 188.032L175.34 185.349ZM171.847 174.548L175.673 184.85L176.028 186.236L175.063 186.779L170.406 174.548H171.847Z" fill="white"/>
<path d="M49.4232 125.12C49.4232 124.701 49.3616 124.326 49.2384 123.993C49.1152 123.648 48.8873 123.328 48.5546 123.032C48.222 122.736 47.7415 122.441 47.1131 122.145C46.4971 121.837 45.684 121.517 44.6737 121.184C43.4909 120.79 42.3513 120.346 41.2547 119.853C40.1582 119.348 39.1787 118.763 38.3163 118.098C37.4539 117.42 36.7701 116.631 36.265 115.732C35.7598 114.82 35.5072 113.761 35.5072 112.553C35.5072 111.395 35.766 110.354 36.2834 109.43C36.8009 108.494 37.5216 107.699 38.4457 107.046C39.382 106.381 40.4786 105.876 41.7352 105.531C42.9919 105.173 44.3657 104.995 45.8564 104.995C47.8277 104.995 49.5649 105.34 51.068 106.03C52.5834 106.707 53.7662 107.674 54.6163 108.931C55.4787 110.176 55.91 111.648 55.91 113.348H49.4602C49.4602 112.67 49.3185 112.073 49.0351 111.555C48.7641 111.038 48.3513 110.631 47.7969 110.336C47.2425 110.04 46.5464 109.892 45.7086 109.892C44.8954 109.892 44.2117 110.015 43.6572 110.262C43.1028 110.508 42.6839 110.841 42.4006 111.26C42.1172 111.666 41.9755 112.116 41.9755 112.609C41.9755 113.015 42.0864 113.385 42.3081 113.718C42.5422 114.038 42.8687 114.34 43.2876 114.623C43.7188 114.907 44.2363 115.178 44.84 115.436C45.456 115.695 46.146 115.948 46.9098 116.194C48.339 116.65 49.608 117.161 50.7169 117.728C51.838 118.282 52.7806 118.917 53.5444 119.631C54.3206 120.334 54.9058 121.135 55.3001 122.034C55.7067 122.933 55.91 123.95 55.91 125.083C55.91 126.291 55.6759 127.363 55.2077 128.299C54.7395 129.235 54.068 130.03 53.1933 130.683C52.3185 131.324 51.2713 131.81 50.0516 132.143C48.8318 132.476 47.4704 132.642 45.9673 132.642C44.5874 132.642 43.226 132.469 41.8831 132.124C40.5525 131.767 39.3451 131.225 38.2609 130.498C37.1767 129.759 36.3081 128.816 35.6551 127.671C35.0144 126.512 34.6941 125.139 34.6941 123.549H41.1993C41.1993 124.338 41.304 125.003 41.5135 125.545C41.7229 126.087 42.0309 126.525 42.4375 126.857C42.8441 127.178 43.3431 127.412 43.9345 127.56C44.5258 127.695 45.2035 127.763 45.9673 127.763C46.7928 127.763 47.4581 127.646 47.9632 127.412C48.4684 127.165 48.838 126.845 49.0721 126.451C49.3062 126.044 49.4232 125.601 49.4232 125.12Z" fill="white"/>
<path d="M69.3454 127.246V119.003C69.3454 118.436 69.2654 117.95 69.1052 117.543C68.945 117.137 68.6925 116.822 68.3475 116.601C68.0025 116.367 67.5405 116.25 66.9614 116.25C66.4932 116.25 66.0928 116.33 65.7602 116.49C65.4275 116.65 65.175 116.89 65.0025 117.21C64.83 117.531 64.7437 117.937 64.7437 118.43H58.5157C58.5157 117.506 58.719 116.65 59.1256 115.861C59.5445 115.061 60.1359 114.364 60.8998 113.773C61.6759 113.182 62.6 112.726 63.6719 112.406C64.7561 112.073 65.9635 111.907 67.2941 111.907C68.8834 111.907 70.3003 112.171 71.5446 112.701C72.8013 113.231 73.7931 114.026 74.52 115.085C75.247 116.132 75.6104 117.451 75.6104 119.04V127.227C75.6104 128.533 75.6843 129.525 75.8322 130.202C75.98 130.868 76.1895 131.453 76.4605 131.958V132.272H70.214C69.9183 131.656 69.6966 130.905 69.5487 130.018C69.4132 129.118 69.3454 128.194 69.3454 127.246ZM70.1031 120.057L70.1401 123.383H67.3865C66.8074 123.383 66.3146 123.463 65.908 123.623C65.5138 123.783 65.1934 124.005 64.947 124.289C64.7129 124.56 64.5405 124.868 64.4296 125.213C64.331 125.558 64.2817 125.921 64.2817 126.303C64.2817 126.673 64.368 127.005 64.5405 127.301C64.7253 127.584 64.9717 127.806 65.2797 127.966C65.5877 128.126 65.9327 128.207 66.3146 128.207C67.0046 128.207 67.5898 128.077 68.0703 127.818C68.5631 127.547 68.9389 127.221 69.1976 126.839C69.4563 126.457 69.5857 126.1 69.5857 125.767L70.9533 128.317C70.7069 128.81 70.4235 129.309 70.1031 129.814C69.7951 130.319 69.407 130.788 68.9389 131.219C68.483 131.638 67.9224 131.983 67.2571 132.254C66.5918 132.513 65.7848 132.642 64.8361 132.642C63.6041 132.642 62.4706 132.389 61.4357 131.884C60.4131 131.379 59.5938 130.677 58.9778 129.777C58.3617 128.866 58.0537 127.818 58.0537 126.636C58.0537 125.601 58.2385 124.677 58.6081 123.864C58.9901 123.05 59.563 122.36 60.3268 121.794C61.0907 121.227 62.064 120.796 63.2468 120.5C64.4296 120.204 65.8218 120.057 67.4234 120.057H70.1031Z" fill="white"/>
<path d="M86.6988 132.272H80.4339V110.65C80.4339 109.097 80.748 107.791 81.3764 106.732C82.0047 105.672 82.8918 104.872 84.0376 104.329C85.1834 103.775 86.5387 103.498 88.1034 103.498C88.6455 103.498 89.1568 103.535 89.6373 103.609C90.1178 103.683 90.5859 103.775 91.0418 103.886L91.0603 108.469C90.8385 108.408 90.6106 108.364 90.3765 108.34C90.1424 108.315 89.8529 108.303 89.5079 108.303C88.9042 108.303 88.3929 108.395 87.974 108.58C87.5551 108.752 87.2348 109.017 87.013 109.375C86.8036 109.72 86.6988 110.145 86.6988 110.65V132.272ZM90.5798 112.276V116.601H77.5509V112.276H90.5798Z" fill="white"/>
<path d="M102.056 132.642C100.43 132.642 98.9762 132.389 97.6949 131.884C96.4135 131.367 95.3293 130.658 94.4423 129.759C93.5675 128.86 92.896 127.825 92.4279 126.654C91.972 125.484 91.7441 124.245 91.7441 122.94V122.237C91.7441 120.771 91.9474 119.416 92.3539 118.171C92.7605 116.915 93.3642 115.818 94.165 114.882C94.9659 113.946 95.97 113.219 97.1774 112.701C98.3848 112.171 99.7893 111.907 101.391 111.907C102.808 111.907 104.077 112.134 105.198 112.59C106.319 113.046 107.268 113.699 108.044 114.549C108.833 115.399 109.43 116.428 109.837 117.636C110.256 118.843 110.465 120.198 110.465 121.701V124.233H94.1281V120.334H104.385V119.853C104.397 119.188 104.28 118.621 104.034 118.153C103.8 117.685 103.455 117.328 102.999 117.081C102.543 116.835 101.989 116.712 101.336 116.712C100.658 116.712 100.097 116.859 99.6538 117.155C99.2226 117.451 98.8838 117.857 98.6374 118.375C98.4033 118.88 98.237 119.465 98.1384 120.13C98.0398 120.796 97.9906 121.498 97.9906 122.237V122.94C97.9906 123.679 98.0891 124.35 98.2862 124.954C98.4957 125.558 98.7914 126.075 99.1733 126.506C99.5676 126.925 100.036 127.252 100.578 127.486C101.132 127.72 101.761 127.837 102.463 127.837C103.313 127.837 104.151 127.677 104.976 127.356C105.802 127.036 106.51 126.506 107.102 125.767L109.929 129.131C109.523 129.71 108.943 130.27 108.192 130.812C107.453 131.354 106.566 131.798 105.531 132.143C104.496 132.476 103.338 132.642 102.056 132.642Z" fill="white"/>
<path d="M121.849 129.833C122.662 129.833 123.414 129.667 124.104 129.334C124.794 129.001 125.361 128.545 125.804 127.966C126.248 127.375 126.5 126.703 126.562 125.952H129.814C129.753 127.135 129.352 128.237 128.613 129.26C127.886 130.27 126.931 131.09 125.749 131.718C124.566 132.334 123.266 132.642 121.849 132.642C120.346 132.642 119.034 132.377 117.913 131.847C116.804 131.317 115.88 130.591 115.141 129.667C114.414 128.742 113.865 127.683 113.496 126.488C113.139 125.28 112.96 124.005 112.96 122.662V121.886C112.96 120.543 113.139 119.274 113.496 118.079C113.865 116.872 114.414 115.806 115.141 114.882C115.88 113.958 116.804 113.231 117.913 112.701C119.034 112.171 120.346 111.907 121.849 111.907C123.414 111.907 124.781 112.227 125.952 112.868C127.122 113.496 128.04 114.358 128.706 115.455C129.383 116.539 129.753 117.771 129.814 119.151H126.562C126.5 118.326 126.266 117.58 125.859 116.915C125.465 116.25 124.923 115.72 124.233 115.325C123.556 114.919 122.761 114.716 121.849 114.716C120.802 114.716 119.921 114.925 119.206 115.344C118.504 115.751 117.944 116.305 117.525 117.007C117.118 117.697 116.822 118.467 116.638 119.317C116.465 120.155 116.379 121.011 116.379 121.886V122.662C116.379 123.537 116.465 124.399 116.638 125.25C116.81 126.1 117.1 126.87 117.506 127.56C117.925 128.25 118.486 128.804 119.188 129.223C119.903 129.63 120.79 129.833 121.849 129.833Z" fill="white"/>
<path d="M145.449 128.853V118.56C145.449 117.771 145.289 117.087 144.969 116.508C144.661 115.917 144.192 115.461 143.564 115.141C142.936 114.82 142.159 114.66 141.235 114.66C140.373 114.66 139.615 114.808 138.962 115.104C138.322 115.399 137.817 115.787 137.447 116.268C137.09 116.748 136.911 117.266 136.911 117.82H133.492C133.492 117.106 133.677 116.397 134.046 115.695C134.416 114.993 134.946 114.358 135.636 113.792C136.338 113.213 137.176 112.757 138.149 112.424C139.135 112.079 140.231 111.907 141.439 111.907C142.893 111.907 144.174 112.153 145.283 112.646C146.404 113.139 147.279 113.884 147.907 114.882C148.548 115.868 148.868 117.106 148.868 118.597V127.911C148.868 128.576 148.923 129.285 149.034 130.036C149.158 130.788 149.336 131.434 149.57 131.977V132.272H146.003C145.831 131.878 145.695 131.354 145.597 130.701C145.498 130.036 145.449 129.42 145.449 128.853ZM146.04 120.149L146.077 122.551H142.621C141.648 122.551 140.78 122.632 140.016 122.792C139.252 122.94 138.611 123.167 138.094 123.475C137.576 123.783 137.182 124.172 136.911 124.64C136.64 125.096 136.504 125.632 136.504 126.248C136.504 126.876 136.646 127.449 136.929 127.966C137.213 128.484 137.638 128.896 138.205 129.204C138.784 129.5 139.492 129.648 140.33 129.648C141.377 129.648 142.301 129.426 143.102 128.983C143.903 128.539 144.537 127.997 145.006 127.356C145.486 126.716 145.745 126.094 145.782 125.49L147.242 127.135C147.155 127.652 146.921 128.225 146.539 128.853C146.157 129.482 145.646 130.085 145.006 130.664C144.377 131.231 143.626 131.706 142.751 132.087C141.888 132.457 140.915 132.642 139.831 132.642C138.476 132.642 137.287 132.377 136.264 131.847C135.254 131.317 134.465 130.609 133.899 129.722C133.344 128.823 133.067 127.818 133.067 126.71C133.067 125.638 133.276 124.695 133.695 123.882C134.114 123.057 134.718 122.373 135.506 121.831C136.295 121.276 137.244 120.857 138.352 120.574C139.461 120.291 140.7 120.149 142.067 120.149H146.04Z" fill="white"/>
<path d="M165.889 126.968C165.889 126.475 165.778 126.02 165.556 125.601C165.347 125.17 164.909 124.781 164.244 124.436C163.591 124.079 162.605 123.771 161.287 123.512C160.178 123.278 159.174 123.001 158.275 122.681C157.388 122.36 156.63 121.972 156.002 121.517C155.386 121.061 154.911 120.525 154.579 119.909C154.246 119.293 154.08 118.572 154.08 117.746C154.08 116.958 154.252 116.213 154.597 115.51C154.954 114.808 155.453 114.186 156.094 113.644C156.747 113.102 157.529 112.677 158.441 112.369C159.353 112.061 160.369 111.907 161.49 111.907C163.092 111.907 164.46 112.19 165.593 112.757C166.727 113.323 167.595 114.081 168.199 115.03C168.803 115.966 169.104 117.007 169.104 118.153H165.685C165.685 117.599 165.519 117.063 165.186 116.545C164.866 116.015 164.392 115.578 163.763 115.233C163.147 114.888 162.39 114.716 161.49 114.716C160.542 114.716 159.772 114.863 159.18 115.159C158.601 115.443 158.176 115.806 157.905 116.25C157.646 116.693 157.517 117.161 157.517 117.654C157.517 118.024 157.579 118.356 157.702 118.652C157.837 118.935 158.071 119.2 158.404 119.447C158.737 119.681 159.205 119.903 159.809 120.112C160.412 120.321 161.182 120.531 162.119 120.74C163.757 121.11 165.106 121.553 166.166 122.071C167.225 122.588 168.014 123.223 168.531 123.974C169.049 124.726 169.308 125.638 169.308 126.71C169.308 127.584 169.123 128.385 168.753 129.112C168.396 129.839 167.872 130.467 167.182 130.997C166.505 131.515 165.692 131.921 164.743 132.217C163.807 132.5 162.753 132.642 161.583 132.642C159.821 132.642 158.33 132.328 157.11 131.699C155.891 131.071 154.967 130.258 154.338 129.26C153.71 128.262 153.396 127.209 153.396 126.1H156.833C156.882 127.036 157.153 127.781 157.646 128.336C158.139 128.878 158.743 129.266 159.457 129.5C160.172 129.722 160.88 129.833 161.583 129.833C162.519 129.833 163.301 129.71 163.93 129.463C164.57 129.217 165.057 128.878 165.39 128.447C165.722 128.016 165.889 127.523 165.889 126.968Z" fill="white"/>
<path d="M177.513 112.276V132.272H174.076V112.276H177.513ZM173.817 106.972C173.817 106.418 173.983 105.95 174.316 105.568C174.661 105.186 175.166 104.995 175.831 104.995C176.484 104.995 176.983 105.186 177.328 105.568C177.686 105.95 177.864 106.418 177.864 106.972C177.864 107.502 177.686 107.958 177.328 108.34C176.983 108.709 176.484 108.894 175.831 108.894C175.166 108.894 174.661 108.709 174.316 108.34C173.983 107.958 173.817 107.502 173.817 106.972Z" fill="white"/>
<path d="M186.421 116.545V132.272H183.002V112.276H186.236L186.421 116.545ZM185.608 121.517L184.185 121.461C184.197 120.093 184.4 118.831 184.794 117.673C185.189 116.502 185.743 115.486 186.458 114.623C187.172 113.761 188.022 113.095 189.008 112.627C190.006 112.147 191.109 111.907 192.316 111.907C193.302 111.907 194.189 112.042 194.977 112.313C195.766 112.572 196.437 112.991 196.992 113.57C197.559 114.149 197.99 114.9 198.285 115.824C198.581 116.736 198.729 117.851 198.729 119.169V132.272H195.292V119.132C195.292 118.085 195.138 117.247 194.83 116.619C194.522 115.978 194.072 115.516 193.48 115.233C192.889 114.937 192.162 114.79 191.3 114.79C190.45 114.79 189.673 114.968 188.971 115.325C188.281 115.683 187.684 116.176 187.179 116.804C186.686 117.432 186.298 118.153 186.014 118.966C185.743 119.767 185.608 120.617 185.608 121.517Z" fill="white"/>
<path d="M203.016 122.496V122.071C203.016 120.629 203.226 119.293 203.645 118.061C204.064 116.816 204.667 115.738 205.456 114.826C206.244 113.902 207.199 113.188 208.32 112.683C209.442 112.165 210.698 111.907 212.091 111.907C213.495 111.907 214.758 112.165 215.879 112.683C217.013 113.188 217.974 113.902 218.762 114.826C219.563 115.738 220.173 116.816 220.592 118.061C221.011 119.293 221.22 120.629 221.22 122.071V122.496C221.22 123.937 221.011 125.274 220.592 126.506C220.173 127.738 219.563 128.816 218.762 129.74C217.974 130.652 217.019 131.367 215.898 131.884C214.789 132.389 213.532 132.642 212.127 132.642C210.723 132.642 209.46 132.389 208.339 131.884C207.218 131.367 206.257 130.652 205.456 129.74C204.667 128.816 204.064 127.738 203.645 126.506C203.226 125.274 203.016 123.937 203.016 122.496ZM206.435 122.071V122.496C206.435 123.494 206.552 124.436 206.787 125.324C207.021 126.198 207.372 126.974 207.84 127.652C208.32 128.33 208.918 128.866 209.633 129.26C210.347 129.642 211.179 129.833 212.127 129.833C213.064 129.833 213.883 129.642 214.585 129.26C215.3 128.866 215.891 128.33 216.36 127.652C216.828 126.974 217.179 126.198 217.413 125.324C217.659 124.436 217.783 123.494 217.783 122.496V122.071C217.783 121.085 217.659 120.155 217.413 119.28C217.179 118.393 216.822 117.611 216.341 116.933C215.873 116.243 215.282 115.701 214.567 115.307C213.865 114.913 213.039 114.716 212.091 114.716C211.154 114.716 210.329 114.913 209.614 115.307C208.912 115.701 208.32 116.243 207.84 116.933C207.372 117.611 207.021 118.393 206.787 119.28C206.552 120.155 206.435 121.085 206.435 122.071Z" fill="white"/>
<path fill-rule="evenodd" clip-rule="evenodd" d="M73.6042 6.10352e-05L75.5137 87.0516C75.5137 87.0516 54.2575 76.9191 42.2496 51.7114C37.5027 41.7658 34.2104 29.4754 34.2104 14.5267C34.2104 14.5267 41.6869 8.1555 59.1361 3.21884C63.8971 1.88204 68.727 0.807522 73.6042 6.10352e-05V6.10352e-05Z" fill="url(#paint0_radial_692_1122)"/>
<path fill-rule="evenodd" clip-rule="evenodd" d="M104.997 55.0267C101.137 62.6399 96.1045 69.5896 90.0856 75.6172C82.2679 83.4532 75.5277 87.0698 75.5277 87.0698L73.6062 0.00012207C101.639 3.44795 113.599 12.7607 113.599 12.7607C114.365 30.1385 110.516 44.0805 104.997 55.0267Z" fill="url(#paint1_radial_692_1122)"/>
<path fill-rule="evenodd" clip-rule="evenodd" d="M40.1253 18.7763C40.1253 18.7763 49.9662 10.3918 73.7186 6.38342L75.3528 80.6684C75.3528 80.6684 40.1013 63.8572 40.1253 18.7763Z" fill="url(#paint2_linear_692_1122)"/>
<g style="mix-blend-mode:soft-light" opacity="0.5">
<path fill-rule="evenodd" clip-rule="evenodd" d="M64.3436 8.34842L57.8788 55.9971L42.2494 51.7115C37.5025 41.7658 34.2102 29.4754 34.2102 14.5268C34.2102 14.5268 41.6867 8.15553 59.1358 3.21887L64.3436 8.34842Z" fill="#FBF9FA"/>
</g>
<g style="mix-blend-mode:soft-light" opacity="0.3">
<path fill-rule="evenodd" clip-rule="evenodd" d="M104.995 55.0265C101.136 62.6397 96.103 69.5893 90.0841 75.617L86.0496 72.6032L101.056 52.2658L104.995 55.0265Z" fill="#FBF9FA"/>
</g>
<path fill-rule="evenodd" clip-rule="evenodd" d="M107.869 17.2694C107.869 17.2694 97.6629 9.32492 73.719 6.38342L75.3532 80.6684C75.3532 80.6684 109.874 62.3081 107.869 17.2694Z" fill="url(#paint3_linear_692_1122)"/>
<path fill-rule="evenodd" clip-rule="evenodd" d="M73.7839 8.28192L75.3583 79.8243C75.3583 79.8243 57.6338 71.3856 47.8227 50.3249C45.0787 44.4293 43.2091 38.16 42.2737 31.7175C41.6953 27.9135 41.4011 24.0711 41.3938 20.2227C41.3938 20.2227 47.5833 14.9666 61.9856 10.91C65.8698 9.82576 69.808 8.94852 73.7839 8.28192Z" fill="url(#paint4_linear_692_1122)"/>
<path fill-rule="evenodd" clip-rule="evenodd" d="M106.718 20.9882C107.437 62.7359 75.3578 79.8243 75.3578 79.8243L73.7834 8.28192C96.8295 11.1149 106.652 18.7701 106.652 18.7701C106.688 19.5115 106.706 20.2589 106.718 20.9882Z" fill="url(#paint5_linear_692_1122)"/>
<g style="mix-blend-mode:soft-light" opacity="0.5">
<path fill-rule="evenodd" clip-rule="evenodd" d="M74.5262 36.3226L74.9572 61.5183L47.7988 50.3249C44.0157 42.2297 41.3938 32.272 41.3938 20.2227C41.3938 20.2227 47.5653 14.9666 61.9676 10.91L74.3945 36.0574L74.5262 36.3226Z" fill="#FBF9FA"/>
</g>
<g style="mix-blend-mode:soft-light">
<path fill-rule="evenodd" clip-rule="evenodd" d="M35.4062 13.6107C35.4062 13.6107 38.938 13.7975 41.2067 12.586C41.8689 12.2261 42.4335 11.7083 42.8509 11.0778C43.2684 10.4473 43.5259 9.72335 43.6011 8.96936C43.6011 8.96936 37.1422 11.9953 35.4062 13.6107Z" fill="#FBF9FA"/>
</g>
<g style="mix-blend-mode:multiply" opacity="0.5">
<path fill-rule="evenodd" clip-rule="evenodd" d="M106.695 19.837C93.7233 11.4164 73.9396 9.64425 73.9396 9.64425C63.0296 11.6629 52.5617 15.6139 43.022 21.3138C42.0762 24.1408 42.2438 31.374 42.2498 31.7115C41.6796 27.9089 41.3935 24.0685 41.3938 20.2228C41.3938 20.2228 47.5833 14.9667 61.9856 10.9101C65.8699 9.82786 69.8081 8.95264 73.784 8.28802C96.83 11.121 106.653 18.7762 106.653 18.7762C106.689 19.5115 106.677 19.1077 106.695 19.837Z" fill="#773891"/>
</g>
<path fill-rule="evenodd" clip-rule="evenodd" d="M73.6042 6.10352e-05L75.5137 87.0516C75.5137 87.0516 54.2575 76.9191 42.2496 51.7114C37.5027 41.7658 34.2104 29.4754 34.2104 14.5267C34.2104 14.5267 41.6869 8.1555 59.1361 3.21884C63.8971 1.88204 68.727 0.807522 73.6042 6.10352e-05V6.10352e-05Z" fill="#61FFD9" style="mix-blend-mode:hue"/>
<path fill-rule="evenodd" clip-rule="evenodd" d="M104.997 55.0267C101.137 62.6399 96.1044 69.5896 90.0856 75.6172C82.2679 83.4532 75.5277 87.0698 75.5277 87.0698L73.6062 0.00012207C101.639 3.44795 113.599 12.7607 113.599 12.7607C114.365 30.1385 110.516 44.0805 104.997 55.0267Z" fill="#61FFD9" style="mix-blend-mode:hue"/>
<path fill-rule="evenodd" clip-rule="evenodd" d="M73.6042 6.10352e-05L75.5137 87.0516C75.5137 87.0516 54.2575 76.9191 42.2496 51.7114C37.5027 41.7658 34.2104 29.4754 34.2104 14.5267C34.2104 14.5267 41.6869 8.1555 59.1361 3.21884C63.8971 1.88204 68.727 0.807522 73.6042 6.10352e-05V6.10352e-05Z" fill="#04FFFF" style="mix-blend-mode:soft-light"/>
<path fill-rule="evenodd" clip-rule="evenodd" d="M104.997 55.0267C101.137 62.6399 96.1044 69.5896 90.0856 75.6172C82.2679 83.4532 75.5277 87.0698 75.5277 87.0698L73.6062 0.00012207C101.639 3.44795 113.599 12.7607 113.599 12.7607C114.365 30.1385 110.516 44.0805 104.997 55.0267Z" fill="#04FFFF" style="mix-blend-mode:soft-light"/>
<path fill-rule="evenodd" clip-rule="evenodd" d="M73.7793 8.28223L75.3536 79.8246C75.3536 79.8246 57.6291 71.3859 47.8181 50.3252C45.0741 44.4296 43.2045 38.1603 42.2691 31.7178C41.6906 27.9138 41.3965 24.0714 41.3892 20.223C41.3892 20.223 47.5787 14.9669 61.9809 10.9103C65.8651 9.82606 69.8034 8.94882 73.7793 8.28223Z" fill="white" style="mix-blend-mode:color"/>
<path fill-rule="evenodd" clip-rule="evenodd" d="M106.713 20.9885C107.432 62.7361 75.3526 79.8245 75.3526 79.8245L73.7783 8.28217C96.8244 11.1152 106.647 18.7703 106.647 18.7703C106.683 19.5117 106.701 20.2591 106.713 20.9885Z" fill="white" style="mix-blend-mode:color"/>
<g opacity="0.7">
<path fill-rule="evenodd" clip-rule="evenodd" d="M73.7793 8.28223L75.3536 79.8246C75.3536 79.8246 57.6291 71.3859 47.8181 50.3252C45.0741 44.4296 43.2045 38.1603 42.2691 31.7178C41.6906 27.9138 41.3965 24.0714 41.3892 20.223C41.3892 20.223 47.5787 14.9669 61.9809 10.9103C65.8651 9.82606 69.8034 8.94882 73.7793 8.28223Z" fill="white" style="mix-blend-mode:soft-light"/>
<path fill-rule="evenodd" clip-rule="evenodd" d="M106.713 20.9885C107.432 62.7361 75.3526 79.8245 75.3526 79.8245L73.7783 8.28217C96.8244 11.1152 106.647 18.7703 106.647 18.7703C106.683 19.5117 106.701 20.2591 106.713 20.9885Z" fill="white" style="mix-blend-mode:soft-light"/>
</g>
<path fill-rule="evenodd" clip-rule="evenodd" d="M64.2488 39.6558L66.0506 36.2864L74.5088 41.2954L85.4571 29.0773L87.6779 30.8434L74.6943 49.722L64.2488 39.6558Z" fill="url(#paint6_linear_692_1122)"/>
<defs>
<radialGradient id="paint0_radial_692_1122" cx="0" cy="0" r="1" gradientUnits="userSpaceOnUse" gradientTransform="translate(71.6637 18.0657) rotate(-1.27884) scale(58.2917 58.6972)">
<stop stop-color="#8461D3"/>
<stop offset="0.99" stop-color="#7138B6"/>
</radialGradient>
<radialGradient id="paint1_radial_692_1122" cx="0" cy="0" r="1" gradientUnits="userSpaceOnUse" gradientTransform="translate(76.2777 39.8969) rotate(-1.27884) scale(36.0717 36.3226)">
<stop stop-color="#6D47D3"/>
<stop offset="0.99" stop-color="#542492"/>
</radialGradient>
<linearGradient id="paint2_linear_692_1122" x1="58.4295" y1="81.0403" x2="56.7713" y2="6.76199" gradientUnits="userSpaceOnUse">
<stop stop-color="#3C1460"/>
<stop offset="0.99" stop-color="#3C1460"/>
</linearGradient>
<linearGradient id="paint3_linear_692_1122" x1="59329.8" y1="15175.2" x2="59145.4" y2="6018.11" gradientUnits="userSpaceOnUse">
<stop stop-color="#603082"/>
<stop offset="0.99" stop-color="#3C145F"/>
</linearGradient>
<linearGradient id="paint4_linear_692_1122" x1="59.0448" y1="80.1822" x2="57.4478" y2="8.64584" gradientUnits="userSpaceOnUse">
<stop offset="0.04" stop-color="#A4C6FF"/>
<stop offset="0.24" stop-color="#BD9BD2"/>
<stop offset="1" stop-color="#EBD7E3"/>
</linearGradient>
<linearGradient id="paint5_linear_692_1122" x1="91.6838" y1="79.4536" x2="90.0869" y2="7.91721" gradientUnits="userSpaceOnUse">
<stop stop-color="#83A8FF"/>
<stop offset="0.21" stop-color="#8E7BBB"/>
<stop offset="1" stop-color="#EBD7E3"/>
</linearGradient>
<linearGradient id="paint6_linear_692_1122" x1="63.2372" y1="45.1315" x2="87.0797" y2="44.6066" gradientUnits="userSpaceOnUse">
<stop stop-color="#2C2A88"/>
<stop offset="0.99" stop-color="#0C3C5A"/>
</linearGradient>
</defs>
</svg>
