<svg width="32" height="32" viewBox="0 0 32 32" fill="none" xmlns="http://www.w3.org/2000/svg">
<g clip-path="url(#clip0_712_5947)">
<path d="M22.4 13.3333H9.59999C4.59261 13.3333 0.533325 17.3926 0.533325 22.4C0.533325 27.4074 4.59261 31.4666 9.59999 31.4666H22.4C27.4074 31.4666 31.4667 27.4074 31.4667 22.4C31.4667 17.3926 27.4074 13.3333 22.4 13.3333Z" fill="#825A2C"/>
<path fill-rule="evenodd" clip-rule="evenodd" d="M22.3999 13.3333H20.7999C25.8073 13.3333 29.8666 17.3926 29.8666 22.4C29.8666 27.4074 25.8073 31.4666 20.7999 31.4666H22.3999C27.4073 31.4666 31.4666 27.4074 31.4666 22.4C31.4666 17.3926 27.4073 13.3333 22.3999 13.3333Z" fill="#624421"/>
<path fill-rule="evenodd" clip-rule="evenodd" d="M9.59996 29.3333C5.77079 29.3333 2.66663 26.2292 2.66663 22.4C2.66663 18.5708 5.77079 15.4667 9.59996 15.4667H22.4C26.2291 15.4667 29.3333 18.5708 29.3333 22.4C29.3333 26.2292 26.2291 29.3333 22.4 29.3333H9.59996Z" fill="#009688"/>
<path fill-rule="evenodd" clip-rule="evenodd" d="M22.3999 15.4667H20.7999C24.6291 15.4667 27.7333 18.5708 27.7333 22.4C27.7333 26.2292 24.6291 29.3333 20.7999 29.3333H22.3999C26.2291 29.3333 29.3333 26.2292 29.3333 22.4C29.3333 18.5708 26.2291 15.4667 22.3999 15.4667Z" fill="#00695C"/>
<path d="M17.0667 17.0667H14.9334C14.6388 17.0667 14.4 17.3054 14.4 17.6V20.8C14.4 21.0945 14.6388 21.3333 14.9334 21.3333H17.0667C17.3612 21.3333 17.6 21.0945 17.6 20.8V17.6C17.6 17.3054 17.3612 17.0667 17.0667 17.0667Z" fill="#EF314C"/>
<path d="M9.06669 18.6667H6.93336C6.63881 18.6667 6.40002 18.9055 6.40002 19.2V22.4C6.40002 22.6946 6.63881 22.9334 6.93336 22.9334H9.06669C9.36124 22.9334 9.60002 22.6946 9.60002 22.4V19.2C9.60002 18.9055 9.36124 18.6667 9.06669 18.6667Z" fill="#F5F5F5"/>
<path fill-rule="evenodd" clip-rule="evenodd" d="M11.7333 22.4V25.6C11.7333 25.8945 11.4945 26.1333 11.2 26.1333H9.06666C8.77211 26.1333 8.53333 25.8945 8.53333 25.6V22.9333H9.06666C9.36121 22.9333 9.59999 22.6945 9.59999 22.4V21.8666H11.2C11.4945 21.8666 11.7333 22.1054 11.7333 22.4Z" fill="#CFD8DC"/>
<path d="M22.9334 18.6667H20.8001C20.5055 18.6667 20.2667 18.9055 20.2667 19.2V22.4C20.2667 22.6946 20.5055 22.9334 20.8001 22.9334H22.9334C23.2279 22.9334 23.4667 22.6946 23.4667 22.4V19.2C23.4667 18.9055 23.2279 18.6667 22.9334 18.6667Z" fill="#F5F5F5"/>
<path fill-rule="evenodd" clip-rule="evenodd" d="M25.6 22.4V25.6C25.6 25.8945 25.3612 26.1333 25.0667 26.1333H22.9334C22.6388 26.1333 22.4 25.8945 22.4 25.6V22.9333H22.9334C23.2279 22.9333 23.4667 22.6945 23.4667 22.4V21.8666H25.0667C25.3612 21.8666 25.6 22.1054 25.6 22.4Z" fill="#CFD8DC"/>
<path d="M17.0667 23.4667H14.9334C14.6388 23.4667 14.4 23.7055 14.4 24V27.2C14.4 27.4946 14.6388 27.7333 14.9334 27.7333H17.0667C17.3612 27.7333 17.6 27.4946 17.6 27.2V24C17.6 23.7055 17.3612 23.4667 17.0667 23.4667Z" fill="#EF314C"/>
<path fill-rule="evenodd" clip-rule="evenodd" d="M8.53329 9.33329V9.73329C6.77571 10.9777 4.42421 10.9777 2.66663 9.73329V9.33329C2.6671 8.12263 3.41038 7.03631 4.53863 6.59729H4.54396C5.17667 7.04536 6.02325 7.04536 6.65596 6.59729H6.66129C7.79023 7.03545 8.53387 8.12231 8.53329 9.33329Z" fill="#EF314C"/>
<path fill-rule="evenodd" clip-rule="evenodd" d="M10.6667 5.59981C10.6684 7.24212 9.87307 8.78313 8.53342 9.73314V9.33314C8.534 8.12216 7.79035 7.0353 6.66142 6.59714C7.33334 6.13273 7.6253 5.28541 7.38206 4.50567C7.13882 3.72593 6.41688 3.19489 5.60008 3.19489C4.78329 3.19489 4.06135 3.72593 3.81811 4.50567C3.57487 5.28541 3.86682 6.13273 4.53875 6.59714C3.4105 7.03616 2.66722 8.12249 2.66675 9.33314V9.73314C0.710774 8.34431 -0.00314623 5.77411 0.956338 3.57545C1.91582 1.37679 4.28571 0.152352 6.63412 0.641931C8.98252 1.13151 10.6657 3.20091 10.6667 5.59981Z" fill="#02A9F4"/>
<path fill-rule="evenodd" clip-rule="evenodd" d="M5.59993 0.533326C5.33185 0.535249 5.06434 0.558433 4.79993 0.602659C6.46872 0.864196 7.89623 1.94283 8.6036 3.47675C9.31097 5.01067 9.20451 6.7967 8.31993 8.23573C8.46076 8.58453 8.53318 8.95717 8.53326 9.33333V9.73333C10.3332 8.45725 11.1005 6.16303 10.4302 4.06087C9.75994 1.95872 7.80635 0.532005 5.59993 0.533326Z" fill="#0377BC"/>
<path fill-rule="evenodd" clip-rule="evenodd" d="M7.46666 5.06665C7.46624 5.67826 7.16513 6.25056 6.66133 6.59732H6.65599C6.02329 7.04539 5.1767 7.04539 4.54399 6.59732H4.53866C3.80859 6.09272 3.53474 5.14386 3.88365 4.32785C4.23257 3.51184 5.10778 3.05431 5.97697 3.23353C6.84616 3.41276 7.469 4.17918 7.46666 5.06665Z" fill="#FFE0B2"/>
<path fill-rule="evenodd" clip-rule="evenodd" d="M31.4667 5.59999C31.4684 7.2423 30.673 8.78331 29.3333 9.73333V9.33333C29.3329 8.12267 28.5896 7.03634 27.4613 6.59733C28.1333 6.13292 28.4252 5.28559 28.182 4.50585C27.9387 3.72612 27.2168 3.19508 26.4 3.19508C25.5832 3.19508 24.8613 3.72612 24.618 4.50585C24.3748 5.28559 24.6667 6.13292 25.3387 6.59733C24.2097 7.03548 23.4661 8.12234 23.4667 9.33333V9.73333C21.5107 8.34449 20.7968 5.77429 21.7563 3.57563C22.7157 1.37698 25.0856 0.152535 27.434 0.642114C29.7824 1.13169 31.4657 3.2011 31.4667 5.59999Z" fill="#02A9F4"/>
<path fill-rule="evenodd" clip-rule="evenodd" d="M26.4 0.533326C26.1319 0.535249 25.8644 0.558433 25.6 0.602659C27.27 0.86455 28.6981 1.94479 29.4047 3.48048C30.1112 5.01617 30.0023 6.80353 29.1146 8.24213C29.257 8.58843 29.3312 8.95892 29.3333 9.33333V9.73333C31.1333 8.45725 31.9005 6.16303 31.2302 4.06087C30.56 1.95872 28.6064 0.532005 26.4 0.533326Z" fill="#0377BC"/>
<path fill-rule="evenodd" clip-rule="evenodd" d="M29.3333 9.33329V9.73329C27.5758 10.9777 25.2243 10.9777 23.4667 9.73329V9.33329C23.4661 8.12231 24.2097 7.03545 25.3387 6.59729H25.344C25.9767 7.04536 26.8233 7.04536 27.456 6.59729H27.4613C28.5896 7.03631 29.3329 8.12263 29.3333 9.33329Z" fill="#FF9801"/>
<path fill-rule="evenodd" clip-rule="evenodd" d="M28.2667 5.06665C28.2663 5.67826 27.9652 6.25056 27.4614 6.59732H27.456C26.8233 7.04539 25.9767 7.04539 25.344 6.59732H25.3387C24.6086 6.09272 24.3348 5.14386 24.6837 4.32785C25.0326 3.51184 25.9078 3.05431 26.777 3.23353C27.6462 3.41276 28.269 4.17918 28.2667 5.06665Z" fill="#FFE0B2"/>
<path d="M2.1333 22.4C2.13771 26.5219 5.47807 29.8623 9.59997 29.8667H22.4C26.5237 29.8667 29.8666 26.5237 29.8666 22.4C29.8666 18.2763 26.5237 14.9333 22.4 14.9333H9.59997C5.47807 14.9378 2.13771 18.2781 2.1333 22.4ZM28.8 22.4C28.7961 25.9331 25.933 28.7962 22.4 28.8H9.59997C6.06535 28.8 3.19997 25.9346 3.19997 22.4C3.19997 18.8654 6.06535 16 9.59997 16H22.4C25.933 16.0038 28.7961 18.867 28.8 22.4Z" fill="black"/>
<path d="M14.9334 21.8667H17.0667C17.6558 21.8667 18.1334 21.3891 18.1334 20.8V17.6C18.1334 17.0109 17.6558 16.5333 17.0667 16.5333H14.9334C14.3443 16.5333 13.8667 17.0109 13.8667 17.6V20.8C13.8667 21.3891 14.3443 21.8667 14.9334 21.8667ZM14.9334 17.6H17.0667V20.8H14.9334V17.6Z" fill="black"/>
<path d="M6.93337 18.1334C6.34426 18.1334 5.8667 18.6109 5.8667 19.2V22.4C5.8667 22.9891 6.34426 23.4667 6.93337 23.4667H8.00003V25.6C8.00003 26.1891 8.4776 26.6667 9.0667 26.6667H11.2C11.7891 26.6667 12.2667 26.1891 12.2667 25.6V22.4C12.2667 21.8109 11.7891 21.3334 11.2 21.3334H10.1334V19.2C10.1334 18.6109 9.6558 18.1334 9.0667 18.1334H6.93337ZM6.93337 19.2H9.0667V22.4H6.93337V19.2ZM11.2 22.4V25.6H9.0667V23.4667C9.6558 23.4667 10.1334 22.9891 10.1334 22.4H11.2Z" fill="black"/>
<path d="M20.7999 23.4667H21.8666V25.6C21.8666 26.1891 22.3442 26.6667 22.9333 26.6667H25.0666C25.6557 26.6667 26.1333 26.1891 26.1333 25.6V22.4C26.1333 21.8109 25.6557 21.3334 25.0666 21.3334H23.9999V19.2C23.9999 18.6109 23.5224 18.1334 22.9333 18.1334H20.7999C20.2108 18.1334 19.7333 18.6109 19.7333 19.2V22.4C19.7333 22.9891 20.2108 23.4667 20.7999 23.4667ZM25.0666 22.4V25.6H22.9333V23.4667C23.5224 23.4667 23.9999 22.9891 23.9999 22.4H25.0666ZM20.7999 19.2H22.9333V22.4H20.7999V19.2Z" fill="black"/>
<path d="M14.9334 28.2667H17.0667C17.6558 28.2667 18.1334 27.7891 18.1334 27.2V24C18.1334 23.4109 17.6558 22.9333 17.0667 22.9333H14.9334C14.3443 22.9333 13.8667 23.4109 13.8667 24V27.2C13.8667 27.7891 14.3443 28.2667 14.9334 28.2667ZM14.9334 24H17.0667V27.2H14.9334V24Z" fill="black"/>
<path d="M19.2 5.86652H20.8133C20.8936 7.54828 21.7277 9.10427 23.0837 10.1023C23.1029 10.1187 23.1233 10.1338 23.1445 10.1476C25.0881 11.5506 27.7118 11.5506 29.6554 10.1476C29.6767 10.1338 29.697 10.1187 29.7162 10.1023C31.7611 8.59855 32.5374 5.90666 31.6074 3.54497C30.6773 1.18329 28.2738 -0.256335 25.7528 0.0381385C23.2317 0.332612 21.2247 2.28739 20.864 4.79985H19.2C18.0218 4.79985 17.0666 5.75498 17.0666 6.93318V12.7999H14.9333V6.93318C14.9333 5.75498 13.9782 4.79985 12.8 4.79985H11.136C10.7763 2.28584 8.76891 0.329178 6.24651 0.0340144C3.72412 -0.261149 1.3192 1.17919 0.388856 3.54226C-0.541487 5.90532 0.236019 8.59859 2.28262 10.1023C2.30188 10.1187 2.32219 10.1338 2.34342 10.1476C4.287 11.5506 6.91078 11.5506 8.85436 10.1476C8.87559 10.1338 8.8959 10.1187 8.91516 10.1023C10.2716 9.10449 11.106 7.54847 11.1866 5.86652H12.8C13.3891 5.86652 13.8666 6.34408 13.8666 6.93318V12.7999H9.59996C4.29803 12.7999 -4.17872e-05 17.0979 -4.17872e-05 22.3999C-4.17872e-05 27.7018 4.29803 31.9999 9.59996 31.9999H22.4C27.7019 31.9999 32 27.7018 32 22.3999C32 17.0979 27.7019 12.7999 22.4 12.7999H18.1333V6.93318C18.1333 6.34408 18.6109 5.86652 19.2 5.86652ZM24 9.43985V9.33318C23.986 8.42362 24.5045 7.58969 25.3264 7.19985C26.0009 7.55455 26.8072 7.55315 27.4805 7.19612C28.2866 7.60434 28.7961 8.42963 28.8 9.33318V9.43985C27.3339 10.3658 25.466 10.3658 24 9.43985ZM26.4 6.39985C25.6636 6.39985 25.0666 5.8029 25.0666 5.06652C25.0666 4.33014 25.6636 3.73318 26.4 3.73318C27.1363 3.73318 27.7333 4.33014 27.7333 5.06652C27.7333 5.42014 27.5928 5.75928 27.3428 6.00933C27.0927 6.25937 26.7536 6.39985 26.4 6.39985ZM26.4 1.06652C28.1863 1.06369 29.8071 2.11181 30.5374 3.74198C31.2677 5.37216 30.9709 7.27941 29.7797 8.61052C29.5904 7.73906 29.074 6.97341 28.337 6.47132C29.0628 5.4791 28.9214 4.09892 28.0097 3.27438C27.0979 2.44984 25.7105 2.44755 24.796 3.26908C23.8815 4.0906 23.7356 5.47031 24.4581 6.46492C24.275 6.58691 24.1043 6.72641 23.9482 6.88145C23.476 7.35211 23.1509 7.94987 23.0122 8.60198C21.8257 7.26936 21.5329 5.36399 22.2645 3.73659C22.9962 2.1092 24.6157 1.06355 26.4 1.06652ZM3.19996 9.43985V9.33318C3.20519 8.43098 3.71453 7.60746 4.51943 7.19985C5.19276 7.55689 5.99899 7.55829 6.67356 7.20358C7.49375 7.59338 8.01182 8.42515 7.99996 9.33318V9.43985C6.53392 10.3658 4.666 10.3658 3.19996 9.43985ZM5.59996 6.39985C4.86358 6.39985 4.26663 5.8029 4.26663 5.06652C4.26663 4.33014 4.86358 3.73318 5.59996 3.73318C6.33634 3.73318 6.93329 4.33014 6.93329 5.06652C6.93329 5.42014 6.79282 5.75928 6.54277 6.00933C6.29272 6.25937 5.95358 6.39985 5.59996 6.39985ZM8.98769 8.60198C8.80392 7.72789 8.28483 6.96066 7.54183 6.46492C7.83857 6.05896 7.99897 5.56937 7.99996 5.06652C8.00522 4.02435 7.3373 3.0979 6.34687 2.77357C5.35644 2.44925 4.26989 2.80118 3.6577 3.64461C3.04551 4.48803 3.04761 5.63015 3.66289 6.47132C2.9269 6.9739 2.41154 7.73949 2.22289 8.61052C0.59923 6.79402 0.701702 4.01902 2.45491 2.32722C4.20813 0.635417 6.98502 0.631916 8.74249 2.31929C10.5 4.00666 10.6094 6.7814 8.99036 8.60198H8.98769ZM30.9333 22.3999C30.9277 27.1104 27.1105 30.9276 22.4 30.9332H9.59996C4.88713 30.9332 1.06662 27.1127 1.06662 22.3999C1.06662 17.687 4.88713 13.8665 9.59996 13.8665H22.4C27.1105 13.8721 30.9277 17.6893 30.9333 22.3999Z" fill="black"/>
</g>
<defs>
<clipPath id="clip0_712_5947">
<rect width="32" height="32" fill="white"/>
</clipPath>
</defs>
</svg>
