<svg width="32" height="32" viewBox="0 0 32 32" fill="none" xmlns="http://www.w3.org/2000/svg">
<g clip-path="url(#clip0_712_5977)">
<path fill-rule="evenodd" clip-rule="evenodd" d="M31.4667 22.9334V25.0667C31.4667 26.245 30.5115 27.2001 29.3333 27.2001H2.66666C1.48845 27.2001 0.533325 26.245 0.533325 25.0667V22.9334H31.4667Z" fill="#9E9E9E"/>
<path fill-rule="evenodd" clip-rule="evenodd" d="M29.8667 22.9334V25.0667C29.8667 26.245 28.9116 27.2001 27.7334 27.2001H29.3334C30.5116 27.2001 31.4667 26.245 31.4667 25.0667V22.9334H29.8667Z" fill="#707070"/>
<path fill-rule="evenodd" clip-rule="evenodd" d="M0.533325 4.80005H31.4667V22.9334H0.533325V4.80005Z" fill="#F5F5F5"/>
<path fill-rule="evenodd" clip-rule="evenodd" d="M29.8667 4.80005H31.4667V22.9334H29.8667V4.80005Z" fill="#CFD8DC"/>
<path fill-rule="evenodd" clip-rule="evenodd" d="M31.4667 2.66672V4.80005H0.533325V2.66672C0.533325 1.48851 1.48845 0.533386 2.66666 0.533386H29.3333C30.5115 0.533386 31.4667 1.48851 31.4667 2.66672Z" fill="#02A9F4"/>
<path fill-rule="evenodd" clip-rule="evenodd" d="M29.3334 0.533447H27.7334C28.9116 0.533447 29.8667 1.48857 29.8667 2.66678V4.80011H31.4667V2.66678C31.4667 1.48857 30.5116 0.533447 29.3334 0.533447Z" fill="#0377BC"/>
<path fill-rule="evenodd" clip-rule="evenodd" d="M11.2 27.2001H20.8V29.3334H11.2V27.2001Z" fill="#707070"/>
<path fill-rule="evenodd" clip-rule="evenodd" d="M8.53335 29.3334H23.4667C24.3503 29.3334 25.0667 30.0498 25.0667 30.9334C25.0667 31.228 24.8279 31.4668 24.5333 31.4668H7.46668C7.17213 31.4668 6.93335 31.228 6.93335 30.9334C6.93335 30.0498 7.64969 29.3334 8.53335 29.3334Z" fill="#9E9E9E"/>
<path fill-rule="evenodd" clip-rule="evenodd" d="M23.4667 29.3334H21.8667C22.7504 29.3334 23.4667 30.0498 23.4667 30.9334C23.4667 31.228 23.2279 31.4668 22.9334 31.4668H24.5334C24.8279 31.4668 25.0667 31.228 25.0667 30.9334C25.0667 30.0498 24.3504 29.3334 23.4667 29.3334Z" fill="#707070"/>
<path fill-rule="evenodd" clip-rule="evenodd" d="M26.833 15.904L26.6058 16.1035C26.0865 16.5628 25.9166 17.3013 26.1829 17.9414C26.4048 18.5129 26.282 19.161 25.8664 19.6117C25.4507 20.0625 24.8148 20.2373 24.2271 20.0624C24.0671 20.015 23.9311 19.9782 23.8042 19.9414C22.9489 19.6956 22.0327 19.7781 21.2351 20.1728L20.7173 20.4299C19.717 20.9198 18.5464 20.9198 17.5461 20.4299C16.5456 19.94 15.3748 19.94 14.3743 20.4299C13.3748 20.9233 12.2026 20.9233 11.2031 20.4299L10.6847 20.1728C9.88555 19.7778 8.96771 19.6953 8.11087 19.9414C7.97327 19.9835 7.80954 20.0256 7.63087 20.0779C7.04256 20.2473 6.40909 20.0678 5.99723 19.6148C5.58537 19.1618 5.46667 18.5142 5.69114 17.9446L5.7594 17.7664C6.01772 17.1186 5.82323 16.3781 5.27994 15.9408L5.2266 15.8987C4.617 15.4013 4.26331 14.6562 4.26331 13.8694C4.26331 13.0826 4.617 12.3375 5.2266 11.84L5.27994 11.7979C5.82294 11.3609 6.01761 10.621 5.75994 9.97338L5.68634 9.78991C5.46249 9.21932 5.58226 8.5711 5.99522 8.11816C6.40818 7.66523 7.04261 7.48625 7.6314 7.65658C7.81114 7.70351 7.97487 7.75098 8.1178 7.79311C8.97289 8.03895 9.88898 7.9564 10.6863 7.56165L11.2047 7.30458C12.205 6.81465 13.3756 6.81465 14.3759 7.30458C15.3764 7.79452 16.5472 7.79452 17.5477 7.30458C18.5472 6.81123 19.7194 6.81123 20.7189 7.30458L21.2367 7.56165C22.0361 7.95663 22.9541 8.03917 23.8111 7.79311C23.9487 7.75098 24.1125 7.70884 24.2911 7.65658C24.8794 7.48715 25.5129 7.66674 25.9248 8.11971C26.3366 8.57268 26.4553 9.22033 26.2309 9.78991L26.1621 9.96805C25.9023 10.6155 26.0953 11.3567 26.6378 11.7952L26.7701 11.9019C27.3671 12.3903 27.7185 13.1171 27.7307 13.8884C27.7428 14.6597 27.4144 15.3971 26.833 15.904Z" fill="#FFDF00"/>
<path d="M29.3333 0H2.66667C1.19464 0.00176326 0.00176326 1.19464 0 2.66667V25.0667C0.00176326 26.5387 1.19464 27.7316 2.66667 27.7333H10.6667V28.8H8.53333C7.35513 28.8 6.4 29.7551 6.4 30.9333C6.4 31.5224 6.87756 32 7.46667 32H24.5333C25.1224 32 25.6 31.5224 25.6 30.9333C25.6 29.7551 24.6449 28.8 23.4667 28.8H21.3333V27.7333H29.3333C30.8054 27.7316 31.9982 26.5387 32 25.0667V2.66667C31.9982 1.19464 30.8054 0.00176326 29.3333 0ZM2.66667 1.06667H29.3333C30.217 1.06667 30.9333 1.78301 30.9333 2.66667V22.4H1.06667V2.66667C1.06667 1.78301 1.78301 1.06667 2.66667 1.06667ZM24.5333 30.9333H7.46667C7.46667 30.3442 7.94423 29.8667 8.53333 29.8667H23.4667C24.0558 29.8667 24.5333 30.3442 24.5333 30.9333ZM20.2667 28.8H11.7333V27.7333H20.2667V28.8ZM29.3333 26.6667H2.66667C1.78301 26.6667 1.06667 25.9503 1.06667 25.0667V23.4667H30.9333V25.0667C30.9333 25.9503 30.217 26.6667 29.3333 26.6667Z" fill="black"/>
<path fill-rule="evenodd" clip-rule="evenodd" d="M17.6 24.5334H14.4C14.1055 24.5334 13.8667 24.7722 13.8667 25.0667C13.8667 25.3613 14.1055 25.6001 14.4 25.6001H17.6C17.8946 25.6001 18.1334 25.3613 18.1334 25.0667C18.1334 24.7722 17.8946 24.5334 17.6 24.5334Z" fill="black"/>
<path fill-rule="evenodd" clip-rule="evenodd" d="M2.66663 5.33333H29.3333C29.6279 5.33333 29.8666 5.09455 29.8666 4.8C29.8666 4.50544 29.6279 4.26666 29.3333 4.26666H2.66663C2.37208 4.26666 2.1333 4.50544 2.1333 4.8C2.1333 5.09455 2.37208 5.33333 2.66663 5.33333Z" fill="black"/>
<path d="M3.19996 3.20003C3.49451 3.20003 3.73329 2.96125 3.73329 2.6667C3.73329 2.37214 3.49451 2.13336 3.19996 2.13336C2.90541 2.13336 2.66663 2.37214 2.66663 2.6667C2.66663 2.96125 2.90541 3.20003 3.19996 3.20003Z" fill="black"/>
<path d="M5.33338 3.20003C5.62793 3.20003 5.86672 2.96125 5.86672 2.6667C5.86672 2.37214 5.62793 2.13336 5.33338 2.13336C5.03883 2.13336 4.80005 2.37214 4.80005 2.6667C4.80005 2.96125 5.03883 3.20003 5.33338 3.20003Z" fill="black"/>
<path d="M7.46668 3.20003C7.76123 3.20003 8.00002 2.96125 8.00002 2.6667C8.00002 2.37214 7.76123 2.13336 7.46668 2.13336C7.17213 2.13336 6.93335 2.37214 6.93335 2.6667C6.93335 2.96125 7.17213 3.20003 7.46668 3.20003Z" fill="black"/>
<path fill-rule="evenodd" clip-rule="evenodd" d="M13.449 10.6794C13.3109 10.6486 13.1662 10.6739 13.0467 10.7499C12.9273 10.8258 12.8429 10.9461 12.8122 11.0842L12.0357 14.5792L11.1237 13.0586C11.0204 12.9079 10.8494 12.8178 10.6666 12.8178C10.4839 12.8178 10.3129 12.9079 10.2095 13.0586L9.29754 14.5792L8.52101 11.0842C8.45709 10.7964 8.17199 10.615 7.88421 10.6789C7.59643 10.7428 7.41496 11.0279 7.47888 11.3157L8.54554 16.1157C8.59246 16.329 8.76475 16.4922 8.98034 16.5275C9.19593 16.5628 9.41122 16.463 9.52368 16.2757L10.6666 14.3701L11.8095 16.2746C11.9059 16.4351 12.0794 16.5333 12.2666 16.5333C12.2952 16.5333 12.3237 16.531 12.3519 16.5264C12.5676 16.4916 12.7402 16.3289 12.7877 16.1157L13.8543 11.3157C13.885 11.1776 13.8595 11.0329 13.7835 10.9136C13.7075 10.7943 13.5872 10.71 13.449 10.6794Z" fill="black"/>
<path fill-rule="evenodd" clip-rule="evenodd" d="M15.4667 10.6666C15.1721 10.6666 14.9333 10.9054 14.9333 11.2V16C14.9333 16.2945 15.1721 16.5333 15.4667 16.5333C15.7612 16.5333 16 16.2945 16 16V11.2C16 10.9054 15.7612 10.6666 15.4667 10.6666Z" fill="black"/>
<path fill-rule="evenodd" clip-rule="evenodd" d="M21.3333 10.6666C21.0388 10.6666 20.8 10.9054 20.8 11.2V14.24L18.577 10.9056C18.4468 10.7103 18.2042 10.6231 17.9794 10.6908C17.7547 10.7585 17.6006 10.9652 17.6 11.2V16C17.6 16.2945 17.8388 16.5333 18.1333 16.5333C18.4279 16.5333 18.6666 16.2945 18.6666 16V12.96L20.8896 16.2944C21.0198 16.4897 21.2624 16.5769 21.4872 16.5091C21.7119 16.4414 21.866 16.2347 21.8666 16V11.2C21.8666 10.9054 21.6279 10.6666 21.3333 10.6666Z" fill="black"/>
<path fill-rule="evenodd" clip-rule="evenodd" d="M24 10.6666C23.7055 10.6666 23.4667 10.9054 23.4667 11.2V14.4C23.4667 14.6945 23.7055 14.9333 24 14.9333C24.2946 14.9333 24.5333 14.6945 24.5333 14.4V11.2C24.5333 10.9054 24.2946 10.6666 24 10.6666Z" fill="black"/>
<path d="M24 16.5333C24.2946 16.5333 24.5333 16.2945 24.5333 15.9999C24.5333 15.7054 24.2946 15.4666 24 15.4666C23.7055 15.4666 23.4667 15.7054 23.4667 15.9999C23.4667 16.2945 23.7055 16.5333 24 16.5333Z" fill="black"/>
<path d="M27.1008 11.4801L26.9733 11.3782C26.6096 11.0851 26.4822 10.5876 26.6603 10.1558L26.7253 9.98459C27.0288 9.23189 26.8744 8.37189 26.328 7.77179C25.7803 7.15966 24.9304 6.91545 24.1413 7.14353L23.9099 7.20859C23.8176 7.23419 23.7323 7.25766 23.6629 7.27899C22.9341 7.48924 22.153 7.41942 21.4731 7.08326L20.9541 6.82513C19.8043 6.26166 18.4586 6.26166 17.3088 6.82513C16.4562 7.2337 15.4643 7.2337 14.6117 6.82513C13.4599 6.27151 12.1188 6.27151 10.9669 6.82513L10.4496 7.08219C9.77217 7.41779 8.99381 7.48817 8.26719 7.27953C8.12052 7.23633 7.95092 7.18779 7.77439 7.14139C6.98471 6.91635 6.13585 7.16149 5.58772 7.77286C5.0421 8.37336 4.88795 9.23299 5.19092 9.98566L5.26505 10.1691C5.4388 10.5977 5.31167 11.0896 4.95199 11.3803L4.89439 11.4262C4.15968 12.0256 3.73383 12.9238 3.73487 13.872C3.7359 14.8202 4.16371 15.7175 4.89972 16.3153L4.94825 16.3547C5.31213 16.6477 5.43958 17.1453 5.26132 17.5771L5.19625 17.7483C4.8933 18.5011 5.04767 19.3608 5.59359 19.9611C6.14138 20.573 6.99119 20.8172 7.78025 20.5894L8.01172 20.5243C8.10345 20.4987 8.18932 20.4753 8.25812 20.4539C8.98714 20.244 9.76827 20.3138 10.4485 20.6497L10.9675 20.9078C12.1171 21.4712 13.4626 21.4712 14.6123 20.9078C15.4649 20.4992 16.4567 20.4992 17.3093 20.9078C18.459 21.4717 19.805 21.4717 20.9547 20.9078L21.472 20.6507C22.1505 20.3136 22.9309 20.2436 23.6587 20.4545L24.0816 20.5745C24.8727 20.808 25.7277 20.5663 26.2795 19.9531C26.8266 19.3566 26.9832 18.4992 26.6821 17.7478C26.4985 17.3167 26.6103 16.8165 26.96 16.5046L27.1877 16.3051C27.8894 15.6937 28.285 14.8035 28.2688 13.873C28.2525 12.9424 27.826 12.0666 27.1035 11.4801H27.1008ZM26.4821 15.5025L26.2576 15.6993C25.5641 16.3058 25.3349 17.2872 25.688 18.1382C25.8411 18.5121 25.7626 18.9409 25.4869 19.2363C25.2108 19.5482 24.7785 19.6709 24.3797 19.5505L23.9531 19.4289C22.9698 19.1451 21.916 19.2403 20.9995 19.6955L20.4811 19.9531C19.6284 20.3608 18.6371 20.3608 17.7845 19.9531C16.6325 19.3995 15.2912 19.3995 14.1392 19.9531C13.2882 20.3704 12.292 20.3704 11.4411 19.9531L10.9221 19.695C10.3569 19.4149 9.73477 19.2689 9.10399 19.2683C8.71582 19.268 8.32952 19.3218 7.95625 19.4283C7.88692 19.4497 7.81012 19.471 7.72745 19.4934L7.48585 19.5617C7.08859 19.6794 6.65915 19.5555 6.38559 19.2443C6.10886 18.9441 6.03241 18.5101 6.18985 18.1334L6.25439 17.9633C6.60422 17.0969 6.34403 16.1036 5.61439 15.5201L5.56692 15.4827C5.0821 15.0873 4.8004 14.4951 4.79947 13.8695C4.79854 13.2438 5.07848 12.6508 5.56212 12.2539L5.61812 12.2091C6.34495 11.6247 6.60284 10.633 6.25279 9.76859L6.17919 9.58673C6.02534 9.21168 6.10294 8.78146 6.37812 8.48379C6.65655 8.17021 7.09171 8.0468 7.49332 8.16753C7.66772 8.21393 7.82665 8.25979 7.96745 8.30086C8.95091 8.58405 10.0047 8.48892 10.9216 8.03419L11.4395 7.77659C12.2922 7.36887 13.2837 7.36887 14.1365 7.77659C15.2885 8.33046 16.6299 8.33046 17.7819 7.77659C18.6328 7.36003 19.6285 7.36003 20.4795 7.77659L20.9989 8.03473C21.92 8.48959 22.978 8.58338 23.9648 8.29766C24.0336 8.27633 24.1109 8.25499 24.1931 8.23259L24.4347 8.16433C24.8321 8.04736 25.2613 8.17109 25.5355 8.48166C25.8119 8.78203 25.8884 9.21582 25.7312 9.59259L25.6667 9.76273C25.3164 10.6292 25.5766 11.6229 26.3067 12.2065L26.4331 12.3062C26.9101 12.6953 27.191 13.2751 27.2006 13.8907C27.2101 14.5062 26.9474 15.0945 26.4827 15.4982L26.4821 15.5025Z" fill="black"/>
</g>
<defs>
<clipPath id="clip0_712_5977">
<rect width="32" height="32" fill="white"/>
</clipPath>
</defs>
</svg>
