<svg width="24" height="24" viewBox="0 0 24 24" fill="none" xmlns="http://www.w3.org/2000/svg">
<g clip-path="url(#clip0_115_8720)">
<path fill-rule="evenodd" clip-rule="evenodd" d="M22.8291 9.17307L22.2397 8.58374C21.865 8.20881 21.6545 7.70047 21.6544 7.17041V6.3424C21.6544 5.28154 21.233 4.26412 20.4828 3.51398C19.7327 2.76383 18.7153 2.34241 17.6544 2.34241H16.8264C16.2963 2.34229 15.788 2.13176 15.4131 1.75707L14.8237 1.16774C14.0737 0.418669 13.0571 -0.0020752 11.9971 -0.0020752C10.9371 -0.0020752 9.92041 0.418669 9.17041 1.16774L8.58107 1.75707C8.20614 2.13176 7.6978 2.34229 7.16774 2.34241H6.3424C5.28154 2.34241 4.26412 2.76383 3.51398 3.51398C2.76383 4.26412 2.34241 5.28154 2.34241 6.3424V7.17041C2.34229 7.70047 2.13176 8.20881 1.75707 8.58374L1.16774 9.17307C0.418669 9.92307 -0.0020752 10.9397 -0.0020752 11.9997C-0.0020752 13.0597 0.418669 14.0764 1.16774 14.8264L1.75707 15.4157C2.13176 15.7907 2.34229 16.299 2.34241 16.8291V17.6571C2.34241 18.7179 2.76383 19.7354 3.51398 20.4855C4.26412 21.2356 5.28154 21.6571 6.3424 21.6571H7.17041C7.70047 21.6572 8.20881 21.8677 8.58374 22.2424L9.17307 22.8317C9.92307 23.5808 10.9397 24.0016 11.9997 24.0016C13.0597 24.0016 14.0764 23.5808 14.8264 22.8317L15.4157 22.2424C15.7907 21.8677 16.299 21.6572 16.8291 21.6571H17.6571C18.7179 21.6571 19.7354 21.2356 20.4855 20.4855C21.2356 19.7354 21.6571 18.7179 21.6571 17.6571V16.8291C21.6572 16.299 21.8677 15.7907 22.2424 15.4157L22.8317 14.8264C23.5805 14.076 24.0007 13.0592 24.0002 11.9992C23.9997 10.9392 23.5785 9.92272 22.8291 9.17307ZM16.7064 10.0397L11.3731 15.3731C11.2804 15.4661 11.1703 15.5399 11.049 15.5903C10.9277 15.6407 10.7977 15.6666 10.6664 15.6666C10.5351 15.6666 10.4051 15.6407 10.2838 15.5903C10.1625 15.5399 10.0524 15.4661 9.95974 15.3731L7.29307 12.7064C7.11643 12.5168 7.02027 12.2661 7.02484 12.007C7.02941 11.748 7.13436 11.5008 7.31758 11.3176C7.50079 11.1344 7.74797 11.0294 8.00704 11.0248C8.26611 11.0203 8.51684 11.1164 8.7064 11.2931L10.6664 13.2517L15.2931 8.62641C15.4826 8.44977 15.7334 8.3536 15.9924 8.35817C16.2515 8.36274 16.4987 8.46769 16.6819 8.65091C16.8651 8.83413 16.9701 9.08131 16.9746 9.34038C16.9792 9.59944 16.883 9.85017 16.7064 10.0397Z" fill="url(#paint0_linear_115_8720)"/>
</g>
<defs>
<linearGradient id="paint0_linear_115_8720" x1="11.9991" y1="-0.0020752" x2="11.9991" y2="24.0016" gradientUnits="userSpaceOnUse">
<stop stop-color="#31D1AB"/>
<stop offset="1" stop-color="#04A47E"/>
</linearGradient>
<clipPath id="clip0_115_8720">
<rect width="24" height="24" fill="white"/>
</clipPath>
</defs>
</svg>
