<svg width="32" height="32" viewBox="0 0 32 32" fill="none" xmlns="http://www.w3.org/2000/svg">
<g clip-path="url(#clip0_712_5880)">
<path d="M31.4667 4.79999V29.3333C31.4667 30.5115 30.5115 31.4667 29.3333 31.4667H2.66666C1.48845 31.4667 0.533325 30.5115 0.533325 29.3333V4.79999H31.4667Z" fill="#F5F5F5"/>
<path d="M29.8667 4.79999V29.3333C29.8667 30.5115 28.9116 31.4667 27.7334 31.4667H29.3334C30.5116 31.4667 31.4667 30.5115 31.4667 29.3333V4.79999H29.8667Z" fill="#CFD8DC"/>
<path d="M31.4667 2.66666V4.79999H0.533325V2.66666C0.533325 1.48845 1.48845 0.533325 2.66666 0.533325H29.3333C30.5115 0.533325 31.4667 1.48845 31.4667 2.66666Z" fill="#02A9F4"/>
<path d="M29.3334 0.533325H27.7334C28.9116 0.533325 29.8667 1.48845 29.8667 2.66666V4.79999H31.4667V2.66666C31.4667 1.48845 30.5116 0.533325 29.3334 0.533325Z" fill="#0377BC"/>
<path d="M19.7334 26.6667C18.6883 27.4545 17.5054 28.0406 16.2454 28.3947L17.7227 24H18.6934C18.7891 24.9674 19.1489 25.8899 19.7334 26.6667Z" fill="#37474F"/>
<path d="M17.7226 24L16.2453 28.3946C14.3416 28.9351 12.325 28.9351 10.4213 28.3946L8.94397 24L10.8266 21.3333H15.84L17.7226 24Z" fill="#F5F5F5"/>
<path d="M10.4213 28.3947C7.95852 27.7006 5.82955 26.1398 4.42664 24H8.94397L10.4213 28.3947Z" fill="#607D8B"/>
<path d="M10.8267 21.3333L8.94404 24H4.4267C3.34286 22.3638 2.73704 20.4577 2.67737 18.496L6.2347 15.824L9.2747 16.72L10.8267 21.3333Z" fill="#F5F5F5"/>
<path d="M6.23463 15.824L2.6773 18.496C2.66663 18.3733 2.66663 18.256 2.66663 18.1333C2.6638 15.7575 3.45819 13.4495 4.92263 11.5787L6.23463 15.824Z" fill="#607D8B"/>
<path d="M13.3334 10.6666V13.8666L9.27473 16.72L6.23473 15.824L4.92273 11.5786C6.15144 9.99337 7.80483 8.78939 9.69073 8.10663L13.3334 10.6666Z" fill="#F5F5F5"/>
<path d="M16.976 8.10668L13.3333 10.6667L9.69067 8.10668C12.0442 7.25334 14.6225 7.25334 16.976 8.10668Z" fill="#607D8B"/>
<path d="M21.6267 11.4346L20.3947 15.7013L17.392 16.72L13.3334 13.8666V10.6666L16.976 8.10663C18.8022 8.7684 20.4111 9.91973 21.6267 11.4346Z" fill="#F5F5F5"/>
<path d="M21.6266 11.4346C20.411 9.91973 18.8021 8.7684 16.976 8.10663L16.3733 8.5333C18.3541 9.48702 19.9884 11.0343 21.049 12.96L21.6266 11.4346Z" fill="#CFD8DC"/>
<path d="M24 18.1334C23.92 18.1334 23.84 18.1334 23.76 18.1387L20.3947 15.7014L21.6267 11.4347C23.167 13.3269 24.0055 15.6935 24 18.1334Z" fill="#607D8B"/>
<path d="M21.6267 11.4347L21.1403 13.12C21.8055 14.3585 22.2165 15.7173 22.3493 17.1168L23.76 18.1387C23.84 18.1334 23.92 18.1334 24 18.1334C24.0055 15.6935 23.167 13.3269 21.6267 11.4347Z" fill="#37474F"/>
<path d="M17.392 16.72L15.84 21.3334H10.8267L9.27466 16.72L13.3333 13.8667L17.392 16.72Z" fill="#607D8B"/>
<path d="M18.6666 23.4666C18.6666 23.648 18.6773 23.824 18.6933 24H17.7226L15.84 21.3333L17.392 16.72L20.3946 15.7013L23.76 18.1386C20.9116 18.2691 18.6688 20.6153 18.6666 23.4666Z" fill="#F5F5F5"/>
<path d="M22.16 18.1387C19.4542 18.2633 17.2716 20.3964 17.0848 23.0987L17.7227 24H18.6934C18.6774 23.824 18.6667 23.648 18.6667 23.4667C18.6688 20.6153 20.9117 18.2692 23.76 18.1387H22.16Z" fill="#CFD8DC"/>
<path d="M29.3333 23.4666C29.3336 26.3086 27.1054 28.6517 24.267 28.7939C21.4285 28.9362 18.9771 26.8278 18.6933 24C18.6773 23.824 18.6666 23.648 18.6666 23.4666C18.6688 20.6153 20.9116 18.2691 23.76 18.1386C23.84 18.1333 23.92 18.1333 24 18.1333C26.9455 18.1333 29.3333 20.5211 29.3333 23.4666Z" fill="#FFDF00"/>
<path d="M24 18.1333C23.92 18.1333 23.84 18.1333 23.76 18.1386C23.5679 18.1478 23.3765 18.1675 23.1866 18.1978C25.7953 18.5849 27.728 20.8226 27.7314 23.4598C27.7347 26.0971 25.8077 28.3397 23.2 28.7333C25.1774 29.0332 27.1563 28.2009 28.3249 26.5777C29.4935 24.9546 29.6551 22.8138 28.7433 21.0337C27.8316 19.2535 26 18.1336 24 18.1333Z" fill="#FEC108"/>
<path d="M29.3333 4.26666H2.66663C2.37208 4.26666 2.1333 4.50544 2.1333 4.8C2.1333 5.09455 2.37208 5.33333 2.66663 5.33333H29.3333C29.6279 5.33333 29.8666 5.09455 29.8666 4.8C29.8666 4.50544 29.6279 4.26666 29.3333 4.26666Z" fill="black"/>
<path d="M3.19996 3.19997C3.49451 3.19997 3.73329 2.96119 3.73329 2.66663C3.73329 2.37208 3.49451 2.1333 3.19996 2.1333C2.90541 2.1333 2.66663 2.37208 2.66663 2.66663C2.66663 2.96119 2.90541 3.19997 3.19996 3.19997Z" fill="black"/>
<path d="M5.33326 3.19997C5.62781 3.19997 5.86659 2.96119 5.86659 2.66663C5.86659 2.37208 5.62781 2.1333 5.33326 2.1333C5.03871 2.1333 4.79993 2.37208 4.79993 2.66663C4.79993 2.96119 5.03871 3.19997 5.33326 3.19997Z" fill="black"/>
<path d="M7.46668 3.19997C7.76123 3.19997 8.00002 2.96119 8.00002 2.66663C8.00002 2.37208 7.76123 2.1333 7.46668 2.1333C7.17213 2.1333 6.93335 2.37208 6.93335 2.66663C6.93335 2.96119 7.17213 3.19997 7.46668 3.19997Z" fill="black"/>
<path d="M29.3333 0H2.66667C1.19464 0.00176326 0.00176326 1.19464 0 2.66667V29.3333C0.00176326 30.8054 1.19464 31.9982 2.66667 32H29.3333C30.8054 31.9982 31.9982 30.8054 32 29.3333V2.66667C31.9982 1.19464 30.8054 0.00176326 29.3333 0ZM30.9333 29.3333C30.9333 30.217 30.217 30.9333 29.3333 30.9333H2.66667C1.78301 30.9333 1.06667 30.217 1.06667 29.3333V2.66667C1.06667 1.78301 1.78301 1.06667 2.66667 1.06667H29.3333C30.217 1.06667 30.9333 1.78301 30.9333 2.66667V29.3333Z" fill="black"/>
<path d="M24.5114 17.6261C24.283 12.5268 20.6373 8.22626 15.6442 7.16608C10.6511 6.1059 5.57249 8.55404 3.29173 13.1206C1.01097 17.6871 2.10448 23.2179 5.95141 26.5729C9.79835 29.9279 15.4265 30.2592 19.6405 27.3786C21.3959 29.3371 24.2409 29.8866 26.5994 28.7228C28.9579 27.559 30.2526 24.9668 29.7663 22.3821C29.2799 19.7975 27.1316 17.8531 24.5114 17.6261ZM18.1333 23.4666H17.9989L16.4325 21.2469L17.8122 17.1402L20.305 16.296L22.4154 17.8245C19.8867 18.5357 18.138 20.8398 18.1333 23.4666ZM8.66766 23.4666H4.73326C3.84687 22.0433 3.33041 20.421 3.23086 18.7472L6.34126 16.4112L8.8586 17.152L10.2341 21.2469L8.66766 23.4666ZM4.73913 12.7904L5.61433 15.6229L3.23673 17.4085C3.35235 15.7694 3.86822 14.1837 4.73913 12.7904ZM11.209 20.8L9.90766 16.9258L13.3333 14.5189L16.7589 16.9258L15.4575 20.8H11.209ZM21.8346 12.64C22.7312 14.0212 23.2773 15.6004 23.4255 17.2405L21.0133 15.4896L21.8346 12.64ZM21.0346 11.5648L19.9594 15.2885L17.4762 16.1296L13.8666 13.5893V10.944L17.0522 8.70398C18.5952 9.31333 19.9634 10.2953 21.0346 11.5621V11.5648ZM15.7749 8.29864L13.3333 10.0144L10.9034 8.30771C12.5015 7.90152 14.1755 7.89877 15.7749 8.29971V8.29864ZM9.62446 8.71251L12.7999 10.944V13.5893L9.1786 16.1344L6.65966 15.393L5.5162 11.6922C6.61186 10.3678 8.02527 9.34268 9.62446 8.71251ZM5.48526 24.5333H8.56046L9.56953 27.5338C7.97681 26.8942 6.5718 25.862 5.48526 24.5333ZM10.8314 27.9413L9.5354 24.0864L11.1018 21.8666H15.5647L17.1311 24.0864L15.8303 27.9562C15.014 28.1624 14.1752 28.2667 13.3333 28.2666C12.489 28.2634 11.6484 28.1541 10.8314 27.9413ZM17.0949 27.5408L18.1061 24.5333H18.2351C18.3661 25.2384 18.6263 25.9132 19.0026 26.5237C18.4051 26.9303 17.7655 27.2713 17.0949 27.5408ZM23.9999 28.2666C21.349 28.2666 19.1999 26.1176 19.1999 23.4666C19.1999 20.8157 21.349 18.6666 23.9999 18.6666C26.6509 18.6666 28.7999 20.8157 28.7999 23.4666C28.797 26.1164 26.6497 28.2637 23.9999 28.2666Z" fill="black"/>
<path d="M25.6 22.1333C25.6 22.4279 25.8388 22.6667 26.1334 22.6667C26.4279 22.6667 26.6667 22.4279 26.6667 22.1333C26.6667 21.2149 25.7648 20.472 24.5334 20.3035V20.2667C24.5334 19.9721 24.2946 19.7333 24 19.7333C23.7055 19.7333 23.4667 19.9721 23.4667 20.2667V20.3035C22.2352 20.472 21.3334 21.2149 21.3334 22.1333C21.3334 23.0517 22.2352 23.7947 23.4667 23.9632V25.5467C22.8331 25.4235 22.4 25.0997 22.4 24.8C22.4 24.5055 22.1613 24.2667 21.8667 24.2667C21.5722 24.2667 21.3334 24.5055 21.3334 24.8C21.3334 25.7184 22.2352 26.4613 23.4667 26.6299V26.6667C23.4667 26.9612 23.7055 27.2 24 27.2C24.2946 27.2 24.5334 26.9612 24.5334 26.6667V26.6299C25.7648 26.4613 26.6667 25.7184 26.6667 24.8C26.6667 23.8816 25.7648 23.1387 24.5334 22.9701V21.3867C25.167 21.5104 25.6 21.8341 25.6 22.1333ZM22.4 22.1333C22.4 21.8341 22.8331 21.5104 23.4667 21.3867V22.88C22.8331 22.7563 22.4 22.4325 22.4 22.1333ZM25.6 24.8C25.6 25.0992 25.167 25.4229 24.5334 25.5467V24.0533C25.167 24.1771 25.6 24.5008 25.6 24.8Z" fill="black"/>
</g>
<defs>
<clipPath id="clip0_712_5880">
<rect width="32" height="32" fill="white"/>
</clipPath>
</defs>
</svg>
