<svg width="32" height="32" viewBox="0 0 32 32" fill="none" xmlns="http://www.w3.org/2000/svg">
<g clip-path="url(#clip0_712_5844)">
<path d="M19.4133 28.8001V28.8107C18.4053 29.4507 17.408 30.0694 17.0666 30.2507C12.9866 32.4587 5.24796 31.8934 3.28529 26.8534C2.41596 24.6187 2.54929 22.4161 3.15196 20.1281C3.46568 18.969 3.86134 17.8337 4.33596 16.7307C5.38129 14.2507 5.86663 8.36807 5.86663 5.67473V5.46673C5.85744 4.86934 6.08923 4.29342 6.50969 3.86894C6.93015 3.44447 7.50384 3.20722 8.10129 3.21073C8.24746 3.21733 8.3924 3.2406 8.53329 3.28007V26.1334C8.53329 27.6062 9.7272 28.8001 11.2 28.8001H19.4133Z" fill="#FFE0B2"/>
<path d="M6.93323 26.1335C6.93323 27.6062 8.12714 28.8001 9.59989 28.8001H11.1999C9.72714 28.8001 8.53323 27.6062 8.53323 26.1335V3.28012C8.39233 3.24065 8.2474 3.21739 8.10123 3.21079C7.68818 3.19415 7.28012 3.30595 6.93323 3.53079V26.1335Z" fill="#DFC49C"/>
<path d="M17.8132 28.8001V28.8108C16.8052 29.4508 15.8079 30.0694 15.4666 30.2508C14.0469 30.9725 12.4895 31.3825 10.8986 31.4534C13.0252 31.6134 15.1557 31.1979 17.0666 30.2508C17.4079 30.0694 18.4052 29.4508 19.4132 28.8108V28.8001H17.8132Z" fill="#DFC49C"/>
<path d="M28.3947 6.15476L24.6613 8.28809C24.6208 8.312 24.5779 8.33166 24.5333 8.34676V4.05876L26.5387 2.91209C27.4341 2.39957 28.5755 2.70999 29.088 3.60543C29.6005 4.50086 29.2901 5.64224 28.3947 6.15476Z" fill="#FFE0B2"/>
<path d="M29.088 3.60547C28.6041 2.76284 27.5535 2.43417 26.6757 2.85081C27.3015 3.15085 27.7092 3.7733 27.7341 4.46685C27.7591 5.1604 27.3973 5.81055 26.7947 6.15481L24.5333 7.44708V8.34681C24.5779 8.33171 24.6208 8.31205 24.6613 8.28814L28.3947 6.15481C29.288 5.64069 29.5979 4.50124 29.088 3.60547Z" fill="#DFC49C"/>
<path d="M28.2667 16.5334C28.2674 17.0994 28.0428 17.6425 27.6426 18.0427C27.2424 18.4429 26.6993 18.6675 26.1333 18.6668L24.5333 18.6668V10.1334H26.1333C27.3115 10.1334 28.2667 11.0885 28.2667 12.2668C28.2667 13.445 27.3115 14.4001 26.1333 14.4001C27.3115 14.4001 28.2667 15.3552 28.2667 16.5334Z" fill="#FFE0B2"/>
<path d="M26.1333 14.4001C27.3115 14.4001 28.2667 13.445 28.2667 12.2668C28.2667 11.0885 27.3115 10.1334 26.1333 10.1334H24.5333C25.7115 10.1334 26.6667 11.0885 26.6667 12.2668C26.6667 13.445 25.7115 14.4001 24.5333 14.4001C25.7115 14.4001 26.6667 15.3552 26.6667 16.5334C26.6667 17.7116 25.7115 18.6668 24.5333 18.6668H26.1333C27.3115 18.6668 28.2667 17.7116 28.2667 16.5334C28.2667 15.3552 27.3115 14.4001 26.1333 14.4001Z" fill="#DFC49C"/>
<path d="M28.2667 20.8001C28.2674 21.3662 28.0428 21.9092 27.6426 22.3094C27.2424 22.7097 26.6993 22.9342 26.1333 22.9335L24.5333 22.9335V18.6668H26.1333C27.3115 18.6668 28.2667 19.6219 28.2667 20.8001Z" fill="#FFE0B2"/>
<path d="M26.1333 18.6668H24.5333C25.7115 18.6668 26.6667 19.6219 26.6667 20.8001C26.6667 21.9784 25.7115 22.9335 24.5333 22.9335H26.1333C27.3115 22.9335 28.2667 21.9784 28.2667 20.8001C28.2667 19.6219 27.3115 18.6668 26.1333 18.6668Z" fill="#DFC49C"/>
<path d="M21.8667 0.533447H11.2C9.72723 0.533447 8.53333 1.72735 8.53333 3.20011V26.1334C8.53333 27.6062 9.72723 28.8001 11.2 28.8001H21.8667C23.3394 28.8001 24.5333 27.6062 24.5333 26.1334V3.20011C24.5333 1.72735 23.3394 0.533447 21.8667 0.533447Z" fill="#00BCD4"/>
<path d="M21.3334 0.533447L21.0022 1.85878C20.8835 2.33378 20.4566 2.66695 19.967 2.66678H13.0998C12.6102 2.66695 12.1833 2.33378 12.0646 1.85878L11.7334 0.533447" fill="#9E9E9E"/>
<path d="M19.7332 0.533447L19.402 1.85878C19.2833 2.33378 18.8564 2.66695 18.3668 2.66678H19.9668C20.4564 2.66695 20.8833 2.33378 21.002 1.85878L21.3332 0.533447L19.7332 0.533447Z" fill="#707070"/>
<path d="M22.3093 15.4188C22.1644 16.2635 21.8328 17.0652 21.3387 17.7654L23.5253 19.2961C22.9547 20.112 22.2453 20.8215 21.4293 21.3921L19.8987 19.2054C19.1984 19.6995 18.3967 20.0311 17.552 20.1761L18.016 22.8054C17.0349 22.9761 16.0317 22.9761 15.0507 22.8054L15.5147 20.1761C14.67 20.0311 13.8683 19.6995 13.168 19.2054L11.6373 21.3921C10.8528 20.8378 10.1646 20.1585 9.6 19.3814C9.57867 19.3548 9.56267 19.3228 9.54133 19.2961L11.728 17.7654C11.2339 17.0652 10.9023 16.2635 10.7573 15.4188L8.128 15.8828C7.95733 14.9017 7.95733 13.8985 8.128 12.9174L10.7573 13.3814C10.9023 12.5367 11.2339 11.735 11.728 11.0348L9.54133 9.50409C9.56267 9.47743 9.57867 9.44543 9.6 9.41876C10.1646 8.64164 10.8528 7.9624 11.6373 7.40809L13.168 9.59476C13.8683 9.10065 14.67 8.76904 15.5147 8.62409L15.0507 5.99476C16.0317 5.82409 17.0349 5.82409 18.016 5.99476L17.552 8.62409C18.3967 8.76904 19.1984 9.10065 19.8987 9.59476L21.4293 7.40809C22.2453 7.97871 22.9547 8.68814 23.5253 9.50409L21.3387 11.0348C21.8328 11.735 22.1644 12.5367 22.3093 13.3814L24.9387 12.9174C25.1093 13.8985 25.1093 14.9017 24.9387 15.8828L22.3093 15.4188Z" fill="#F5F5F5"/>
<path d="M16.5334 5.86676C16.2635 5.86676 15.9969 5.88276 15.7334 5.90729C20.1164 6.31871 23.4663 9.99787 23.4663 14.4001C23.4663 18.8023 20.1164 22.4815 15.7334 22.8929C15.9969 22.9174 16.2635 22.9334 16.5334 22.9334C21.2462 22.9334 25.0667 19.1129 25.0667 14.4001C25.0667 9.68726 21.2462 5.86676 16.5334 5.86676Z" fill="#CFD8DC"/>
<path d="M15.5148 8.62408C14.6701 8.76903 13.8684 9.10064 13.1681 9.59475L11.6375 7.40808C12.6584 6.69338 13.8235 6.21096 15.0508 5.99475L15.5148 8.62408Z" fill="#F44335"/>
<path d="M21.4293 7.40808L19.8987 9.59475C19.1984 9.10064 18.3967 8.76903 17.552 8.62408L18.016 5.99475C18.1867 6.02675 18.3573 6.05875 18.5227 6.10142C19.5661 6.34744 20.5527 6.79099 21.4293 7.40808Z" fill="#F44335"/>
<path d="M24.9386 12.9174L22.3093 13.3814C22.1643 12.5367 21.8327 11.735 21.3386 11.0348L23.5253 9.50409C24.2421 10.5238 24.7247 11.6894 24.9386 12.9174Z" fill="#F44335"/>
<path d="M23.5253 9.50409L22.4117 10.2833C22.8647 11.1039 23.1779 11.994 23.3387 12.9174L22.2469 13.11C22.2667 13.2006 22.2933 13.2892 22.3093 13.3814L24.9387 12.9174C24.7248 11.6894 24.2422 10.5238 23.5253 9.50409Z" fill="#C81E1E"/>
<path d="M24.9386 15.8828C24.7247 17.1108 24.2421 18.2763 23.5253 19.2961L21.3386 17.7654C21.8327 17.0652 22.1643 16.2635 22.3093 15.4188L24.9386 15.8828Z" fill="#F44335"/>
<path d="M22.3093 15.4188C22.2933 15.511 22.2667 15.599 22.2469 15.6902L23.3387 15.8828C23.1779 16.8061 22.8647 17.6963 22.4117 18.5169L23.5253 19.2961C24.2422 18.2763 24.7248 17.1108 24.9387 15.8828L22.3093 15.4188Z" fill="#C81E1E"/>
<path d="M21.4293 21.3922C20.4096 22.109 19.244 22.5916 18.016 22.8055L17.552 20.1762C18.3967 20.0312 19.1984 19.6996 19.8987 19.2055L21.4293 21.3922Z" fill="#F44335"/>
<path d="M15.5148 20.1762L15.0508 22.8055C13.8235 22.5893 12.6584 22.1069 11.6375 21.3922L13.1681 19.2055C13.8684 19.6996 14.6701 20.0312 15.5148 20.1762Z" fill="#F44335"/>
<path d="M11.7281 17.7655L9.54139 19.2962C8.92429 18.4196 8.48074 17.4329 8.23472 16.3895C8.19205 16.2242 8.16005 16.0535 8.12805 15.8828L10.7574 15.4188C10.9023 16.2635 11.2339 17.0652 11.7281 17.7655Z" fill="#F44335"/>
<path d="M11.7281 11.0348C11.2339 11.7351 10.9023 12.5368 10.7574 13.3815L8.12805 12.9175C8.34194 11.6895 8.82456 10.5239 9.54139 9.50415L11.7281 11.0348Z" fill="#F44335"/>
<path d="M22.4 14.4002C22.3996 14.7418 22.3693 15.0827 22.3093 15.4189C21.883 17.848 19.981 19.7499 17.552 20.1762C16.8782 20.2971 16.1884 20.2971 15.5146 20.1762C13.0855 19.7499 11.1836 17.848 10.7573 15.4189C10.6364 14.7452 10.6364 14.0553 10.7573 13.3816C11.1836 10.9525 13.0855 9.05053 15.5146 8.62423C16.1884 8.50335 16.8782 8.50335 17.552 8.62423C19.981 9.05053 21.883 10.9525 22.3093 13.3816C22.3693 13.7178 22.3996 14.0587 22.4 14.4002Z" fill="#F44335"/>
<path d="M19.7334 15.2801C19.6047 15.7624 19.2713 16.1643 18.8209 16.3797C18.3705 16.5952 17.8484 16.6026 17.3921 16.4001L17.8155 17.3905C17.8859 17.5552 17.8689 17.7442 17.7703 17.8938C17.6717 18.0433 17.5045 18.1333 17.3254 18.1334H15.7414C15.5623 18.1333 15.3952 18.0433 15.2965 17.8938C15.1979 17.7442 15.1809 17.5552 15.2513 17.3905L15.6747 16.4001C15.2184 16.6026 14.6963 16.5952 14.2459 16.3797C13.7956 16.1643 13.4621 15.7624 13.3334 15.2801C12.8939 13.7158 15.351 11.3782 16.2299 10.7627C16.412 10.6347 16.6548 10.6347 16.8369 10.7627C17.7158 11.3782 20.1729 13.7158 19.7334 15.2801Z" fill="#F5F5F5"/>
<path d="M26.2741 2.44907L25.0634 3.1424C25.032 1.39887 23.6104 0.00146131 21.8666 0H11.2C9.63409 0.00176034 8.2995 1.13642 8.04583 2.6816C7.36372 2.66857 6.70497 2.93011 6.21756 3.40747C5.60753 3.99892 5.2848 4.82638 5.33329 5.67467C5.33329 8.1456 4.88369 14.0576 3.84529 16.5221C3.35996 17.6484 2.9559 18.808 2.63623 19.992C1.91996 22.7029 1.97329 24.9445 2.78876 27.0469C3.54449 28.9888 5.14343 30.4549 7.41116 31.2869C8.79107 31.7745 10.2453 32.0183 11.7088 32.0075C13.6547 32.0378 15.5789 31.596 17.3168 30.72C17.7434 30.4944 18.9701 29.7216 19.585 29.3333H21.8666C23.6332 29.3316 25.0649 27.8999 25.0666 26.1333V23.4667H26.1333C27.2834 23.4698 28.3051 22.7329 28.6653 21.6407C29.0255 20.5484 28.6426 19.3484 27.7162 18.6667C28.4004 18.172 28.804 17.3776 28.8 16.5333C28.7976 15.6906 28.3954 14.899 27.7162 14.4C28.4004 13.9053 28.804 13.111 28.8 12.2667C28.7982 10.7946 27.6053 9.60176 26.1333 9.6H25.0666V8.67093L28.6602 6.61707C29.8112 5.95815 30.2101 4.49096 29.5512 3.34C28.8922 2.18904 27.4251 1.79015 26.2741 2.44907ZM21.5466 20.6272L20.6282 19.3152C20.9263 19.0661 21.2016 18.7909 21.4506 18.4928L22.7626 19.4112C22.4016 19.8586 21.994 20.2662 21.5466 20.6272ZM18.4432 22.16L18.1648 20.5813C18.7206 20.4349 19.254 20.2137 19.7504 19.9237L20.6682 21.2357C19.9779 21.6553 19.2276 21.967 18.4432 22.16ZM12.3984 21.2357L13.3162 19.9237C13.8125 20.2137 14.346 20.4349 14.9018 20.5813L14.6234 22.16C13.839 21.967 13.0887 21.6553 12.3984 21.2357ZM10.3061 19.4133L11.6181 18.4949C11.8671 18.7931 12.1424 19.0683 12.4405 19.3173L11.52 20.6272C11.0734 20.2668 10.6665 19.8599 10.3061 19.4133ZM11.52 8.1728L12.4384 9.4848C12.1402 9.73385 11.865 10.0091 11.616 10.3072L10.3061 9.38667C10.6665 8.94014 11.0734 8.53323 11.52 8.1728ZM14.6213 6.64L14.8997 8.21867C14.3438 8.36505 13.8104 8.58627 13.3141 8.87627L12.3962 7.56427C13.0872 7.1445 13.8383 6.83281 14.6234 6.64H14.6213ZM20.6661 7.56427L19.7482 8.87627C19.2519 8.58627 18.7185 8.36505 18.1626 8.21867L18.441 6.64C19.2262 6.83281 19.9773 7.1445 20.6682 7.56427H20.6661ZM22.7605 9.38667L21.4485 10.3051C21.1994 10.0069 20.9242 9.73172 20.6261 9.48267L21.5445 8.17067C21.9919 8.53165 22.3995 8.93929 22.7605 9.38667ZM16.5333 19.7333C13.5878 19.7333 11.2 17.3455 11.2 14.4C11.2 11.4545 13.5878 9.06667 16.5333 9.06667C19.4788 9.06667 21.8666 11.4545 21.8666 14.4C21.8634 17.3442 19.4775 19.7301 16.5333 19.7333ZM8.53329 14.4C8.5339 14.1124 8.54993 13.8251 8.58129 13.5392L10.1626 13.8181C10.1456 14.0101 10.1333 14.2037 10.1333 14.4C10.1333 14.5963 10.1456 14.7899 10.1626 14.9819L8.58129 15.2608C8.54993 14.9749 8.5339 14.6876 8.53329 14.4ZM10.352 12.7685L8.77329 12.4901C8.96631 11.7057 9.27799 10.9554 9.69756 10.2651L11.0096 11.1829C10.7196 11.6792 10.4983 12.2127 10.352 12.7685ZM8.77329 16.3099L10.352 16.0315C10.4983 16.5873 10.7196 17.1208 11.0096 17.6171L9.69756 18.5349C9.27799 17.8446 8.96631 17.0943 8.77329 16.3099ZM22.7146 16.0315L24.2933 16.3099C24.1003 17.0943 23.7886 17.8446 23.369 18.5349L22.057 17.6171C22.347 17.1208 22.5682 16.5873 22.7146 16.0315ZM24.5333 14.4C24.5327 14.6876 24.5167 14.9749 24.4853 15.2608L22.904 14.9819C22.921 14.7899 22.9333 14.5963 22.9333 14.4C22.9333 14.2037 22.921 14.0101 22.904 13.8181L24.4853 13.5392C24.5167 13.8251 24.5327 14.1124 24.5333 14.4ZM22.7146 12.7685C22.5682 12.2127 22.347 11.6792 22.057 11.1829L23.369 10.2651C23.7886 10.9554 24.1003 11.7057 24.2933 12.4901L22.7146 12.7685ZM17.1146 8.02933C16.9232 8.01227 16.7296 8 16.5333 8C16.337 8 16.1434 8.01227 15.9514 8.02933L15.6725 6.448C16.2446 6.384 16.822 6.384 17.3941 6.448L17.1146 8.02933ZM15.9509 20.7707C16.1429 20.7877 16.3365 20.8 16.5328 20.8C16.729 20.8 16.9226 20.7877 17.1146 20.7707L17.3936 22.352C16.8215 22.416 16.244 22.416 15.672 22.352L15.9509 20.7707ZM20.6506 1.06667L20.4848 1.72907C20.4255 1.96677 20.2119 2.13351 19.9669 2.13333H13.0997C12.8549 2.13357 12.6413 1.96709 12.5818 1.7296L12.416 1.06667H20.6506ZM11.2 1.06667H11.3173L11.5472 1.9888C11.7255 2.70088 12.3656 3.20023 13.0997 3.2H19.9669C20.7011 3.20016 21.3413 2.70056 21.5194 1.98827L21.7493 1.06667H21.8666C23.0448 1.06667 24 2.02179 24 3.2V9.26827C22.3123 6.80557 19.5188 5.33344 16.5333 5.33344C13.5478 5.33344 10.7543 6.80557 9.06663 9.26827V3.2C9.06663 2.02179 10.0218 1.06667 11.2 1.06667ZM16.8128 29.7813C14.337 31.1216 10.6218 31.328 7.77863 30.2859C5.98488 29.7115 4.52752 28.389 3.78236 26.6592C3.03996 24.7525 3.00529 22.7803 3.66769 20.2667C3.97409 19.1313 4.36175 18.0195 4.82769 16.9397C5.93863 14.3008 6.39996 8.3008 6.39996 5.67467C6.35236 5.11911 6.55561 4.57137 6.95409 4.18133C7.23306 3.90628 7.60821 3.75075 7.99996 3.74773V11.3659C7.28883 13.3261 7.28883 15.4739 7.99996 17.4341V26.1333C8.00172 27.8999 9.43338 29.3316 11.2 29.3333H17.5712C17.2138 29.552 16.9472 29.7104 16.8128 29.7813ZM24 26.1333C24 27.3115 23.0448 28.2667 21.8666 28.2667H11.2C10.0218 28.2667 9.06663 27.3115 9.06663 26.1333V19.5317C10.7543 21.9944 13.5478 23.4666 16.5333 23.4666C19.5188 23.4666 22.3123 21.9944 24 19.5317V26.1333ZM27.7333 20.8C27.7333 21.6837 27.0169 22.4 26.1333 22.4H25.0666V19.2H26.1333C27.0169 19.2 27.7333 19.9163 27.7333 20.8ZM27.7333 16.5333C27.7333 17.417 27.0169 18.1333 26.1333 18.1333H25.0666V17.4341C25.3569 16.6298 25.5274 15.7872 25.5728 14.9333H26.1333C27.0169 14.9333 27.7333 15.6497 27.7333 16.5333ZM26.1333 10.6667C27.0169 10.6667 27.7333 11.383 27.7333 12.2667C27.7333 13.1503 27.0169 13.8667 26.1333 13.8667H25.5728C25.5262 13.0129 25.3557 12.1705 25.0666 11.3659V10.6667H26.1333ZM28.1301 5.69173L25.0666 7.44853V4.368L26.8032 3.37493C27.4429 3.00851 28.2586 3.2301 28.625 3.86987C28.9915 4.50963 28.7699 5.32531 28.1301 5.69173Z" fill="black"/>
<path d="M21.3334 25.6H11.7334C11.4389 25.6 11.2001 25.8388 11.2001 26.1334C11.2001 26.4279 11.4389 26.6667 11.7334 26.6667H21.3334C21.628 26.6667 21.8667 26.4279 21.8667 26.1334C21.8667 25.8388 21.628 25.6 21.3334 25.6Z" fill="black"/>
<path d="M17.143 10.3254C16.7765 10.07 16.2897 10.07 15.9232 10.3254C15.1718 10.8529 12.2555 13.4187 12.8198 15.4246C12.9748 16.0364 13.3883 16.5505 13.9526 16.8331C14.2213 16.9643 14.5133 17.0415 14.8118 17.0603L14.7584 17.1803C14.6172 17.5103 14.6514 17.8893 14.8495 18.1886C15.0475 18.488 15.3829 18.6677 15.7419 18.6667H17.3248C17.6834 18.667 18.0181 18.487 18.2157 18.1878C18.4133 17.8885 18.4473 17.51 18.3062 17.1803L18.2528 17.0603C18.5513 17.0415 18.8432 16.9643 19.112 16.8331C19.6763 16.5505 20.0898 16.0364 20.2448 15.4246C20.8112 13.4161 17.895 10.8529 17.143 10.3254ZM19.2198 15.1361C19.1451 15.456 18.9337 15.727 18.6416 15.8774C18.3092 16.0304 17.9286 16.04 17.5888 15.9041C17.3884 15.8242 17.1596 15.8729 17.0092 16.0274C16.8587 16.182 16.8161 16.412 16.9014 16.6102L17.3248 17.6001H15.7419L16.1654 16.6102C16.2506 16.412 16.2081 16.182 16.0576 16.0274C15.9071 15.8729 15.6783 15.8242 15.4779 15.9041C15.1383 16.0405 14.7574 16.0308 14.4251 15.8774C14.133 15.727 13.9216 15.456 13.847 15.1361C13.535 14.0267 15.4592 11.9531 16.5334 11.2001C17.6075 11.9531 19.5312 14.0267 19.2198 15.1361Z" fill="black"/>
</g>
<defs>
<clipPath id="clip0_712_5844">
<rect width="32" height="32" fill="white"/>
</clipPath>
</defs>
</svg>
