<svg width="32" height="32" viewBox="0 0 32 32" fill="none" xmlns="http://www.w3.org/2000/svg">
<path d="M31.3013 28.9654L28.9653 31.3013C28.7393 31.52 28.3806 31.52 28.1546 31.3013L21.952 25.0933L19.6266 28.976C19.5364 29.1259 19.3666 29.2089 19.1929 29.1882C19.0192 29.1675 18.8738 29.0469 18.8213 28.88L16.576 21.8667L14.4266 15.1467C14.3626 14.9426 14.4173 14.7198 14.5685 14.5686C14.7198 14.4173 14.9425 14.3627 15.1466 14.4267L21.8666 16.576L28.88 18.8213C29.0468 18.8738 29.1674 19.0193 29.1881 19.193C29.2089 19.3667 29.1258 19.5364 28.976 19.6267L25.0933 21.952L31.3013 28.1547C31.5199 28.3807 31.5199 28.7394 31.3013 28.9654Z" fill="#F5F5F5"/>
<path d="M31.3014 28.1547L25.0934 21.952L28.976 19.6267C29.1259 19.5364 29.2089 19.3667 29.1882 19.193C29.1675 19.0193 29.0469 18.8738 28.88 18.8213L21.8667 16.576L15.1467 14.4267C14.8778 14.3421 14.5874 14.4668 14.4635 14.72L20.2667 16.576L27.28 18.8213C27.4469 18.8738 27.5675 19.0193 27.5882 19.193C27.6089 19.3667 27.5259 19.5364 27.376 19.6267L24.6667 21.2491C24.3846 21.418 24.1962 21.7075 24.156 22.0337C24.1158 22.36 24.2282 22.6866 24.4608 22.9189L29.7014 28.1547C29.92 28.3807 29.92 28.7394 29.7014 28.9654L27.76 30.9067L28.1547 31.3013C28.3807 31.52 28.7394 31.52 28.9654 31.3013L31.3014 28.9654C31.52 28.7394 31.52 28.3807 31.3014 28.1547Z" fill="#CFD8DC"/>
<path d="M14.4267 15.1467L16.576 21.8667H3.19999C2.49275 21.8667 1.81447 21.5857 1.31437 21.0856C0.814277 20.5855 0.533325 19.9072 0.533325 19.2V3.19999C0.533325 1.72723 1.72723 0.533325 3.19999 0.533325H19.2C19.9072 0.533325 20.5855 0.814277 21.0856 1.31437C21.5857 1.81447 21.8667 2.49275 21.8667 3.19999V16.576L15.1467 14.4267C14.9426 14.3626 14.7198 14.4173 14.5686 14.5686C14.4173 14.7198 14.3626 14.9426 14.4267 15.1467Z" fill="#EF314C"/>
<path d="M14.4634 14.72L13.5466 14.4267C13.3426 14.3627 13.1198 14.4173 12.9685 14.5686C12.8173 14.7198 12.7626 14.9426 12.8266 15.1467L14.976 21.8667H16.576L14.4266 15.1467C14.3821 15.0052 14.3953 14.8518 14.4634 14.72Z" fill="#BB193B"/>
<path d="M19.2 0.533325H17.6C18.3072 0.533325 18.9855 0.814277 19.4856 1.31437C19.9857 1.81447 20.2666 2.49275 20.2666 3.19999V16.064L21.8666 16.576V3.19999C21.8666 2.49275 21.5857 1.81447 21.0856 1.31437C20.5855 0.814277 19.9072 0.533325 19.2 0.533325Z" fill="#BB193B"/>
<path d="M5.33328 6.93334C6.21693 6.93334 6.93328 6.21699 6.93328 5.33334C6.93328 4.44968 6.21693 3.73334 5.33328 3.73334C4.44962 3.73334 3.73328 4.44968 3.73328 5.33334C3.73328 6.21699 4.44962 6.93334 5.33328 6.93334Z" fill="#F5F5F5"/>
<path d="M17.0667 6.9334C17.9503 6.9334 18.6667 6.21705 18.6667 5.3334C18.6667 4.44974 17.9503 3.7334 17.0667 3.7334C16.183 3.7334 15.4667 4.44974 15.4667 5.3334C15.4667 6.21705 16.183 6.9334 17.0667 6.9334Z" fill="#F5F5F5"/>
<path d="M5.33328 18.6667C6.21693 18.6667 6.93328 17.9504 6.93328 17.0667C6.93328 16.1831 6.21693 15.4667 5.33328 15.4667C4.44962 15.4667 3.73328 16.1831 3.73328 17.0667C3.73328 17.9504 4.44962 18.6667 5.33328 18.6667Z" fill="#F5F5F5"/>
<path d="M11.2 12.8C12.0836 12.8 12.8 12.0837 12.8 11.2C12.8 10.3164 12.0836 9.60004 11.2 9.60004C10.3163 9.60004 9.59998 10.3164 9.59998 11.2C9.59998 12.0837 10.3163 12.8 11.2 12.8Z" fill="#F5F5F5"/>
<path d="M3.2 22.4H16.1893L18.3152 29.0427C18.4321 29.4088 18.7525 29.6726 19.1342 29.7171C19.516 29.7616 19.8885 29.5785 20.0864 29.2491L22.0597 25.9563L27.7771 31.6763C28.2094 32.1073 28.909 32.1073 29.3413 31.6763L31.6763 29.3413C32.1073 28.909 32.1073 28.2094 31.6763 27.7771L25.9563 22.0571L29.2549 20.0837C29.5814 19.8838 29.7614 19.5119 29.7155 19.1318C29.6696 18.7517 29.4063 18.4333 29.0416 18.3168L22.4 16.1888V3.2C22.3982 1.43342 20.9666 0.00176394 19.2 0H3.2C1.43342 0.00176394 0.00176394 1.43342 0 3.2V19.2C0.00176394 20.9666 1.43342 22.3982 3.2 22.4ZM24.8219 21.4933C24.6809 21.5778 24.5868 21.7225 24.5667 21.8855C24.5466 22.0486 24.6027 22.2118 24.7189 22.328L30.9221 28.5333C30.9355 28.5486 30.9355 28.5714 30.9221 28.5867L28.5867 30.9221C28.5714 30.9355 28.5486 30.9355 28.5333 30.9221L22.328 24.7189C22.228 24.6189 22.0924 24.5627 21.9509 24.5627C21.929 24.5626 21.9071 24.5638 21.8853 24.5664C21.7223 24.5866 21.5777 24.6809 21.4933 24.8219L19.272 28.5333L14.9867 14.936L28.5333 19.272L24.8219 21.4933ZM1.06667 3.2C1.06667 2.02179 2.02179 1.06667 3.2 1.06667H19.2C20.3782 1.06667 21.3333 2.02179 21.3333 3.2V15.8475L15.3109 13.92C14.9164 13.794 14.4845 13.8988 14.1917 14.1917C13.8988 14.4845 13.794 14.9164 13.92 15.3109L15.8475 21.3333H3.2C2.02179 21.3333 1.06667 20.3782 1.06667 19.2V3.2Z" fill="black"/>
<path d="M5.33328 7.46668C6.51149 7.46668 7.46662 6.51155 7.46662 5.33335C7.46662 4.15514 6.51149 3.20001 5.33328 3.20001C4.15508 3.20001 3.19995 4.15514 3.19995 5.33335C3.19995 6.51155 4.15508 7.46668 5.33328 7.46668ZM5.33328 4.26668C5.92239 4.26668 6.39995 4.74424 6.39995 5.33335C6.39995 5.92245 5.92239 6.40001 5.33328 6.40001C4.74418 6.40001 4.26662 5.92245 4.26662 5.33335C4.26662 4.74424 4.74418 4.26668 5.33328 4.26668Z" fill="black"/>
<path d="M17.0667 7.46668C18.2449 7.46668 19.2 6.51155 19.2 5.33335C19.2 4.15514 18.2449 3.20001 17.0667 3.20001C15.8885 3.20001 14.9333 4.15514 14.9333 5.33335C14.9333 6.51155 15.8885 7.46668 17.0667 7.46668ZM17.0667 4.26668C17.6558 4.26668 18.1333 4.74424 18.1333 5.33335C18.1333 5.92245 17.6558 6.40001 17.0667 6.40001C16.4776 6.40001 16 5.92245 16 5.33335C16 4.74424 16.4776 4.26668 17.0667 4.26668Z" fill="black"/>
<path d="M5.33328 19.2C6.51149 19.2 7.46662 18.2449 7.46662 17.0667C7.46662 15.8885 6.51149 14.9333 5.33328 14.9333C4.15508 14.9333 3.19995 15.8885 3.19995 17.0667C3.19995 18.2449 4.15508 19.2 5.33328 19.2ZM5.33328 16C5.92239 16 6.39995 16.4776 6.39995 17.0667C6.39995 17.6558 5.92239 18.1333 5.33328 18.1333C4.74418 18.1333 4.26662 17.6558 4.26662 17.0667C4.26662 16.4776 4.74418 16 5.33328 16Z" fill="black"/>
<path d="M11.2 13.3333C12.3782 13.3333 13.3333 12.3782 13.3333 11.2C13.3333 10.0218 12.3782 9.06665 11.2 9.06665C10.0218 9.06665 9.06665 10.0218 9.06665 11.2C9.06665 12.3782 10.0218 13.3333 11.2 13.3333ZM11.2 10.1333C11.7891 10.1333 12.2667 10.6109 12.2667 11.2C12.2667 11.7891 11.7891 12.2667 11.2 12.2667C10.6109 12.2667 10.1333 11.7891 10.1333 11.2C10.1333 10.6109 10.6109 10.1333 11.2 10.1333Z" fill="black"/>
</svg>
