<svg width="32" height="32" viewBox="0 0 32 32" fill="none" xmlns="http://www.w3.org/2000/svg">
<path d="M28.7094 10.0853C28.5644 10.93 28.2328 11.7317 27.7387 12.432L29.9254 13.9627C29.3547 14.7786 28.6453 15.488 27.8294 16.0587L26.2987 13.872C25.5984 14.3661 24.7967 14.6977 23.952 14.8427L24.416 17.472C23.4349 17.6427 22.4318 17.6427 21.4507 17.472L21.9147 14.8427C21.07 14.6977 20.2683 14.3661 19.568 13.872L18.0374 16.0587C17.2529 15.5043 16.5646 14.8251 16 14.048C15.9787 14.0213 15.9627 13.9893 15.9414 13.9627L18.128 12.432C17.6339 11.7317 17.3023 10.93 17.1574 10.0853L14.528 10.5493C14.3574 9.56825 14.3574 8.56507 14.528 7.58399L17.1574 8.04799C17.3023 7.2033 17.6339 6.40159 18.128 5.70132L15.9414 4.17066C15.9627 4.14399 15.9787 4.11199 16 4.08532C16.5646 3.30821 17.2529 2.62897 18.0374 2.07466L19.568 4.26132C20.2683 3.76722 21.07 3.4356 21.9147 3.29066L21.4507 0.661324C22.4318 0.490659 23.4349 0.490659 24.416 0.661324L23.952 3.29066C24.7967 3.4356 25.5984 3.76722 26.2987 4.26132L27.8294 2.07466C28.6453 2.64527 29.3547 3.35471 29.9254 4.17066L27.7387 5.70132C28.2328 6.40159 28.5644 7.2033 28.7094 8.04799L31.3387 7.58399C31.5094 8.56507 31.5094 9.56825 31.3387 10.5493L28.7094 10.0853Z" fill="#F5F5F5"/>
<path d="M22.9333 0.533325C22.6634 0.533325 22.3968 0.549325 22.1333 0.573859C26.5163 0.985275 29.8662 4.66444 29.8662 9.06666C29.8662 13.4689 26.5163 17.148 22.1333 17.5595C22.3968 17.584 22.6634 17.6 22.9333 17.6C27.6461 17.6 31.4666 13.7795 31.4666 9.06666C31.4666 4.35383 27.6461 0.533325 22.9333 0.533325Z" fill="#CFD8DC"/>
<path d="M21.9147 3.29065C21.07 3.43559 20.2683 3.76721 19.568 4.26132L18.0374 2.07465C19.0583 1.35994 20.2234 0.877529 21.4507 0.661316L21.9147 3.29065Z" fill="#F44335"/>
<path d="M27.8294 2.07465L26.2987 4.26132C25.5984 3.76721 24.7967 3.43559 23.952 3.29065L24.416 0.661316C25.644 0.875206 26.8096 1.35782 27.8294 2.07465Z" fill="#F44335"/>
<path d="M31.3386 7.58399L28.7093 8.04799C28.5644 7.20329 28.2328 6.40159 27.7386 5.70132L29.9253 4.17065C30.6421 5.19041 31.1248 6.35598 31.3386 7.58399Z" fill="#F44335"/>
<path d="M29.9254 4.17065L28.8118 4.94985C29.2647 5.77042 29.5779 6.66061 29.7387 7.58399L28.647 7.77652C28.6667 7.86719 28.6934 7.95572 28.7094 8.04799L31.3387 7.58399C31.1248 6.35598 30.6422 5.19041 29.9254 4.17065Z" fill="#C81E1E"/>
<path d="M31.3386 10.5493C31.1248 11.7773 30.6421 12.9429 29.9253 13.9627L27.7386 12.432C28.2328 11.7317 28.5644 10.93 28.7093 10.0853L31.3386 10.5493Z" fill="#F44335"/>
<path d="M28.7094 10.0853C28.6934 10.1776 28.6667 10.2656 28.647 10.3568L29.7387 10.5493C29.5779 11.4727 29.2647 12.3629 28.8118 13.1835L29.9254 13.9627C30.6422 12.9429 31.1248 11.7773 31.3387 10.5493L28.7094 10.0853Z" fill="#C81E1E"/>
<path d="M27.8294 16.0587C26.8096 16.7755 25.644 17.2581 24.416 17.472L23.952 14.8427C24.7967 14.6977 25.5984 14.3661 26.2987 13.872L27.8294 16.0587Z" fill="#F44335"/>
<path d="M21.9147 14.8427L21.4507 17.472C20.2234 17.2558 19.0583 16.7734 18.0374 16.0587L19.568 13.872C20.2683 14.3661 21.07 14.6977 21.9147 14.8427Z" fill="#F44335"/>
<path d="M18.128 12.432L15.9413 13.9627C15.2245 12.9429 14.7418 11.7773 14.528 10.5493L17.1573 10.0853C17.3022 10.93 17.6338 11.7317 18.128 12.432Z" fill="#F44335"/>
<path d="M18.128 5.70132C17.6338 6.40159 17.3022 7.20329 17.1573 8.04799L14.528 7.58399C14.7418 6.35598 15.2245 5.19041 15.9413 4.17065L18.128 5.70132Z" fill="#F44335"/>
<path d="M28.8 9.06668C28.7996 9.40823 28.7693 9.7491 28.7093 10.0853C28.283 12.5144 26.3811 14.4164 23.952 14.8427C23.2782 14.9636 22.5884 14.9636 21.9146 14.8427C19.4856 14.4164 17.5836 12.5144 17.1573 10.0853C17.0364 9.41161 17.0364 8.72174 17.1573 8.04801C17.5836 5.61893 19.4856 3.71698 21.9146 3.29068C22.5884 3.16979 23.2782 3.16979 23.952 3.29068C26.3811 3.71698 28.283 5.61893 28.7093 8.04801C28.7693 8.38426 28.7996 8.72512 28.8 9.06668Z" fill="#F44335"/>
<path d="M26.1333 9.94669C26.0046 10.4291 25.6712 10.8309 25.2208 11.0463C24.7704 11.2618 24.2483 11.2692 23.792 11.0667L24.2154 12.0571C24.2858 12.2218 24.2688 12.4109 24.1702 12.5604C24.0716 12.7099 23.9044 12.7999 23.7253 12.8H22.1413C21.9622 12.7999 21.7951 12.7099 21.6964 12.5604C21.5978 12.4109 21.5808 12.2218 21.6512 12.0571L22.0746 11.0667C21.6183 11.2692 21.0962 11.2618 20.6458 11.0463C20.1955 10.8309 19.862 10.4291 19.7333 9.94669C19.2938 8.38242 21.7509 6.04482 22.6298 5.42935C22.8119 5.3013 23.0547 5.3013 23.2368 5.42935C24.1157 6.04482 26.5728 8.38242 26.1333 9.94669Z" fill="#F5F5F5"/>
<path d="M26.1333 16.9813V28.8C26.1333 30.2727 24.9394 31.4666 23.4667 31.4666H3.19999C2.49275 31.4666 1.81447 31.1857 1.31437 30.6856C0.814277 30.1855 0.533325 29.5072 0.533325 28.8V16C0.533325 14.5272 1.72723 13.3333 3.19999 13.3333H15.5413C15.6633 13.5501 15.7969 13.7601 15.9413 13.9626C16.5119 14.7786 17.2214 15.488 18.0373 16.0586C19.0562 16.776 20.2223 17.257 21.4507 17.4666C23.0264 17.7406 24.6473 17.5726 26.1333 16.9813Z" fill="#FF9801"/>
<path d="M16.4373 16.0586C17.4562 16.776 18.6223 17.257 19.8506 17.4666C20.34 17.5545 20.8361 17.5991 21.3333 17.6C21.6037 17.6 21.8698 17.5845 22.1333 17.5589C21.9029 17.5365 21.6746 17.5056 21.4506 17.4666C20.2223 17.257 19.0562 16.776 18.0373 16.0586C17.2213 15.488 16.5119 14.7786 15.9413 13.9626C15.7968 13.7601 15.6633 13.5501 15.5413 13.3333H13.9413C14.0633 13.5501 14.1968 13.7601 14.3413 13.9626C14.9119 14.7786 15.6213 15.488 16.4373 16.0586Z" fill="#F57C00"/>
<path d="M24.5334 17.44V28.8C24.5334 30.2727 23.3395 31.4667 21.8667 31.4667H23.4667C24.9395 31.4667 26.1334 30.2727 26.1334 28.8V16.9813C25.6164 17.1864 25.0805 17.3401 24.5334 17.44Z" fill="#F57C00"/>
<path d="M0.533325 25.0667H26.1333V28.2667H0.533325V25.0667Z" fill="#607D8B"/>
<path d="M24.5333 25.0667H26.1333V28.2667H24.5333V25.0667Z" fill="#37474F"/>
<path d="M9.06662 16.5333H4.79995C3.9163 16.5333 3.19995 17.2497 3.19995 18.1333V20.2667C3.19995 21.1503 3.9163 21.8667 4.79995 21.8667H9.06662C9.95027 21.8667 10.6666 21.1503 10.6666 20.2667V18.1333C10.6666 17.2497 9.95027 16.5333 9.06662 16.5333Z" fill="#FFDF00"/>
<path d="M8.53337 18.1333C8.53337 17.2497 7.81703 16.5333 6.93337 16.5333C6.04972 16.5333 5.33337 17.2497 5.33337 18.1333V20.2667C5.33337 21.1503 6.04972 21.8667 6.93337 21.8667C7.81703 21.8667 8.53337 21.1503 8.53337 20.2667V18.1333Z" fill="#FEC108"/>
<path d="M9.06663 16H4.79996C3.62175 16 2.66663 16.9551 2.66663 18.1333V20.2667C2.66663 21.4449 3.62175 22.4 4.79996 22.4H9.06663C10.2448 22.4 11.2 21.4449 11.2 20.2667V18.1333C11.2 16.9551 10.2448 16 9.06663 16ZM7.99996 18.1333V20.2667C7.99996 20.8558 7.5224 21.3333 6.93329 21.3333C6.34419 21.3333 5.86663 20.8558 5.86663 20.2667V18.1333C5.86663 17.5442 6.34419 17.0667 6.93329 17.0667C7.5224 17.0667 7.99996 17.5442 7.99996 18.1333ZM3.73329 20.2667V18.1333C3.73329 17.5442 4.21086 17.0667 4.79996 17.0667H5.09649C4.90453 17.3895 4.80217 17.7577 4.79996 18.1333V20.2667C4.80217 20.6423 4.90453 21.0105 5.09649 21.3333H4.79996C4.51706 21.3333 4.24575 21.221 4.04571 21.0209C3.84567 20.8209 3.73329 20.5496 3.73329 20.2667ZM10.1333 20.2667C10.1333 20.8558 9.65573 21.3333 9.06663 21.3333H8.77009C8.96205 21.0105 9.06442 20.6423 9.06663 20.2667V18.1333C9.06442 17.7577 8.96205 17.3895 8.77009 17.0667H9.06663C9.65573 17.0667 10.1333 17.5442 10.1333 18.1333V20.2667Z" fill="black"/>
<path d="M22.9333 1.7482e-05C19.8523 -0.00602763 16.9798 1.55603 15.3103 4.14553C13.6407 6.73503 13.4034 9.99611 14.6805 12.8H3.2C1.43342 12.8018 0.00176394 14.2334 0 16V28.8C0.00176394 30.5666 1.43342 31.9983 3.2 32H23.4667C25.2332 31.9983 26.6649 30.5666 26.6667 28.8V17.3195C30.5593 15.5627 32.6967 11.3263 31.7968 7.15155C30.8969 2.97678 27.204 -0.00284377 22.9333 1.7482e-05ZM29.7691 13.2016L28.4571 12.2832C28.7471 11.7871 28.9684 11.2539 29.1147 10.6982L30.6933 10.9766C30.5002 11.7609 30.1885 12.5113 29.7691 13.2016ZM24.8432 16.8283L24.5648 15.2496C25.1206 15.103 25.654 14.8818 26.1504 14.592L27.0683 15.9035C26.378 16.323 25.6277 16.6343 24.8432 16.8267V16.8283ZM18.7984 15.9019L19.7163 14.5904C20.2127 14.8802 20.7461 15.1014 21.3019 15.248L21.0235 16.8267C20.2389 16.6338 19.4885 16.3219 18.7984 15.9019ZM16.7067 14.08L18.0187 13.1616C18.2674 13.4599 18.5425 13.7351 18.8405 13.984L17.92 15.2934C17.4734 14.9334 17.0666 14.5266 16.7067 14.08ZM14.9333 9.06668C14.9339 8.7791 14.95 8.49175 14.9813 8.20588L16.5627 8.48482C16.5456 8.67682 16.5333 8.87042 16.5333 9.06668C16.5333 9.26295 16.5456 9.45655 16.5627 9.64855L14.9813 9.92748C14.95 9.64161 14.9339 9.35427 14.9333 9.06668ZM16.0976 4.93175L17.4096 5.85015C17.1195 6.34623 16.8983 6.87948 16.752 7.43522L15.1733 7.15682C15.3664 6.37243 15.6781 5.62211 16.0976 4.93175ZM16.752 10.6982C16.8983 11.2539 17.1195 11.7871 17.4096 12.2832L16.0976 13.2016C15.6781 12.5113 15.3664 11.7609 15.1733 10.9766L16.752 10.6982ZM22.352 15.4374C22.544 15.4544 22.7376 15.4667 22.9339 15.4667C23.1301 15.4667 23.3237 15.4544 23.5157 15.4374L23.7941 17.0187C23.2224 17.0827 22.6453 17.0827 22.0736 17.0187L22.352 15.4374ZM22.9333 14.4C19.9878 14.4 17.6 12.0122 17.6 9.06668C17.6 6.12117 19.9878 3.73335 22.9333 3.73335C25.8789 3.73335 28.2667 6.12117 28.2667 9.06668C28.2634 12.0109 25.8775 14.3968 22.9333 14.4ZM19.7163 3.54295L18.7984 2.23148C19.4885 1.81144 20.2389 1.49956 21.0235 1.30668L21.3019 2.88535C20.7461 3.03197 20.2127 3.25318 19.7163 3.54295ZM24.5648 2.88535L24.8432 1.30668C25.6278 1.49956 26.3781 1.81144 27.0683 2.23148L26.1504 3.54295C25.654 3.25318 25.1206 3.03197 24.5648 2.88535ZM30.6933 7.15682L29.1147 7.43522C28.9684 6.87948 28.7471 6.34623 28.4571 5.85015L29.7691 4.93175C30.1885 5.62211 30.5002 6.37243 30.6933 7.15682ZM29.3067 9.64855C29.3237 9.45655 29.336 9.26295 29.336 9.06668C29.336 8.87042 29.3237 8.67682 29.3067 8.48482L30.888 8.20588C30.952 8.77797 30.952 9.3554 30.888 9.92748L29.3067 9.64855ZM29.16 4.05335L27.848 4.97175C27.5993 4.67351 27.3242 4.39827 27.0261 4.14935L27.9467 2.84002C28.3933 3.19999 28.8 3.60675 29.16 4.05335ZM23.7936 1.11468L23.5152 2.69602C23.3232 2.67895 23.1296 2.66668 22.9333 2.66668C22.7371 2.66668 22.5435 2.67895 22.3515 2.69602L22.0731 1.11468C22.6448 1.05069 23.2219 1.05069 23.7936 1.11468ZM17.92 2.84002L18.8384 4.15148C18.5403 4.4004 18.2653 4.67565 18.0165 4.97388L16.7067 4.05335C17.0666 3.60675 17.4734 3.19999 17.92 2.84002ZM25.6 27.7334H1.06667V25.6H25.6V27.7334ZM23.4667 30.9334H3.2C2.02179 30.9334 1.06667 29.9782 1.06667 28.8H25.6C25.6 29.9782 24.6449 30.9334 23.4667 30.9334ZM25.6 24.5334H1.06667V16C1.06667 14.8218 2.02179 13.8667 3.2 13.8667H15.2533C16.9063 16.5181 19.8089 18.1306 22.9333 18.1334C23.8365 18.1227 24.7338 17.9876 25.6 17.7318V24.5334ZM27.9467 15.2934L27.0283 13.9819C27.3263 13.733 27.6014 13.4577 27.8501 13.1595L29.1621 14.0779C28.8016 14.5253 28.3941 14.9328 27.9467 15.2934Z" fill="black"/>
<path d="M23.5424 4.99201C23.1762 4.73712 22.69 4.73712 22.3238 4.99201C21.5718 5.51948 18.656 8.08215 19.2203 10.0912C19.3748 10.7031 19.7882 11.2174 20.3526 11.4997C20.6213 11.631 20.9132 11.7081 21.2118 11.7269L21.1584 11.8469C21.0172 12.1769 21.0514 12.5557 21.2493 12.855C21.4473 13.1544 21.7825 13.3341 22.1414 13.3333H23.7254C24.0839 13.3334 24.4184 13.1534 24.6159 12.8542C24.8133 12.5549 24.8472 12.1765 24.7062 11.8469L24.6528 11.7269C24.9513 11.7081 25.2432 11.631 25.512 11.4997C26.0764 11.2174 26.4898 10.7031 26.6443 10.0912C27.2107 8.08215 24.295 5.51948 23.5424 4.99201ZM25.6198 9.80268C25.5451 10.1226 25.3337 10.3937 25.0416 10.544C24.7092 10.697 24.3285 10.7066 23.9888 10.5707C23.7884 10.4908 23.5596 10.5395 23.4091 10.694C23.2587 10.8486 23.2161 11.0786 23.3014 11.2768L23.728 12.2667H22.144L22.5707 11.2768C22.6559 11.0786 22.6134 10.8486 22.4629 10.694C22.3124 10.5395 22.0836 10.4908 21.8832 10.5707C21.5436 10.7071 21.1627 10.6974 20.8304 10.544C20.5383 10.3937 20.3269 10.1226 20.2523 9.80268C19.935 8.69335 21.8598 6.61975 22.9334 5.86668C24.007 6.61975 25.9318 8.69335 25.6198 9.80268Z" fill="black"/>
<path d="M14.9334 21.3333H13.3334C13.0388 21.3333 12.8 21.5721 12.8 21.8666C12.8 22.1612 13.0388 22.4 13.3334 22.4H14.9334C15.2279 22.4 15.4667 22.1612 15.4667 21.8666C15.4667 21.5721 15.2279 21.3333 14.9334 21.3333Z" fill="black"/>
<path d="M19.2 21.3333H17.6C17.3054 21.3333 17.0667 21.5721 17.0667 21.8666C17.0667 22.1612 17.3054 22.4 17.6 22.4H19.2C19.4945 22.4 19.7333 22.1612 19.7333 21.8666C19.7333 21.5721 19.4945 21.3333 19.2 21.3333Z" fill="black"/>
<path d="M23.4667 21.3333H21.8667C21.5722 21.3333 21.3334 21.5721 21.3334 21.8666C21.3334 22.1612 21.5722 22.4 21.8667 22.4H23.4667C23.7613 22.4 24 22.1612 24 21.8666C24 21.5721 23.7613 21.3333 23.4667 21.3333Z" fill="black"/>
</svg>
