<svg width="24" height="25" viewBox="0 0 24 25" fill="none" xmlns="http://www.w3.org/2000/svg">
<g clip-path="url(#clip0_713_251)">
<path d="M19.4759 15.2119C19.2067 15.4896 19.0851 15.8784 19.1479 16.2599L19.1719 16.4079L19.6199 19.1879L20.0279 21.6879C20.088 22.0468 19.9832 22.4137 19.7427 22.6868C19.5022 22.9598 19.1515 23.1101 18.7879 23.0959H18.7719C18.6824 23.093 18.5936 23.0782 18.5079 23.0519L18.1319 22.9879L16.3999 22.6999L12.3639 20.6079L11.7839 20.9279L10.9799 21.3759L8.14792 22.9439C7.9261 23.0705 7.66948 23.1224 7.41592 23.0919L6.83992 22.9959L5.04392 22.6919H5.03592L4.86792 22.6639L10.9719 2.10792L11.0279 1.91992L13.4279 2.31592V2.31992C13.5048 2.33464 13.5799 2.35744 13.6519 2.38792C13.9359 2.50214 14.1651 2.72129 14.2919 2.99992L14.9199 4.34392L15.9479 6.54392L16.5399 7.80392C16.6679 8.08458 16.9004 8.30418 17.1879 8.41592L19.0279 8.69992L20.1999 8.88392L22.5679 9.27592C22.7021 9.29472 22.8321 9.33668 22.9519 9.39992C23.2909 9.57996 23.5255 9.9089 23.5852 10.288C23.645 10.6672 23.523 11.0523 23.2559 11.3279L19.4759 15.2119Z" fill="#D84315"/>
<path d="M18.2759 15.2117C18.0067 15.4893 17.8851 15.8781 17.9479 16.2597L17.9719 16.4077L18.4199 19.1877L18.8279 21.6877C18.9202 22.2291 18.6337 22.7643 18.1319 22.9877L16.3999 22.6997L12.3639 20.6077L11.7839 20.9277L11.1639 20.6077L9.77992 21.3757L6.94792 22.9437C6.91356 22.9642 6.87741 22.9816 6.83992 22.9957L5.04392 22.6917H5.03592L4.86792 22.6637L10.9719 2.10767L12.2279 2.31567V2.31967C12.3048 2.33439 12.3799 2.35718 12.4519 2.38767C12.7359 2.50189 12.9651 2.72103 13.0919 2.99967L13.7199 4.34367L14.7479 6.54367L15.3399 7.80367C15.4679 8.08432 15.7004 8.30392 15.9879 8.41567L18.9999 8.88367L21.3679 9.27567C21.5021 9.29447 21.6321 9.33642 21.7519 9.39967C22.0909 9.5797 22.3255 9.90865 22.3852 10.2878C22.445 10.6669 22.323 11.0521 22.0559 11.3277L18.2759 15.2117Z" fill="#FF5722"/>
<path d="M17.312 23.0515L17.572 23.0955C17.4838 23.0926 17.3963 23.0778 17.312 23.0515Z" fill="#FF5722"/>
<path d="M20.8558 10.9277L19.1998 12.6277L18.7998 13.0397L18.3998 13.4517L17.1998 14.6837L17.0758 14.8117C16.953 14.9412 16.8589 15.0952 16.7998 15.2637C16.7325 15.4548 16.7146 15.6598 16.7478 15.8597L16.7718 16.0077L17.1998 18.6637L17.2198 18.7877L17.6278 21.2877C17.6874 21.6444 17.5842 22.0092 17.3464 22.2818C17.1087 22.5544 16.7614 22.7062 16.3998 22.6957C16.2074 22.6909 16.0192 22.6387 15.8518 22.5437L15.1998 22.1837L14.7998 21.9597L14.3998 21.7397L14.3158 21.6917L13.1998 21.0717L12.7998 20.8517L12.3998 20.6277L12.2398 20.5397L11.3838 20.0677C11.3244 20.0356 11.2629 20.0076 11.1998 19.9837C10.9409 19.893 10.6588 19.893 10.3998 19.9837C10.3367 20.0076 10.2752 20.0356 10.2158 20.0677L9.19983 20.6317L8.79983 20.8517L8.57983 20.9757L8.39983 21.0757L7.19983 21.7397L6.79983 21.9597L6.39983 22.1837L5.74783 22.5437C5.57977 22.6376 5.39214 22.691 5.19983 22.6997C4.90873 22.7064 4.62488 22.6084 4.39983 22.4237C4.30778 22.349 4.22695 22.2614 4.15983 22.1637C3.98483 21.9076 3.91733 21.593 3.97183 21.2877L4.38783 18.7117L4.39983 18.6397L4.79983 16.1797L4.85183 15.8597C4.88291 15.6624 4.86505 15.4605 4.79983 15.2717C4.77142 15.1801 4.73107 15.0927 4.67983 15.0117C4.63488 14.9398 4.5826 14.8728 4.52383 14.8117L4.39983 14.6837L3.19983 13.4557L3.10783 13.3597L2.79983 13.0437L2.39983 12.6317L1.51583 11.7237L0.743826 10.9277C0.342615 10.5187 0.28255 9.8847 0.599826 9.40767C0.691358 9.26682 0.812933 9.14798 0.955826 9.05967C1.09657 8.96221 1.25825 8.89918 1.42783 8.87567L2.39983 8.72367L2.79983 8.66367L3.19983 8.60367L4.39983 8.41967L4.79983 8.35967L4.89183 8.34367L5.19983 8.29567L6.39983 8.11567L6.54783 8.09167C6.63445 8.07807 6.71909 8.05388 6.79983 8.01967C6.94866 7.96325 7.08467 7.87756 7.19983 7.76767C7.30669 7.66301 7.39346 7.53963 7.45583 7.40367L8.39983 5.38767L8.79983 4.53167L8.88383 4.35167L9.19983 3.67567L9.70383 2.59967C9.83836 2.30263 10.0906 2.07507 10.3998 1.97167C10.6579 1.87705 10.9409 1.87563 11.1998 1.96767C11.2158 1.97567 11.2358 1.97967 11.2518 1.98767C11.5358 2.1019 11.765 2.32104 11.8918 2.59967L12.3998 3.68767L12.5198 3.94367L12.7998 4.54367L13.1998 5.39967L13.5478 6.14367L14.1398 7.40367C14.204 7.53957 14.2921 7.66286 14.3998 7.76767C14.5146 7.87806 14.6507 7.96381 14.7998 8.01967C14.8684 8.05118 14.9411 8.07273 15.0158 8.08367C15.0278 8.08767 15.0398 8.08767 15.0518 8.09167L15.1998 8.11567L16.3998 8.29967L16.7998 8.35967L17.1998 8.41967L17.8118 8.51167L18.3998 8.60367L18.7998 8.66367L19.1998 8.72367L20.1678 8.87567C20.302 8.89447 20.432 8.93643 20.5518 8.99967C20.8908 9.17971 21.1254 9.50866 21.1851 9.88778C21.2449 10.2669 21.1229 10.6521 20.8558 10.9277Z" fill="#FEC108"/>
<path d="M20.8558 10.9277L19.1998 12.6277L18.7998 13.0397L18.3998 13.4517L18.2718 13.5837C17.9078 13.4437 17.5478 13.3157 17.1998 13.2037C16.9278 13.1197 16.6598 13.0397 16.3998 12.9677C15.9878 12.8597 15.5878 12.7717 15.1998 12.6997C14.9278 12.6477 14.6598 12.6077 14.3998 12.5757C13.9878 12.5237 13.5878 12.4917 13.1998 12.4797C12.9278 12.4717 12.6598 12.4717 12.3998 12.4797C11.9983 12.4918 11.5978 12.5252 11.1998 12.5797C10.9238 12.6197 10.6598 12.6677 10.3998 12.7237C9.99333 12.811 9.59257 12.9232 9.19983 13.0597C8.92796 13.1498 8.66093 13.2539 8.39983 13.3717C7.9871 13.5512 7.58628 13.757 7.19983 13.9877C6.91983 14.1517 6.65183 14.3277 6.39983 14.5077C5.98 14.8078 5.57923 15.1338 5.19983 15.4837C5.07983 15.5957 4.96783 15.7037 4.85583 15.8157C4.86783 15.716 4.86783 15.6153 4.85583 15.5157C4.85648 15.5035 4.85513 15.4914 4.85183 15.4797C4.84783 15.4677 4.84783 15.4557 4.84383 15.4437C4.83483 15.385 4.82009 15.3274 4.79983 15.2717C4.77142 15.1801 4.73107 15.0927 4.67983 15.0117C4.63488 14.9398 4.5826 14.8728 4.52383 14.8117L4.39983 14.6837L3.19983 13.4557L3.10783 13.3597L2.79983 13.0437L2.39983 12.6317L1.51583 11.7237L0.743826 10.9277C0.342615 10.5187 0.28255 9.88469 0.599826 9.40767C0.691358 9.26682 0.812933 9.14798 0.955826 9.05967C1.09657 8.9622 1.25825 8.89918 1.42783 8.87567L2.39983 8.72367L2.79983 8.66367L3.19983 8.60367L4.39983 8.41967L4.79983 8.35967L4.89183 8.34367L5.19983 8.29567L6.39983 8.11567L6.54783 8.09167C6.63445 8.07806 6.71909 8.05388 6.79983 8.01967C6.94866 7.96325 7.08467 7.87756 7.19983 7.76767C7.30669 7.66301 7.39346 7.53963 7.45583 7.40367L8.39983 5.38767L8.79983 4.53167L8.88383 4.35167L9.19983 3.67567L9.70383 2.59967C9.83836 2.30263 10.0906 2.07507 10.3998 1.97167C10.6579 1.87705 10.9409 1.87563 11.1998 1.96767C11.2158 1.97567 11.2358 1.97967 11.2518 1.98767C11.5358 2.1019 11.765 2.32104 11.8918 2.59967L12.3998 3.68767L12.5198 3.94367L12.7998 4.54367L13.1998 5.39967L13.5478 6.14367L14.1398 7.40367C14.204 7.53957 14.2921 7.66286 14.3998 7.76767C14.5146 7.87805 14.6507 7.96381 14.7998 8.01967C14.8684 8.05118 14.9411 8.07273 15.0158 8.08367C15.0278 8.08767 15.0398 8.08767 15.0518 8.09167L15.1998 8.11567L16.3998 8.29967L16.7998 8.35967L17.1998 8.41967L17.8118 8.51167L18.3998 8.60367L18.7998 8.66367L19.1998 8.72367L20.1678 8.87567C20.302 8.89447 20.432 8.93643 20.5518 8.99967C20.8908 9.17971 21.1254 9.50865 21.1851 9.88778C21.2449 10.2669 21.1229 10.6521 20.8558 10.9277Z" fill="#FFDC00"/>
<path d="M18.8003 23.4997C18.7785 23.4996 18.7567 23.4979 18.7351 23.4944L18.7316 23.4938C18.6237 23.4881 18.5167 23.4703 18.4128 23.4407L16.3343 23.0942C16.1914 23.0729 16.0711 22.9761 16.0196 22.8411C15.9681 22.7061 15.9934 22.5538 16.0858 22.4427C16.1783 22.3316 16.3235 22.279 16.4656 22.3051L18.8167 22.6971C19.0582 22.7024 19.2894 22.5998 19.4473 22.4171C19.6053 22.2345 19.6736 21.9909 19.6335 21.7528L18.7531 16.3231C18.6686 15.8176 18.8299 15.302 19.1875 14.9348L22.9691 11.0487C23.1509 10.8657 23.2334 10.6062 23.1906 10.3518C23.1508 10.0971 22.9937 9.87576 22.7663 9.75414C22.6866 9.71202 22.6002 9.68407 22.5109 9.67155L20.1343 9.27702L17.1263 8.81098C17.0987 8.80669 17.0716 8.79949 17.0455 8.7895C16.6599 8.64144 16.348 8.34793 16.1767 7.97214L13.9296 3.16898C13.8454 2.98227 13.6923 2.83531 13.5023 2.75882C13.4519 2.73704 13.3992 2.72094 13.3453 2.71082C13.3327 2.7081 13.3207 2.70498 13.3089 2.70126L10.9628 2.31414C10.7448 2.27811 10.5973 2.07218 10.6333 1.85418C10.6694 1.63619 10.8753 1.48867 11.0933 1.5247L13.4933 1.9207C13.5191 1.92491 13.5443 1.93172 13.5687 1.94102C13.6531 1.96039 13.7354 1.98752 13.8148 2.02206C14.1867 2.17584 14.4867 2.46445 14.6548 2.83006L16.9021 7.63318C16.9807 7.80817 17.1206 7.94835 17.2954 8.0273L20.2614 8.4869L22.6337 8.88082C22.8109 8.90679 22.9824 8.96288 23.1407 9.04666C23.5897 9.28593 23.9006 9.72177 23.9807 10.2242C24.0632 10.7279 23.9009 11.2408 23.5436 11.6054L19.7631 15.4902C19.5822 15.6764 19.5004 15.9374 19.5428 16.1935L20.4233 21.623C20.5045 22.1042 20.3619 22.5962 20.0358 22.9593C19.7316 23.2983 19.2987 23.4935 18.8432 23.4972C18.8289 23.4989 18.8148 23.4997 18.8003 23.4997Z" fill="black"/>
<path d="M7.55943 23.5002C7.49586 23.5002 7.43235 23.4964 7.36923 23.489L4.99891 23.0898C4.98875 23.0889 4.97891 23.0879 4.97039 23.0863L4.80239 23.0583C4.65976 23.0367 4.53984 22.9399 4.48855 22.8051C4.43725 22.6702 4.46254 22.5182 4.55471 22.4072C4.64689 22.2963 4.79167 22.2435 4.93363 22.2692L5.08087 22.2937C5.09143 22.2946 5.10159 22.2958 5.11059 22.2973L7.48259 22.6973C7.64542 22.7127 7.80901 22.6772 7.95087 22.5958L12.17 20.2581C12.3632 20.1509 12.6067 20.2206 12.7139 20.4138C12.8211 20.6069 12.7515 20.8505 12.5583 20.9577L8.34187 23.2937C8.10332 23.4291 7.83372 23.5002 7.55943 23.5002Z" fill="black"/>
<path d="M5.173 23.1003C4.63543 23.0983 4.13311 22.8324 3.82924 22.3889C3.59685 22.0473 3.50648 21.6286 3.57724 21.2215L4.457 15.7961C4.47785 15.6636 4.46564 15.528 4.42144 15.4013C4.40224 15.3383 4.37479 15.2781 4.3398 15.2223C4.3087 15.1733 4.27272 15.1276 4.2324 15.0859L0.457003 11.2065C-0.0741232 10.6634 -0.154183 9.82319 0.264803 9.1895C0.390039 8.99783 0.55611 8.83623 0.751123 8.71626C0.935741 8.59193 1.1463 8.51138 1.36676 8.48074L6.48396 7.69714C6.53597 7.6893 6.58685 7.67527 6.63552 7.65534C6.74205 7.61681 6.8397 7.55715 6.9226 7.47994C6.99407 7.40925 7.05193 7.32603 7.09332 7.23442L9.34176 2.43042C9.52315 2.0344 9.8604 1.73114 10.2734 1.5927C10.6188 1.4711 10.9954 1.47139 11.3406 1.5935C11.3535 1.59858 11.3664 1.60406 11.3789 1.6103C11.3958 1.61402 11.4121 1.62014 11.4273 1.62846C11.7941 1.78255 12.0894 2.06897 12.2546 2.43082L14.5019 7.23394C14.5465 7.328 14.6077 7.41318 14.6828 7.4853C14.7572 7.5556 14.845 7.61021 14.941 7.64586C14.9842 7.66676 15.0303 7.68129 15.0777 7.68902C15.0896 7.69076 15.1015 7.6931 15.1132 7.69602L15.1265 7.69898L20.23 8.48098C20.4085 8.50689 20.5812 8.56318 20.7406 8.64742C21.1896 8.88669 21.5005 9.32253 21.5806 9.82494C21.663 10.3287 21.5007 10.8416 21.1435 11.2062L21.1427 11.2072L17.3638 15.0902C17.2814 15.177 17.2183 15.2802 17.1786 15.3931C17.1328 15.5229 17.1207 15.6622 17.1435 15.798L18.0232 21.2236C18.1021 21.699 17.9638 22.1848 17.6463 22.5473C17.3289 22.9099 16.8656 23.1112 16.384 23.0958C16.129 23.0887 15.8797 23.0193 15.6578 22.8936L11.1906 20.4182C11.1482 20.3956 11.1043 20.3757 11.0593 20.3587C10.8911 20.302 10.7089 20.302 10.5406 20.3587C10.4937 20.3764 10.448 20.3973 10.4039 20.4211L5.94136 22.8942C5.71936 23.0183 5.47142 23.0886 5.21736 23.0997C5.20264 23.1001 5.18786 23.1003 5.173 23.1003ZM10.8 2.30006C10.7114 2.29981 10.6235 2.31563 10.5406 2.34674C10.3294 2.41388 10.1568 2.56781 10.066 2.76998L7.81796 7.5737C7.73506 7.75399 7.61973 7.91751 7.47772 8.0561C7.32336 8.20374 7.14082 8.31874 6.941 8.39422C6.83798 8.43733 6.7302 8.46801 6.61992 8.48562L1.4898 9.27114C1.38079 9.2855 1.27667 9.32523 1.1858 9.38714C1.08318 9.4484 0.995931 9.53231 0.930723 9.63246C0.718134 9.95201 0.759945 10.3771 1.03072 10.6491L4.8112 14.5338C4.89023 14.6159 4.96053 14.706 5.02096 14.8025C5.08982 14.9126 5.14406 15.0311 5.18232 15.1551C5.26644 15.4019 5.28857 15.6657 5.24676 15.9231L4.36676 21.3516C4.32881 21.5558 4.37319 21.7666 4.4902 21.9381C4.53604 22.0048 4.59128 22.0645 4.6542 22.1153C4.80424 22.2396 4.99425 22.3052 5.189 22.3001C5.31716 22.2934 5.44203 22.2572 5.55384 22.1942L10.0218 19.7182C10.0985 19.6767 10.1778 19.6403 10.2593 19.6094C10.6091 19.4856 10.9908 19.4856 11.3406 19.6094C11.4199 19.6394 11.4972 19.6747 11.5718 19.7149L16.0453 22.1938C16.1561 22.2576 16.2811 22.2929 16.409 22.2963C16.6056 22.3032 16.798 22.2377 16.9496 22.1123C17.1768 21.9303 17.2858 21.6381 17.2332 21.3517L16.3532 15.9234C16.3097 15.6566 16.3341 15.3831 16.424 15.1281C16.5014 14.9082 16.6244 14.7071 16.7849 14.538L20.5693 10.649C20.751 10.466 20.8335 10.2066 20.7908 9.9523C20.751 9.69754 20.5939 9.47624 20.3665 9.35462C20.2868 9.3125 20.2003 9.28455 20.111 9.27202L14.988 8.48698C14.9762 8.48502 14.9642 8.4825 14.9524 8.47954L14.943 8.47742C14.8345 8.4604 14.7289 8.42824 14.6294 8.3819C14.44 8.3085 14.2674 8.19756 14.122 8.05574C13.9786 7.91593 13.8615 7.75154 13.7762 7.57038L11.5296 2.76922C11.4453 2.58256 11.2922 2.43559 11.1023 2.35886C11.084 2.35242 11.0668 2.34614 11.0508 2.3393C10.97 2.3121 10.8852 2.29883 10.8 2.30006Z" fill="black"/>
</g>
<defs>
<clipPath id="clip0_713_251">
<rect width="24" height="24" fill="white" transform="translate(0 0.5)"/>
</clipPath>
</defs>
</svg>
