<svg width="32" height="32" viewBox="0 0 32 32" fill="none" xmlns="http://www.w3.org/2000/svg">
<g clip-path="url(#clip0_712_5633)">
<path d="M27.8389 13.484C27.6816 13.2167 27.4296 13.0266 27.1293 12.9489L21.419 11.4698V5.16148C21.419 4.52112 20.898 4.0002 20.2577 4.0002H11.7416C11.1013 4.0002 10.5804 4.52112 10.5804 5.16148V10.8727L4.7839 12.864C4.17837 13.072 3.85498 13.7339 4.06292 14.3396L8.08736 26.0546C8.18815 26.348 8.39711 26.5845 8.67588 26.7207C8.83703 26.7994 9.01038 26.8392 9.18471 26.8392C9.31174 26.8392 9.43933 26.8181 9.56299 26.7756L12.4941 25.7687C13.1125 27.0856 14.451 28.0001 15.9996 28.0001C17.4062 28.0001 18.6397 27.2457 19.3176 26.1206L23.4409 27.1886C23.538 27.2137 23.6363 27.2262 23.7341 27.2262C23.9386 27.2262 24.1402 27.1717 24.3211 27.0652C24.5884 26.9079 24.7785 26.6559 24.8563 26.3556L27.9622 14.3643C28.0401 14.064 27.9963 13.7514 27.8389 13.484ZM21.419 16.8828L21.7727 16.6151L22.9431 19.4621L20.5484 21.3744L19.453 18.7098H20.2577C20.898 18.7098 21.419 18.1889 21.419 17.5485V16.8828ZM11.3545 5.16148C11.3545 4.94806 11.5282 4.77438 11.7416 4.77438H20.2577C20.4711 4.77438 20.6448 4.94806 20.6448 5.16148V17.5485C20.6448 17.7619 20.4711 17.9355 20.2577 17.9355H11.7416C11.5282 17.9355 11.3545 17.7619 11.3545 17.5485V5.16148ZM17.5481 24.1291C17.5481 24.9829 16.8535 25.6775 15.9997 25.6775C15.1459 25.6775 14.4513 24.9829 14.4513 24.1291C14.4513 23.2753 15.1459 22.5807 15.9997 22.5807C16.8535 22.5807 17.5481 23.2753 17.5481 24.1291ZM15.6126 21.0574V21.8394C15.2603 21.8988 14.9349 22.0377 14.6551 22.2371L14.1023 21.6843C14.5306 21.3511 15.0481 21.1281 15.6126 21.0574ZM13.5549 22.2317L14.1077 22.7845C13.9083 23.0642 13.7694 23.3896 13.71 23.7419H12.928C12.9987 23.1775 13.2218 22.66 13.5549 22.2317ZM13.71 24.5162C13.7694 24.8685 13.9083 25.1939 14.1077 25.4736L13.5549 26.0264C13.2218 25.5981 12.9988 25.0806 12.928 24.5161H13.71V24.5162ZM14.6551 26.0211C14.9348 26.2205 15.2603 26.3594 15.6126 26.4188V27.2008C15.0481 27.1301 14.5306 26.907 14.1023 26.5739L14.6551 26.0211ZM16.3868 26.4188C16.7391 26.3594 17.0645 26.2205 17.3442 26.0211L17.897 26.5739C17.4688 26.907 16.9513 27.1301 16.3867 27.2008L16.3868 26.4188ZM17.8917 25.4736C18.0911 25.1939 18.23 24.8685 18.2894 24.5162H19.0714C19.0007 25.0806 18.7777 25.5981 18.4445 26.0264L17.8917 25.4736ZM18.2894 23.742C18.23 23.3897 18.0911 23.0643 17.8917 22.7845L18.4445 22.2318C18.7777 22.66 19.0006 23.1775 19.0714 23.742L18.2894 23.742ZM17.3443 22.2371C17.0646 22.0377 16.7391 21.8987 16.3868 21.8394V21.0574C16.9513 21.1281 17.4688 21.3511 17.8971 21.6843L17.3443 22.2371ZM11.7416 18.7097H12.7686L12.1434 19.9894C12.0791 20.1208 11.9676 20.2193 11.8294 20.2668C11.6912 20.3143 11.5426 20.3051 11.4112 20.2409L9.66489 19.3876C9.20514 19.163 8.86033 18.7727 8.69407 18.2887C8.51824 17.7769 8.79161 17.2174 9.30339 17.0416C9.55136 16.9564 9.81766 16.9729 10.0532 17.088L10.5804 17.3318V17.5485C10.5804 18.1888 11.1014 18.7097 11.7416 18.7097ZM9.31155 26.0434C9.21377 26.0769 9.10872 26.0705 9.01586 26.0251C8.92296 25.9797 8.85335 25.9008 8.81969 25.803L4.7952 14.088C4.72587 13.8861 4.83368 13.6654 5.03548 13.5961L10.5804 11.6912V16.4788L10.3891 16.3904C9.96874 16.1862 9.49403 16.1575 9.05186 16.3093C8.13635 16.6238 7.64735 17.6246 7.96183 18.5401C8.19532 19.2197 8.67944 19.7677 9.3251 20.0832L11.0714 20.9364C11.2548 21.0261 11.4521 21.0713 11.6505 21.0713C11.795 21.0713 11.9402 21.0472 12.081 20.9989C12.4147 20.8843 12.684 20.6464 12.8389 20.3293L13.6302 18.7098H15.6404L15.2188 20.3373C13.4574 20.6995 12.1286 22.2621 12.1286 24.1291C12.1286 24.4422 12.167 24.7464 12.2375 25.0382L9.31155 26.0434ZM27.2129 14.1702L24.1069 26.1615C24.081 26.2616 24.0176 26.3456 23.9285 26.398C23.8394 26.4505 23.7352 26.4651 23.6351 26.4391L19.6528 25.4076C19.7934 25.0071 19.8707 24.5771 19.8707 24.1291C19.8707 22.0078 18.1553 20.2804 16.0388 20.2592L16.4402 18.7098H18.6159L20.2249 22.6234L23.8799 19.7048L22.1067 15.3914L21.4191 15.9119V12.2696L26.9352 13.6984C27.0354 13.7243 27.1194 13.7877 27.1718 13.8767C27.2242 13.9658 27.2388 14.07 27.2129 14.1702Z" fill="#4D3C6A"/>
<path d="M23.9238 14.5177L25.4227 14.906L25.0345 16.4049L25.7839 16.599L26.3662 14.3507L24.118 13.7683L23.9238 14.5177Z" fill="#4D3C6A"/>
<path d="M22.8992 24.6489L21.4003 24.2606L21.2062 25.0101L23.4545 25.5925L24.0369 23.3441L23.2875 23.15L22.8992 24.6489Z" fill="#4D3C6A"/>
<path d="M12.9031 11.8612V11.9218C12.9031 12.8899 13.6907 13.6775 14.6587 13.6775C14.7191 13.6775 14.7791 13.6744 14.8385 13.6683V13.6775C14.8385 14.1044 15.1859 14.4517 15.6127 14.4517H16.3869C16.8138 14.4517 17.1611 14.1043 17.1611 13.6775V13.6683C17.2206 13.6744 17.2805 13.6775 17.3409 13.6775C18.309 13.6775 19.0966 12.8899 19.0966 11.9218V11.8612C19.0966 11.4424 18.9464 11.0366 18.6739 10.7186L16.9453 8.70192C16.7666 8.49337 16.5383 8.35143 16.2851 8.29153C15.8345 8.18484 15.3676 8.33643 15.0669 8.6872L13.3257 10.7186C13.0532 11.0366 12.9031 11.4423 12.9031 11.8612ZM13.6773 11.8612C13.6773 11.6271 13.7612 11.4002 13.9136 11.2224L15.6548 9.19106C15.7661 9.06126 15.9391 9.00525 16.1068 9.04495C16.1982 9.06651 16.2872 9.12365 16.3576 9.20573L18.0861 11.2224C18.2385 11.4002 18.3225 11.627 18.3225 11.8612V11.9218C18.3225 12.463 17.8822 12.9032 17.341 12.9032C17.2003 12.9032 17.0636 12.8734 16.9345 12.8147C16.8146 12.7602 16.6753 12.7702 16.5646 12.8415C16.4539 12.9127 16.387 13.0353 16.387 13.167V13.6775H15.6128V13.1671C15.6128 13.0354 15.5459 12.9128 15.4352 12.8416C15.3717 12.8008 15.299 12.78 15.2257 12.78C15.1712 12.78 15.1165 12.7915 15.0654 12.8148C14.9363 12.8735 14.7995 12.9033 14.6589 12.9033C14.1177 12.9033 13.6774 12.463 13.6774 11.9219V11.8612H13.6773Z" fill="#4D3C6A"/>
<path d="M12.903 6.32268H14.4513V5.54849H12.1288V7.87105H12.903V6.32268Z" fill="#4D3C6A"/>
<path d="M14.4513 16.3871H12.903V14.8387H12.1288V17.1613H14.4513V16.3871Z" fill="#4D3C6A"/>
<path d="M19.0965 7.87105H19.8707V5.54849H17.5481V6.32268H19.0965V7.87105Z" fill="#4D3C6A"/>
<path d="M19.0965 16.3871H17.5481V17.1613H19.8707V14.8387H19.0965V16.3871Z" fill="#4D3C6A"/>
<path d="M8.10146 14.18L7.84988 13.4478L5.65332 14.2025L6.40787 16.399L7.1401 16.1475L6.63704 14.6831L8.10146 14.18Z" fill="#4D3C6A"/>
<path d="M9.90688 24.2016L9.40386 22.7372L8.67163 22.9888L9.42627 25.1853L11.6228 24.4307L11.3713 23.6985L9.90688 24.2016Z" fill="#4D3C6A"/>
</g>
<defs>
<clipPath id="clip0_712_5633">
<rect width="24" height="24" fill="white" transform="translate(4 4)"/>
</clipPath>
</defs>
</svg>
