<svg width="32" height="32" viewBox="0 0 32 32" fill="none" xmlns="http://www.w3.org/2000/svg">
<g clip-path="url(#clip0_712_5660)">
<path d="M16.5 12.129C17.1404 12.129 17.6613 11.608 17.6613 10.9677C17.6613 10.3274 17.1404 9.80644 16.5 9.80644C15.8597 9.80644 15.3387 10.3274 15.3387 10.9677C15.3387 11.608 15.8597 12.129 16.5 12.129ZM16.5 10.5806C16.7134 10.5806 16.8871 10.7543 16.8871 10.9677C16.8871 11.1811 16.7134 11.3548 16.5 11.3548C16.2866 11.3548 16.1129 11.1811 16.1129 10.9677C16.1129 10.7543 16.2866 10.5806 16.5 10.5806Z" fill="#4D3C6A"/>
<path d="M25.6125 14.4836C23.9608 13.7509 21.6982 13.2343 19.2097 13.0186V12.129H22.6946C23.0481 12.5988 23.61 12.9032 24.2419 12.9032C25.3091 12.9032 26.1774 12.0349 26.1774 10.9677C26.1774 9.90054 25.3091 9.03228 24.2419 9.03228C23.6101 9.03228 23.0481 9.33668 22.6946 9.80646H19.2097V9.51078C19.2097 8.91307 18.9184 8.36829 18.4355 8.03778V6.70967C18.4355 6.0476 17.6034 5.54839 16.5 5.54839C15.3966 5.54839 14.5645 6.0476 14.5645 6.70967V8.03768C14.0816 8.3682 13.7903 8.91303 13.7903 9.51068V9.80642H10.3054C9.95194 9.33664 9.38995 9.03223 8.75808 9.03223C7.69087 9.03223 6.82261 9.90049 6.82261 10.9677C6.82261 12.0349 7.69087 12.9032 8.75808 12.9032C9.38991 12.9032 9.95194 12.5988 10.3054 12.129H13.7903V13.0186C11.3018 13.2343 9.03928 13.7508 7.38755 14.4835C5.49853 15.3216 4.5 16.3814 4.5 17.5484V21.8065C4.5 23.1181 5.79811 24.3165 8.15522 25.1808C10.3902 26.0003 13.3538 26.4516 16.5 26.4516C19.6462 26.4516 22.6098 26.0003 24.8448 25.1808C27.2019 24.3165 28.5 23.1181 28.5 21.8065V17.5484C28.5 16.3814 27.5015 15.3216 25.6125 14.4836ZM11.8329 17.1613H6.87014C7.29159 16.9165 7.78847 16.6856 8.35134 16.4755C9.36534 16.097 10.5517 15.7968 11.8537 15.5851C11.5995 15.8245 11.4677 16.0938 11.4677 16.3871C11.4677 16.677 11.5998 16.9352 11.8329 17.1613ZM5.83828 17.9355H13.379C13.839 18.0669 14.3558 18.1652 14.8998 18.2299L10.8653 20.8788C9.98072 20.6949 9.15909 20.4662 8.4217 20.1958C6.96684 19.6624 5.96386 19.0064 5.52478 18.3233C5.60888 18.1928 5.71364 18.0634 5.83828 17.9355ZM21.1463 15.5851C22.4482 15.7968 23.6346 16.097 24.6486 16.4755C25.2115 16.6856 25.7083 16.9164 26.1298 17.1613H21.1671C21.4001 16.9352 21.5322 16.6769 21.5322 16.3871C21.5323 16.0938 21.4005 15.8245 21.1463 15.5851ZM16.1129 21.4167C14.6649 21.3993 13.265 21.2841 11.9698 21.0798L16.1129 18.3596V21.4167ZM16.8871 18.3474L19.9928 20.2681C20.3151 20.6906 20.8068 20.9767 21.3658 21.0246C19.9783 21.2635 18.4609 21.3978 16.887 21.4167V18.3474H16.8871ZM21.5323 17.9355C22.1726 17.9355 22.6935 18.4564 22.6935 19.0968C22.6935 19.7371 22.1726 20.258 21.5323 20.258C20.892 20.258 20.371 19.7371 20.371 19.0968C20.371 18.4565 20.892 17.9355 21.5323 17.9355ZM23.4677 19.0968C23.4677 18.6614 23.3232 18.2592 23.0796 17.9355H27.1616C27.2863 18.0634 27.391 18.1929 27.4752 18.3232C27.0361 19.0064 26.0332 19.6624 24.5783 20.1958C23.9194 20.4374 23.193 20.6456 22.4148 20.8184C23.0393 20.497 23.4677 19.8462 23.4677 19.0968ZM19.6211 17.9355H19.985C19.7414 18.2592 19.5968 18.6614 19.5968 19.0968C19.5968 19.1022 19.5972 19.1076 19.5972 19.1131L18.1577 18.2229C18.6807 18.1582 19.1774 18.0622 19.6211 17.9355ZM8.15522 20.9227C10.3902 21.7422 13.3538 22.1936 16.5 22.1936C19.6462 22.1936 22.6098 21.7422 24.8448 20.9227C26.1294 20.4517 27.0987 19.8813 27.7155 19.2475C27.6014 20.1473 26.4727 21.0496 24.5783 21.7443C22.4265 22.5332 19.5576 22.9677 16.5 22.9677C13.4424 22.9677 10.5735 22.5332 8.42166 21.7442C6.52716 21.0496 5.39859 20.1472 5.28445 19.2474C5.90128 19.8812 6.87052 20.4517 8.15522 20.9227ZM25.2985 15.1912C26.7672 15.8427 27.6166 16.6199 27.7159 17.3954C27.1094 16.7734 26.1617 16.2139 24.9193 15.7502C23.3409 15.161 21.373 14.7541 19.2097 14.5671V13.7957C21.588 14.0074 23.7375 14.4987 25.2985 15.1912ZM24.2419 9.80646C24.8822 9.80646 25.4032 10.3274 25.4032 10.9677C25.4032 11.6081 24.8822 12.129 24.2419 12.129C23.6016 12.129 23.0806 11.6081 23.0806 10.9677C23.0806 10.3274 23.6016 9.80646 24.2419 9.80646ZM22.3454 10.5807C22.3199 10.7058 22.3065 10.8352 22.3065 10.9677C22.3065 11.1003 22.3199 11.2297 22.3454 11.3548H19.2097V10.5807H22.3454ZM16.5 6.32257C17.2494 6.32257 17.6613 6.61334 17.6613 6.70967C17.6613 6.80599 17.2494 7.09676 16.5 7.09676C15.7506 7.09676 15.3387 6.80599 15.3387 6.70967C15.3387 6.61334 15.7506 6.32257 16.5 6.32257ZM14.5645 9.51078C14.5645 9.12443 14.7792 8.77714 15.1247 8.60435L15.3387 8.49734V7.65124C15.658 7.79042 16.057 7.87104 16.5 7.87104C16.943 7.87104 17.342 7.79042 17.6613 7.65124V8.49734L17.8753 8.60431C18.2208 8.77714 18.4355 9.12443 18.4355 9.51078V15.5802C18.3216 15.7146 17.6572 16.0001 16.5 16.0001C15.3428 16.0001 14.6784 15.7146 14.5645 15.5802V9.51078ZM16.5 16.7742C17.8487 16.7742 19.2097 16.4151 19.2097 15.6129V15.5284C20.2734 15.7982 20.758 16.1771 20.758 16.3872C20.758 16.7813 19.2551 17.5484 16.5 17.5484C13.7448 17.5484 12.2419 16.7813 12.2419 16.3872C12.2419 16.1772 12.7265 15.7982 13.7902 15.5284V15.6129C13.7903 16.4151 15.1513 16.7742 16.5 16.7742ZM8.75808 12.129C8.11777 12.129 7.5968 11.6081 7.5968 10.9677C7.5968 10.3274 8.11777 9.80646 8.75808 9.80646C9.39839 9.80646 9.91936 10.3274 9.91936 10.9677C9.91936 11.6081 9.39839 12.129 8.75808 12.129ZM10.6546 11.3548C10.6801 11.2297 10.6935 11.1003 10.6935 10.9677C10.6935 10.8352 10.6801 10.7058 10.6546 10.5807H13.7903V11.3548H10.6546ZM7.70147 15.1912C9.26255 14.4987 11.412 14.0074 13.7903 13.7957V14.5671C11.627 14.7541 9.65911 15.161 8.08069 15.7502C6.83831 16.2139 5.89059 16.7734 5.28408 17.3954C5.38331 16.6199 6.23278 15.8427 7.70147 15.1912ZM27.7258 21.8065C27.7258 22.7555 26.5786 23.7205 24.5783 24.4539C22.4265 25.2429 19.5576 25.6774 16.5 25.6774C13.4424 25.6774 10.5735 25.2429 8.42166 24.4539C6.42136 23.7205 5.27419 22.7555 5.27419 21.8065V20.7852C5.8905 21.4232 6.86334 21.9974 8.15522 22.4711C10.3902 23.2906 13.3538 23.7419 16.5 23.7419C19.6462 23.7419 22.6098 23.2906 24.8448 22.4711C26.1366 21.9974 27.1095 21.4232 27.7258 20.7852V21.8065Z" fill="#4D3C6A"/>
</g>
<defs>
<clipPath id="clip0_712_5660">
<rect width="24" height="24" fill="white" transform="translate(4.5 4)"/>
</clipPath>
</defs>
</svg>
