<svg width="32" height="32" viewBox="0 0 32 32" fill="none" xmlns="http://www.w3.org/2000/svg">
<path d="M24.3288 9.38124C22.8516 7.62932 20.8589 6.38877 18.6348 5.83667C18.657 5.72281 18.6465 5.60501 18.6045 5.49688C18.5731 5.41744 18.5253 5.34551 18.4642 5.28579C18.4031 5.22607 18.3301 5.17989 18.25 5.15027C16.7975 4.61902 15.2038 4.61896 13.7513 5.15008C13.6164 5.19872 13.5033 5.29396 13.4324 5.41863C13.3615 5.54329 13.3375 5.68918 13.3647 5.82999C11.3082 6.3403 9.4461 7.44131 8.00793 8.99727C6.56976 10.5532 5.61843 12.4961 5.27125 14.5862C5.174 15.1813 5.12509 15.7833 5.125 16.3862C5.125 16.5625 5.12875 16.735 5.13625 16.9037C5.13723 16.9531 5.14825 17.0018 5.16863 17.0468C5.18901 17.0918 5.21833 17.1322 5.25481 17.1656C5.29129 17.1989 5.33416 17.2244 5.38083 17.2407C5.42749 17.2569 5.47697 17.2635 5.52625 17.26C5.62651 17.2544 5.72066 17.21 5.78875 17.1362C5.82136 17.0996 5.84643 17.0569 5.86252 17.0106C5.87861 16.9643 5.8854 16.9152 5.8825 16.8662C5.875 16.705 5.87125 16.5475 5.87125 16.3862C5.87577 14.1039 6.64813 11.8894 8.06402 10.0993C9.47992 8.30916 11.457 7.04754 13.677 6.51748L14.8141 8.79178C12.9029 9.09159 11.1752 10.1014 9.97604 11.6195C8.77687 13.1375 8.19456 15.0521 8.34542 16.9808C8.49628 18.9095 9.36921 20.7103 10.7898 22.0234C12.2105 23.3366 14.0742 24.0654 16.0088 24.0644C17.9433 24.0634 19.8063 23.3326 21.2256 22.018C22.6448 20.7033 23.5159 18.9017 23.6647 16.9728C23.8136 15.044 23.2293 13.13 22.0285 11.6132C20.8278 10.0964 19.099 9.08836 17.1875 8.79054L18.3175 6.53031C19.8826 6.89843 21.3375 7.63406 22.5617 8.6763C23.786 9.71853 24.7443 11.0374 25.3575 12.5237C25.9707 14.0099 26.221 15.6209 26.0877 17.2232C25.9545 18.8254 25.4415 20.3729 24.5912 21.7375C24.5387 21.8221 24.5218 21.924 24.5443 22.0211C24.5667 22.1181 24.6268 22.2022 24.7113 22.255C24.7697 22.2917 24.8373 22.3112 24.9062 22.3112C24.9697 22.3121 25.0323 22.2967 25.0881 22.2665C25.1439 22.2363 25.191 22.1923 25.225 22.1387C26.3023 20.4051 26.8738 18.4049 26.875 16.3637C26.8722 13.8095 25.9708 11.3377 24.3288 9.38124ZM17.8431 5.80213L16.0006 9.48748L14.1578 5.80213C15.3535 5.40101 16.6474 5.40101 17.8431 5.80213ZM15.1689 9.50124L15.4539 10.071C15.4953 10.1503 15.5538 10.2195 15.6251 10.2735V14.5375C15.2294 14.6203 14.8714 14.8296 14.6051 15.1337L10.195 12.5912C10.7479 11.744 11.4798 11.0282 12.3391 10.4944C13.1985 9.96049 14.1644 9.6215 15.1689 9.50124ZM9.0625 16.375C9.06365 15.2848 9.32325 14.2104 9.82 13.24L14.23 15.7862C14.09 16.1663 14.09 16.5837 14.23 16.9637L9.82 19.51C9.32325 18.5396 9.06365 17.4652 9.0625 16.375ZM15.625 23.2937C14.5368 23.2341 13.478 22.9193 12.534 22.3747C11.5901 21.83 10.7875 21.0709 10.1912 20.1587L14.605 17.6162C14.8713 17.9204 15.2293 18.1297 15.625 18.2125V23.2937ZM14.875 16.375C14.875 16.1525 14.941 15.935 15.0646 15.75C15.1882 15.565 15.3639 15.4208 15.5695 15.3356C15.775 15.2505 16.0012 15.2282 16.2195 15.2716C16.4377 15.315 16.6382 15.4222 16.7955 15.5795C16.9528 15.7368 17.06 15.9373 17.1034 16.1555C17.1468 16.3737 17.1245 16.5999 17.0394 16.8055C16.9542 17.0111 16.81 17.1868 16.625 17.3104C16.44 17.434 16.2225 17.5 16 17.5C15.7019 17.4991 15.4163 17.3803 15.2055 17.1695C14.9947 16.9587 14.8759 16.6731 14.875 16.375ZM16.375 23.2937V18.2125C16.7707 18.1297 17.1287 17.9204 17.395 17.6162L21.8088 20.1587C21.2125 21.0709 20.4099 21.83 19.466 22.3747C18.522 22.9193 17.4632 23.2341 16.375 23.2937ZM22.9375 16.375C22.9363 17.4652 22.6767 18.5396 22.18 19.51L17.77 16.9637C17.91 16.5837 17.91 16.1663 17.77 15.7862L22.18 13.24C22.6767 14.2104 22.9363 15.2848 22.9375 16.375ZM21.805 12.5912L17.395 15.1337C17.1287 14.8296 16.7707 14.6203 16.375 14.5375V10.2743C16.4468 10.2201 16.5057 10.1506 16.5473 10.0709L16.8341 9.49712C17.8382 9.61907 18.8034 9.95923 19.6622 10.4937C20.5209 11.0282 21.2523 11.7441 21.805 12.5912Z" fill="#4D3C6A"/>
<path d="M22.7275 23.9425C21.4828 25.0485 19.9846 25.8305 18.3656 26.2193C16.7466 26.6081 15.0566 26.5917 13.4455 26.1715C11.8343 25.7514 10.3515 24.9405 9.12852 23.8106C7.9055 22.6807 6.97994 21.2667 6.43377 19.6938C6.39941 19.6006 6.32998 19.5245 6.24031 19.4818C6.15063 19.439 6.04781 19.433 5.95377 19.465C5.86031 19.4979 5.78372 19.5665 5.74083 19.6558C5.69794 19.7451 5.69225 19.8478 5.72502 19.9413C6.36633 21.787 7.49271 23.426 8.98591 24.6863C10.4791 25.9466 12.2841 26.7816 14.2113 27.1038C14.8064 27.2008 15.4083 27.2497 16.0113 27.25C18.672 27.2496 21.2398 26.2713 23.2263 24.5013C23.3009 24.435 23.3467 24.3421 23.3538 24.2425C23.3571 24.144 23.3237 24.0478 23.26 23.9725C23.1922 23.8999 23.099 23.8563 22.9998 23.8507C22.9006 23.8451 22.8031 23.878 22.7275 23.9425Z" fill="#4D3C6A"/>
<path d="M23.7401 22.9075C23.708 22.9449 23.6836 22.9883 23.6683 23.0351C23.653 23.0819 23.6471 23.1313 23.6509 23.1805C23.6547 23.2296 23.6682 23.2775 23.6906 23.3214C23.713 23.3653 23.7438 23.4043 23.7813 23.4363C23.8571 23.4981 23.9537 23.5287 24.0512 23.5217C24.1488 23.5147 24.2401 23.4708 24.3063 23.3988L24.3101 23.3913C24.3421 23.3539 24.3665 23.3105 24.3818 23.2637C24.397 23.2168 24.4029 23.1675 24.3991 23.1183C24.3953 23.0692 24.3818 23.0214 24.3594 22.9775C24.3371 22.9336 24.3063 22.8945 24.2688 22.8625C24.192 22.8 24.094 22.7697 23.9953 22.7781C23.8967 22.7865 23.8051 22.8329 23.7401 22.9075Z" fill="#4D3C6A"/>
<path d="M5.9987 18.58C6.02636 18.5393 6.04558 18.4934 6.05524 18.4451C6.0649 18.3968 6.0648 18.347 6.05495 18.2988C6.03556 18.2013 5.97824 18.1155 5.8956 18.0603C5.81297 18.0051 5.71179 17.985 5.61433 18.0044C5.51686 18.0238 5.43109 18.0811 5.37588 18.1637C5.32068 18.2464 5.30056 18.3476 5.31995 18.445C5.33708 18.5298 5.38305 18.606 5.45006 18.6607C5.51706 18.7154 5.60095 18.7452 5.68745 18.745C5.71126 18.7457 5.73509 18.7444 5.7587 18.7413C5.80752 18.732 5.85396 18.7129 5.89521 18.6852C5.93646 18.6575 5.97167 18.6217 5.9987 18.58Z" fill="#4D3C6A"/>
<path d="M11.8833 9.24446C12.0118 9.17029 12.1154 9.05969 12.181 8.92665C12.2466 8.79361 12.2712 8.64411 12.2519 8.49704C12.2325 8.34997 12.17 8.21195 12.0722 8.10043C11.9744 7.98891 11.8457 7.9089 11.7024 7.87051C11.5591 7.83212 11.4077 7.83708 11.2672 7.88476C11.1267 7.93245 11.0036 8.02071 10.9133 8.13839C10.823 8.25608 10.7696 8.39789 10.7599 8.54591C10.7502 8.69393 10.7846 8.8415 10.8588 8.96996C10.908 9.05526 10.9736 9.13002 11.0517 9.18998C11.1299 9.24994 11.2191 9.29391 11.3142 9.3194C11.4093 9.34489 11.5086 9.3514 11.6062 9.33854C11.7039 9.32568 11.798 9.29371 11.8833 9.24446Z" fill="#4D3C6A"/>
<path d="M8.8695 12.2581C8.94367 12.1297 8.97807 11.9821 8.96836 11.8341C8.95866 11.6861 8.90528 11.5443 8.81498 11.4266C8.72467 11.3089 8.6015 11.2206 8.46104 11.173C8.32058 11.1253 8.16913 11.1203 8.02585 11.1587C7.88257 11.1971 7.75389 11.2771 7.65609 11.3887C7.55829 11.5002 7.49575 11.6382 7.47639 11.7853C7.45703 11.9323 7.48171 12.0818 7.54732 12.2149C7.61292 12.3479 7.7165 12.4585 7.84497 12.5327C7.93026 12.5819 8.02443 12.6139 8.12208 12.6267C8.21973 12.6396 8.31896 12.6331 8.41409 12.6076C8.50923 12.5821 8.59842 12.5381 8.67656 12.4782C8.7547 12.4182 8.82026 12.3434 8.8695 12.2581Z" fill="#4D3C6A"/>
<path d="M7.01648 17.125C7.43069 17.125 7.76648 16.7892 7.76648 16.375C7.76648 15.9608 7.43069 15.625 7.01648 15.625C6.60227 15.625 6.26648 15.9608 6.26648 16.375C6.26648 16.7892 6.60227 17.125 7.01648 17.125Z" fill="#4D3C6A"/>
<path d="M7.57045 21.2417C7.64462 21.3702 7.75521 21.4738 7.88825 21.5394C8.02129 21.605 8.1708 21.6297 8.31787 21.6103C8.46494 21.5909 8.60296 21.5284 8.71449 21.4306C8.82601 21.3328 8.90603 21.2041 8.94442 21.0608C8.98281 20.9175 8.97785 20.7661 8.93017 20.6256C8.88248 20.4852 8.79422 20.362 8.67653 20.2717C8.55884 20.1814 8.41702 20.128 8.269 20.1183C8.12098 20.1086 7.97341 20.143 7.84495 20.2172C7.6727 20.3167 7.547 20.4805 7.49553 20.6726C7.44405 20.8647 7.471 21.0694 7.57045 21.2417Z" fill="#4D3C6A"/>
<path d="M12.1578 24.5299C12.232 24.4014 12.2664 24.2538 12.2567 24.1058C12.247 23.9578 12.1936 23.816 12.1033 23.6983C12.013 23.5806 11.8898 23.4924 11.7494 23.4447C11.6089 23.397 11.4575 23.3921 11.3142 23.4305C11.1709 23.4688 11.0422 23.5489 10.9444 23.6604C10.8466 23.7719 10.7841 23.9099 10.7647 24.057C10.7454 24.2041 10.77 24.3536 10.8357 24.4866C10.9013 24.6197 11.0049 24.7303 11.1333 24.8044C11.3056 24.9039 11.5103 24.9308 11.7024 24.8793C11.8946 24.8278 12.0584 24.7021 12.1578 24.5299Z" fill="#4D3C6A"/>
<path d="M16 26.1085C16.4142 26.1085 16.75 25.7727 16.75 25.3585C16.75 24.9443 16.4142 24.6085 16 24.6085C15.5858 24.6085 15.25 24.9443 15.25 25.3585C15.25 25.7727 15.5858 26.1085 16 26.1085Z" fill="#4D3C6A"/>
<path d="M20.8667 24.8044C20.9952 24.7302 21.0987 24.6196 21.1644 24.4866C21.23 24.3536 21.2546 24.2041 21.2353 24.057C21.2159 23.9099 21.1534 23.7719 21.0556 23.6604C20.9578 23.5489 20.8291 23.4688 20.6858 23.4305C20.5425 23.3921 20.3911 23.397 20.2506 23.4447C20.1102 23.4924 19.987 23.5806 19.8967 23.6983C19.8064 23.816 19.753 23.9578 19.7433 24.1058C19.7336 24.2538 19.768 24.4014 19.8422 24.5299C19.8914 24.6152 19.957 24.6899 20.0351 24.7499C20.1133 24.8099 20.2024 24.8538 20.2976 24.8793C20.3927 24.9048 20.4919 24.9113 20.5896 24.8985C20.6872 24.8856 20.7814 24.8537 20.8667 24.8044Z" fill="#4D3C6A"/>
<path d="M24.1551 20.2172C24.0266 20.143 23.879 20.1086 23.731 20.1183C23.583 20.128 23.4412 20.1814 23.3235 20.2717C23.2058 20.362 23.1175 20.4852 23.0698 20.6256C23.0222 20.7661 23.0172 20.9175 23.0556 21.0608C23.094 21.2041 23.174 21.3328 23.2855 21.4306C23.397 21.5284 23.5351 21.5909 23.6821 21.6103C23.8292 21.6297 23.9787 21.605 24.1117 21.5394C24.2448 21.4738 24.3554 21.3702 24.4296 21.2417C24.529 21.0694 24.556 20.8647 24.5045 20.6726C24.453 20.4805 24.3273 20.3167 24.1551 20.2172Z" fill="#4D3C6A"/>
<path d="M24.9835 17.125C25.3977 17.125 25.7335 16.7892 25.7335 16.375C25.7335 15.9608 25.3977 15.625 24.9835 15.625C24.5693 15.625 24.2335 15.9608 24.2335 16.375C24.2335 16.7892 24.5693 17.125 24.9835 17.125Z" fill="#4D3C6A"/>
<path d="M23.405 11.2338C23.2766 11.3079 23.173 11.4185 23.1074 11.5516C23.0418 11.6846 23.0171 11.8341 23.0364 11.9812C23.0558 12.1283 23.1183 12.2663 23.2162 12.3778C23.314 12.4893 23.4426 12.5694 23.5859 12.6077C23.7292 12.6461 23.8807 12.6412 24.0211 12.5935C24.1616 12.5458 24.2848 12.4575 24.3751 12.3399C24.4654 12.2222 24.5187 12.0804 24.5284 11.9323C24.5381 11.7843 24.5037 11.6367 24.4295 11.5083C24.3301 11.336 24.1663 11.2103 23.9741 11.1589C23.782 11.1074 23.5773 11.1343 23.405 11.2338Z" fill="#4D3C6A"/>
<path d="M19.8422 8.21998C19.768 8.34844 19.7336 8.49601 19.7433 8.64403C19.753 8.79205 19.8064 8.93386 19.8967 9.05154C19.987 9.16922 20.1102 9.25748 20.2506 9.30516C20.3911 9.35284 20.5425 9.35779 20.6858 9.3194C20.8291 9.281 20.9578 9.20099 21.0556 9.08946C21.1534 8.97794 21.2159 8.83991 21.2353 8.69285C21.2546 8.54578 21.23 8.39628 21.1644 8.26324C21.0987 8.1302 20.9952 8.01961 20.8667 7.94544C20.7814 7.89619 20.6872 7.86423 20.5896 7.85137C20.4919 7.83852 20.3927 7.84502 20.2976 7.87051C20.2024 7.89601 20.1133 7.93999 20.0351 7.99995C19.957 8.05991 19.8914 8.13468 19.8422 8.21998Z" fill="#4D3C6A"/>
</svg>
