<svg width="32" height="32" viewBox="0 0 32 32" fill="none" xmlns="http://www.w3.org/2000/svg">
<path d="M28 14.4516C28 12.1037 26.0898 10.1935 23.7419 10.1935C22.0263 10.1935 20.5447 11.2134 19.8709 12.6787C19.1972 11.2135 17.7155 10.1935 16 10.1935C14.2844 10.1935 12.8027 11.2134 12.129 12.6787C11.4552 11.2135 9.97356 10.1935 8.25798 10.1935C5.91016 10.1935 4 12.1037 4 14.4516C4 15.8902 4.71719 17.1642 5.81261 17.9355H4V22.9678C4 24.035 4.86827 24.9032 5.93547 24.9032H14.3943L14.5802 25.2198C14.7186 25.4555 15.0089 25.7003 15.6174 25.7003C15.79 25.7003 15.9883 25.6806 16.216 25.6354C16.6281 25.5535 17.0929 25.3963 17.5913 25.1724C17.6913 25.4785 17.9916 25.8265 18.7484 26.09C19.4281 26.3265 20.3517 26.4516 21.4193 26.4516C22.4869 26.4516 23.4105 26.3265 24.0902 26.09C25.0821 25.7447 25.2903 25.2541 25.2903 24.9032H26.0645C27.1317 24.9032 28 24.035 28 22.9678V17.9355H26.1873C27.2828 17.1642 28 15.8902 28 14.4516ZM21.0604 14.8387C21.1262 15.2971 21.3068 15.7189 21.5726 16.0735L21.0217 16.6245C20.6205 16.1232 20.3546 15.5096 20.2802 14.8387H21.0604ZM23.7419 12.5161C24.8091 12.5161 25.6774 13.3844 25.6774 14.4516C25.6774 15.5188 24.8091 16.387 23.7419 16.387C22.6747 16.387 21.8065 15.5188 21.8065 14.4516C21.8065 13.3844 22.6747 12.5161 23.7419 12.5161ZM22.12 16.621C22.4747 16.8868 22.8965 17.0674 23.3548 17.1333V17.9135C22.684 17.839 22.0703 17.5731 21.5691 17.172L22.12 16.621ZM24.129 17.1332C24.5874 17.0673 25.0092 16.8868 25.3638 16.6209L25.9147 17.1719C25.4135 17.573 24.7998 17.8389 24.1289 17.9134V17.1331L24.129 17.1332ZM25.9113 16.0735C26.1771 15.7189 26.3577 15.2971 26.4235 14.8388H27.2037C27.1292 15.5096 26.8633 16.1233 26.4622 16.6246L25.9113 16.0735ZM26.4235 14.0645C26.3576 13.6061 26.1771 13.1843 25.9113 12.8297L26.4622 12.2788C26.8634 12.78 27.1292 13.3936 27.2038 14.0646L26.4235 14.0645ZM25.3638 12.2823C25.0092 12.0165 24.5874 11.8359 24.1291 11.77V10.9898C24.7999 11.0643 25.4136 11.3302 25.9149 11.7314L25.3638 12.2823ZM23.3548 11.77C22.8964 11.8359 22.4747 12.0165 22.12 12.2823L21.5691 11.7314C22.0703 11.3302 22.684 11.0643 23.3548 10.9898V11.77ZM21.5726 12.8297C21.3068 13.1843 21.1262 13.6062 21.0603 14.0645H20.2801C20.3546 13.3936 20.6205 12.78 21.0216 12.2787L21.5726 12.8297ZM13.3184 14.8387C13.3843 15.2971 13.5648 15.7189 13.8306 16.0735L13.2797 16.6245C12.8785 16.1232 12.6127 15.5096 12.5382 14.8387H13.3184ZM16 12.5161C17.0672 12.5161 17.9355 13.3844 17.9355 14.4516C17.9355 15.5188 17.0672 16.387 16 16.387C14.9328 16.387 14.0645 15.5188 14.0645 14.4516C14.0645 13.3844 14.9328 12.5161 16 12.5161ZM14.3781 16.621C14.7327 16.8868 15.1546 17.0674 15.6129 17.1333V17.9135C14.942 17.839 14.3284 17.5731 13.8271 17.172L14.3781 16.621ZM16.3871 17.1332C16.8455 17.0673 17.2673 16.8868 17.6219 16.6209L18.1728 17.1719C17.6716 17.573 17.0579 17.8389 16.387 17.9134V17.1331L16.3871 17.1332ZM18.7203 16.6245L18.1694 16.0735C18.4352 15.7189 18.6158 15.2971 18.6816 14.8388H19.4618C19.3873 15.5096 19.1215 16.1233 18.7203 16.6245ZM18.6816 14.0645C18.6157 13.6061 18.4352 13.1843 18.1693 12.8297L18.7203 12.2788C19.1215 12.78 19.3873 13.3936 19.4619 14.0646L18.6816 14.0645ZM17.6219 12.2823C17.2673 12.0165 16.8454 11.8359 16.3871 11.77V10.9898C17.058 11.0643 17.6716 11.3302 18.1729 11.7314L17.6219 12.2823ZM15.6129 11.77C15.1545 11.8359 14.7327 12.0165 14.3781 12.2823L13.8272 11.7314C14.3284 11.3302 14.942 11.0643 15.613 10.9898L15.6129 11.77ZM13.8307 12.8297C13.5648 13.1843 13.3843 13.6062 13.3184 14.0645H12.5381C12.6127 13.3936 12.8785 12.78 13.2797 12.2787L13.8307 12.8297ZM6.32256 14.4516C6.32256 13.3844 7.19083 12.5161 8.25803 12.5161C9.32523 12.5161 10.1935 13.3844 10.1935 14.4516C10.1935 15.5188 9.32523 16.3871 8.25803 16.3871C7.19083 16.3871 6.32256 15.5189 6.32256 14.4516ZM8.64517 17.1332C9.10356 17.0673 9.52534 16.8868 9.87995 16.6209L10.4309 17.1719C9.92964 17.573 9.316 17.8389 8.64508 17.9134V17.1331L8.64517 17.1332ZM10.9783 16.6245L10.4274 16.0735C10.6932 15.7189 10.8738 15.2971 10.9396 14.8388H11.7198C11.6454 15.5096 11.3795 16.1233 10.9783 16.6245ZM10.9396 14.0645C10.8737 13.6061 10.6932 13.1843 10.4273 12.8297L10.9783 12.2788C11.3794 12.78 11.6453 13.3936 11.7198 14.0646L10.9396 14.0645ZM9.87995 12.2823C9.52534 12.0165 9.10352 11.8359 8.64517 11.77V10.9898C9.31605 11.0643 9.92969 11.3302 10.431 11.7314L9.87995 12.2823ZM7.87098 11.77C7.41259 11.8359 6.99081 12.0165 6.6362 12.2823L6.08523 11.7314C6.58647 11.3302 7.20011 11.0643 7.87103 10.9898L7.87098 11.77ZM6.0887 12.8297C5.82287 13.1843 5.64231 13.6062 5.57641 14.0645H4.79622C4.8708 13.3936 5.13663 12.78 5.53778 12.2787L6.0887 12.8297ZM5.5765 14.8387C5.64236 15.2971 5.82292 15.7189 6.0887 16.0735L5.53778 16.6245C5.13663 16.1233 4.8707 15.5096 4.79622 14.8387H5.5765ZM6.63616 16.621C6.99077 16.8868 7.41259 17.0674 7.87094 17.1333V17.9135C7.20006 17.839 6.58642 17.5731 6.08514 17.172L6.63616 16.621ZM12.129 16.2246C12.4456 16.9131 12.9406 17.5033 13.5545 17.9355H10.7035C11.3174 17.5032 11.8124 16.9131 12.129 16.2246ZM19.871 16.2246C20.1876 16.9131 20.6826 17.5033 21.2965 17.9355H18.4454C19.0594 17.5032 19.5544 16.9131 19.871 16.2246ZM14.8197 22.7551C15.2246 22.2791 15.9073 21.7469 16.7419 21.2567C17.5766 20.7665 18.3739 20.4294 18.9869 20.3077C19.1648 20.2724 19.3122 20.2585 19.4307 20.2585C19.6553 20.2585 19.7763 20.3082 19.8043 20.356C19.8472 20.4289 19.7883 20.6936 19.4484 21.0933C19.0434 21.5694 18.3608 22.1016 17.5261 22.5918C16.6914 23.0821 15.8941 23.419 15.2811 23.5408C14.7666 23.6428 14.5068 23.5655 14.4638 23.4927L14.4637 23.4925C14.4209 23.4196 14.4797 23.1549 14.8197 22.7551ZM15.6492 21.0323H12.9032V20.2581H16.9503C16.7537 20.3595 16.5534 20.4697 16.3499 20.5892C16.102 20.7347 15.8683 20.8828 15.6492 21.0323ZM20.5885 21.6911C20.6313 21.7641 20.5725 22.0288 20.2325 22.4286C20.0635 22.6272 19.8455 22.8357 19.589 23.0468L19.2017 22.3874C19.5347 22.1215 19.8168 21.8551 20.0381 21.5949C20.1494 21.4641 20.2403 21.3407 20.3142 21.2242L20.5885 21.6911ZM21.0814 22.5859C21.1934 22.5828 21.3062 22.5807 21.4194 22.5807C22.3873 22.5807 23.2455 22.6938 23.8357 22.8993C24.3315 23.0718 24.5162 23.2703 24.5162 23.3549C24.5162 23.4394 24.3315 23.6379 23.8357 23.8104C23.2455 24.0159 22.3873 24.1291 21.4194 24.1291C20.7574 24.1291 20.1534 24.077 19.6488 23.9791C20.1319 23.629 20.5297 23.2742 20.8222 22.9302C20.9251 22.8092 21.0106 22.6946 21.0814 22.5859ZM18.3102 23.927C18.0794 24.0626 17.8516 24.186 17.6296 24.2968L17.2387 23.6314C17.4604 23.5192 17.6873 23.395 17.9181 23.2595C18.1489 23.124 18.3679 22.9862 18.5739 22.8472L18.9647 23.5127C18.7598 23.6526 18.541 23.7914 18.3102 23.927ZM16.0653 24.876C15.5505 24.9783 15.2907 24.9007 15.2479 24.8277L14.9738 24.361C15.1115 24.3531 15.2636 24.3337 15.432 24.3003C15.767 24.2338 16.137 24.1171 16.5314 23.9558L16.9187 24.6151C16.6093 24.7364 16.3211 24.8251 16.0653 24.876ZM18.3226 24.9032V24.8089C18.4479 24.7409 18.5744 24.6697 18.7023 24.5946C18.7273 24.5798 18.7517 24.565 18.7764 24.5502C19.0931 24.6585 19.4606 24.7427 19.8709 24.8017V25.566C19.5428 25.5139 19.2493 25.4445 19.003 25.3588C18.5072 25.1863 18.3226 24.9878 18.3226 24.9032ZM20.6452 25.6516V24.8796C20.8928 24.895 21.151 24.9032 21.4194 24.9032C21.687 24.9032 21.9456 24.8953 22.1935 24.8798V25.6516C21.946 25.6684 21.6871 25.6774 21.4194 25.6774C21.1516 25.6774 20.8928 25.6685 20.6452 25.6516ZM23.8357 25.3588C23.5894 25.4445 23.2959 25.5139 22.9677 25.566V24.8013C23.3895 24.7407 23.7676 24.6539 24.0902 24.5416C24.2524 24.4851 24.3933 24.4247 24.5161 24.3617V24.9032C24.5161 24.9878 24.3314 25.1863 23.8357 25.3588ZM27.2258 18.7096V22.9677C27.2258 23.608 26.7049 24.129 26.0645 24.129H25.2903V23.3548C25.2903 23.004 25.0821 22.5133 24.0903 22.1681C23.4106 21.9315 22.487 21.8064 21.4194 21.8064C21.4044 21.8064 21.3895 21.8069 21.3744 21.8069C21.3864 21.5951 21.331 21.4268 21.256 21.299L20.4719 19.9639C20.3314 19.7248 20.0341 19.4763 19.4068 19.4838H12.9032C12.4763 19.4838 12.129 19.8312 12.129 20.258V21.0322C12.129 21.4591 12.4764 21.8064 12.9032 21.8064H14.6632C14.5007 21.9566 14.3553 22.1061 14.2299 22.2535C13.5495 23.0535 13.6184 23.5821 13.7961 23.8846L13.9397 24.129H5.93547C5.29511 24.129 4.77419 23.608 4.77419 22.9677V18.7096H8.25433C8.25559 18.7096 8.25681 18.7096 8.25803 18.7096C8.25925 18.7096 8.26052 18.7096 8.26173 18.7096H15.9962C15.9975 18.7096 15.9987 18.7097 15.9999 18.7097C16.0012 18.7097 16.0024 18.7096 16.0036 18.7096H23.7381C23.7393 18.7096 23.7406 18.7097 23.7418 18.7097C23.743 18.7097 23.7443 18.7096 23.7455 18.7096H27.2258Z" fill="#4D3C6A"/>
<path d="M15.2727 8.64515C15.3896 8.64515 15.5037 8.62771 15.6128 8.59584V9.41934H16.387V8.59584C16.4962 8.62771 16.6102 8.64515 16.7271 8.64515C17.3934 8.64515 17.9354 8.10314 17.9354 7.43686C17.9354 7.11412 17.8097 6.81075 17.5815 6.58246L16.9344 5.93545C16.6849 5.68584 16.3529 5.54836 15.9999 5.54836C15.6469 5.54836 15.315 5.68584 15.0654 5.93545L14.4184 6.58256C14.1902 6.81075 14.0645 7.11412 14.0645 7.4369C14.0645 8.10309 14.6065 8.64515 15.2727 8.64515ZM14.9658 7.12996L15.6128 6.4829C15.7162 6.3795 15.8537 6.32259 15.9999 6.32259C16.1461 6.32259 16.2836 6.37954 16.387 6.4829L17.0341 7.12996C17.1161 7.21195 17.1612 7.32093 17.1612 7.4369C17.1612 7.67625 16.9665 7.87096 16.7271 7.87096C16.6112 7.87096 16.5022 7.82582 16.4202 7.74384L15.9999 7.32356L15.5795 7.74389C15.4977 7.82582 15.3887 7.87096 15.2727 7.87096C15.0334 7.87096 14.8386 7.67625 14.8386 7.4369C14.8386 7.32093 14.8838 7.2119 14.9658 7.12996Z" fill="#4D3C6A"/>
<path d="M7.32361 9.03225C7.57322 9.28186 7.90514 9.41934 8.25811 9.41934C8.61108 9.41934 8.94305 9.28186 9.19261 9.03225L10.1466 8.07829C10.4265 7.7984 10.5807 7.42626 10.5807 7.03036C10.5807 6.21318 9.91584 5.54836 9.09867 5.54836C8.79403 5.54836 8.50341 5.63967 8.25811 5.80931C8.01277 5.63967 7.72219 5.54836 7.41755 5.54836C6.60037 5.54836 5.93555 6.21318 5.93555 7.03036C5.93555 7.42626 6.08972 7.7984 6.36961 8.07829L7.32361 9.03225ZM7.4175 6.32254C7.60655 6.32254 7.7843 6.39614 7.91798 6.52982L8.25811 6.86995L8.59823 6.52982C8.73192 6.39614 8.90967 6.32254 9.09872 6.32254C9.489 6.32254 9.80653 6.64007 9.80653 7.03036C9.80653 7.2194 9.73294 7.3972 9.59925 7.53084L8.6452 8.48484C8.5418 8.58825 8.40431 8.64515 8.25811 8.64515C8.11191 8.64515 7.97442 8.5882 7.87102 8.48484L6.91702 7.53084C6.78333 7.39715 6.70973 7.2194 6.70973 7.03036C6.70969 6.64007 7.02722 6.32254 7.4175 6.32254Z" fill="#4D3C6A"/>
<path d="M23.4323 9.26451C23.5054 9.36201 23.6201 9.41934 23.742 9.41934C23.8638 9.41934 23.9785 9.36196 24.0516 9.26451L25.2129 7.71614C25.3161 7.57851 25.3161 7.38928 25.2129 7.2516L24.0516 5.70323C23.9785 5.60578 23.8638 5.5484 23.742 5.5484C23.6201 5.5484 23.5054 5.60578 23.4323 5.70323L22.271 7.2516C22.1678 7.38923 22.1678 7.57846 22.271 7.71614L23.4323 9.26451ZM23.742 6.58064L24.4194 7.48382L23.742 8.38706L23.0646 7.48387L23.742 6.58064Z" fill="#4D3C6A"/>
<path d="M6.32253 20.2581H5.54834V22.5806C5.54834 23.0075 5.89568 23.3548 6.32253 23.3548H7.09671V22.5806H6.32253V20.2581Z" fill="#4D3C6A"/>
</svg>
