<svg width="32" height="32" viewBox="0 0 32 32" fill="none" xmlns="http://www.w3.org/2000/svg">
<g clip-path="url(#clip0_712_5687)">
<path d="M13.2239 19.0968C13.3964 19.0968 13.5661 19.0783 13.731 19.0432C13.696 19.2081 13.6774 19.3778 13.6774 19.5503C13.6774 20.3675 14.3422 21.0323 15.1594 21.0323C15.4641 21.0323 15.7547 20.9409 16 20.7713C16.2453 20.9409 16.5359 21.0323 16.8406 21.0323C17.6578 21.0323 18.3225 20.3675 18.3225 19.5503C18.3225 19.3778 18.304 19.2081 18.269 19.0432C18.4339 19.0782 18.6035 19.0968 18.7761 19.0968C19.5932 19.0968 20.258 18.432 20.258 17.6148C20.258 17.3101 20.1667 17.0195 19.997 16.7742C20.1667 16.5289 20.258 16.2383 20.258 15.9336C20.258 15.1164 19.5932 14.4517 18.7761 14.4517C18.6035 14.4517 18.4339 14.4702 18.269 14.5052C18.304 14.3403 18.3225 14.1707 18.3225 13.9981C18.3225 13.181 17.6578 12.5162 16.8406 12.5162C16.5359 12.5162 16.2453 12.6075 16 12.7772C15.7546 12.6075 15.4641 12.5162 15.1594 12.5162C14.3422 12.5162 13.6774 13.181 13.6774 13.9981C13.6774 14.1707 13.6959 14.3403 13.731 14.5052C13.5661 14.4702 13.3964 14.4517 13.2239 14.4517C12.4067 14.4517 11.7419 15.1164 11.7419 15.9336C11.7419 16.2383 11.8333 16.5289 12.0029 16.7742C11.8333 17.0196 11.7419 17.3101 11.7419 17.6148C11.7419 18.432 12.4067 19.0968 13.2239 19.0968ZM17.5484 19.5503C17.5484 19.9405 17.2309 20.2581 16.8406 20.2581C16.6516 20.2581 16.4738 20.1845 16.3401 20.0508L16 19.7107L15.6598 20.0508C15.5262 20.1845 15.3484 20.2581 15.1594 20.2581C14.7691 20.2581 14.4516 19.9405 14.4516 19.5503C14.4516 19.1116 14.6224 18.6992 14.9326 18.389L16 17.3216L17.0674 18.389C17.3776 18.6991 17.5484 19.1116 17.5484 19.5503ZM18.7761 15.2258C19.1664 15.2258 19.4839 15.5433 19.4839 15.9336C19.4839 16.1226 19.4103 16.3004 19.2766 16.434L18.9365 16.7742L19.2766 17.1144C19.4103 17.248 19.4839 17.4258 19.4839 17.6149C19.4839 18.0051 19.1664 18.3226 18.7761 18.3226C18.3375 18.3226 17.925 18.1518 17.6149 17.8416L16.5475 16.7742L17.6149 15.7068C17.925 15.3966 18.3374 15.2258 18.7761 15.2258ZM14.4516 13.998C14.4516 13.6078 14.7692 13.2903 15.1594 13.2903C15.3485 13.2903 15.5263 13.3639 15.6599 13.4976L16.0001 13.8377L16.3402 13.4976C16.4739 13.3639 16.6517 13.2903 16.8407 13.2903C17.231 13.2903 17.5485 13.6078 17.5485 13.998C17.5485 14.4367 17.3777 14.8492 17.0675 15.1593L16 16.2267L14.9326 15.1593C14.6225 14.8492 14.4516 14.4368 14.4516 13.998ZM12.7235 16.434C12.5898 16.3004 12.5162 16.1226 12.5162 15.9335C12.5162 15.5433 12.8337 15.2258 13.2239 15.2258C13.6626 15.2258 14.0751 15.3966 14.3852 15.7068L15.4526 16.7742L14.3852 17.8416C14.0751 18.1518 13.6626 18.3226 13.2239 18.3226C12.8337 18.3226 12.5162 18.0051 12.5162 17.6148C12.5162 17.4258 12.5898 17.248 12.7235 17.1143L13.0636 16.7742L12.7235 16.434Z" fill="#4D3C6A"/>
<path d="M25.8738 22.2868C25.4417 22.0863 24.8536 21.903 24.123 21.7404C24.1267 21.6896 24.129 21.6385 24.129 21.5869C24.129 20.6854 23.5558 19.8959 22.7149 19.6098L22.8474 19.2785C23.1841 18.4367 23.3548 17.5503 23.3548 16.6439C23.3548 14.4228 22.294 12.3012 20.5171 10.9686L18.7096 9.61291V8.41844L20.6451 6.48292V6.32261C20.6451 5.46883 19.9505 4.77423 19.0967 4.77423H18.9838C18.7446 4.77423 18.5051 4.83081 18.2913 4.93773L18.0659 5.05037C17.5854 4.39066 16.8209 4 16 4C15.1791 4 14.4146 4.39066 13.934 5.05033L13.7087 4.93773C13.4949 4.83077 13.2554 4.77419 13.0161 4.77419H12.9032C12.0494 4.77419 11.3548 5.46878 11.3548 6.32256V6.48287L13.2903 8.41839V9.61286L11.4828 10.9685C9.70593 12.3011 8.64515 14.4227 8.64515 16.6438C8.64515 17.5503 8.81586 18.4368 9.15252 19.2785L9.28499 19.6098C8.44419 19.8959 7.87091 20.6854 7.87091 21.5868C7.87091 21.6385 7.8733 21.6895 7.87691 21.7403C7.14632 21.9029 6.55822 22.0863 6.12613 22.2868C5.88749 22.3975 5.16125 22.7344 5.16125 23.3548V25.6773C5.16125 26.3242 5.95391 26.6713 6.21444 26.7853C6.76794 27.0277 7.5501 27.2434 8.53907 27.4266C10.5356 27.7964 13.1853 28 16 28C18.8146 28 21.4643 27.7964 23.4609 27.4266C24.4498 27.2435 25.232 27.0278 25.7855 26.7854C26.046 26.6713 26.8387 26.3243 26.8387 25.6774V23.3548C26.8387 22.7345 26.1125 22.3975 25.8738 22.2868ZM12.9032 5.54838H13.0161C13.1357 5.54838 13.2554 5.57664 13.3624 5.63008L14.197 6.04736L14.5165 5.56797C14.8479 5.07091 15.4025 4.77414 15.9999 4.77414C16.5974 4.77414 17.1519 5.07091 17.4833 5.56797L17.8028 6.04736L18.6375 5.63003C18.7444 5.57659 18.8641 5.54838 18.9837 5.54838H19.0967C19.4735 5.54838 19.7883 5.81898 19.857 6.17617L18.1621 7.87098H13.8377L12.1429 6.17617C12.2115 5.81903 12.5263 5.54838 12.9032 5.54838ZM17.9354 8.64517V9.41936H14.0645V8.64517H17.9354ZM9.64105 20.3113L10.3305 20.1389L9.8714 18.991C9.57144 18.2411 9.41938 17.4514 9.41938 16.6438C9.41938 14.6651 10.3644 12.775 11.9473 11.5879L13.8065 10.1935H18.1935L20.0527 11.5879C21.6356 12.775 22.5806 14.6651 22.5806 16.6438C22.5806 17.4513 22.4286 18.2411 22.1286 18.991L21.6695 20.139L22.3589 20.3114C22.9453 20.458 23.3548 20.9825 23.3548 21.5869C23.3548 22.2298 22.8962 22.7747 22.2644 22.8824C21.0004 23.0979 18.8876 23.3548 16 23.3548C13.1124 23.3548 10.9996 23.0979 9.73564 22.8824C9.10382 22.7746 8.64519 22.2298 8.64519 21.5868C8.64515 20.9825 9.05469 20.458 9.64105 20.3113ZM8.07435 22.4896C8.35836 23.0851 8.91725 23.5281 9.60547 23.6455C10.8989 23.8661 13.0582 24.129 16 24.129C18.9417 24.129 21.1011 23.8661 22.3945 23.6455C23.0827 23.5282 23.6415 23.0852 23.9256 22.4896C25.5748 22.8542 26.0328 23.2382 26.064 23.3549C26.0274 23.4941 25.429 23.9669 23.184 24.3676C21.2485 24.7129 18.6971 24.9032 16 24.9032C13.3029 24.9032 10.7515 24.7129 8.816 24.3675C6.57102 23.9669 5.97257 23.494 5.93596 23.3549C5.96718 23.2382 6.42519 22.8542 8.07435 22.4896ZM18.3225 25.63V27.1775C18.0671 27.1883 17.8089 27.1974 17.5483 27.2045V25.6565C17.8089 25.6495 18.0671 25.6406 18.3225 25.63ZM19.0968 25.592C19.6288 25.5618 20.1461 25.5237 20.6451 25.4782V27.0232C20.1469 27.0695 19.6294 27.1082 19.0968 27.1389V25.592ZM21.4193 25.4001C21.684 25.3706 21.9422 25.3388 22.1935 25.3048V26.8459C21.9426 26.8807 21.6845 26.9132 21.4193 26.9434V25.4001ZM10.5806 25.4001V26.9435C10.3154 26.9133 10.0573 26.8807 9.80643 26.846V25.3048C10.0578 25.3388 10.3159 25.3706 10.5806 25.4001ZM11.3548 25.4782C11.8539 25.5237 12.3712 25.5618 12.9032 25.592V27.1389C12.3706 27.1082 11.853 27.0695 11.3548 27.0232V25.4782ZM13.6774 25.63C13.9328 25.6406 14.1911 25.6495 14.4516 25.6566V27.2046C14.191 27.1974 13.9328 27.1884 13.6774 27.1776V25.63ZM5.93544 25.6774V24.3301C6.04822 24.39 6.14844 24.4339 6.21444 24.4628C6.36299 24.5278 6.52855 24.5909 6.70963 24.652V26.1514C6.14436 25.9342 5.95138 25.7516 5.93544 25.6774ZM7.48386 26.3985V24.8766C7.80379 24.9571 8.15572 25.033 8.53916 25.104C8.69929 25.1337 8.86405 25.1621 9.03229 25.1896V26.7274C8.95944 26.7152 8.88716 26.7027 8.81596 26.69C8.28388 26.5951 7.84536 26.4961 7.48386 26.3985ZM15.2258 27.2205V25.6722C15.4822 25.6757 15.7404 25.6774 16 25.6774C16.2596 25.6774 16.5178 25.6757 16.7742 25.6722V27.2205C16.5177 27.224 16.2596 27.2258 16 27.2258C15.7404 27.2258 15.4822 27.224 15.2258 27.2205ZM23.184 26.6901C23.1129 26.7028 23.0406 26.7153 22.9677 26.7275V25.1897C23.1359 25.1622 23.3007 25.1338 23.4608 25.1041C23.8443 25.0331 24.1961 24.9572 24.5161 24.8767V26.3986C24.1546 26.4961 23.7161 26.5951 23.184 26.6901ZM25.2903 26.1512V24.652C25.4714 24.5909 25.637 24.5278 25.7855 24.4628C25.8515 24.4339 25.9518 24.3899 26.0646 24.3301L26.0647 25.6744C26.0487 25.7502 25.8556 25.9336 25.2903 26.1512Z" fill="#4D3C6A"/>
<path d="M6.70973 9.41937H5.93555V10.5807H6.70973V9.41937Z" fill="#4D3C6A"/>
<path d="M4.95383 9.82585L4.40637 10.3733L5.22751 11.1944L5.77498 10.647L4.95383 9.82585Z" fill="#4D3C6A"/>
<path d="M5.16128 11.3548H4V12.129H5.16128V11.3548Z" fill="#4D3C6A"/>
<path d="M5.22751 12.2893L4.40637 13.1104L4.95383 13.6579L5.77498 12.8367L5.22751 12.2893Z" fill="#4D3C6A"/>
<path d="M6.70973 12.9032H5.93555V14.0645H6.70973V12.9032Z" fill="#4D3C6A"/>
<path d="M7.41733 12.2893L6.86987 12.8367L7.69102 13.6579L8.23848 13.1104L7.41733 12.2893Z" fill="#4D3C6A"/>
<path d="M8.64517 11.3548H7.48389V12.129H8.64517V11.3548Z" fill="#4D3C6A"/>
<path d="M7.69101 9.82582L6.86987 10.647L7.41733 11.1944L8.23848 10.3733L7.69101 9.82582Z" fill="#4D3C6A"/>
<path d="M23.3548 6.70969H22.5806V8.25806H23.3548V6.70969Z" fill="#4D3C6A"/>
<path d="M23.3548 9.03224H22.5806V10.5806H23.3548V9.03224Z" fill="#4D3C6A"/>
<path d="M24.9031 8.25807H23.3547V9.03226H24.9031V8.25807Z" fill="#4D3C6A"/>
<path d="M22.5806 8.25807H21.0322V9.03226H22.5806V8.25807Z" fill="#4D3C6A"/>
<path d="M26.4517 11.7419H25.6775V13.2903H26.4517V11.7419Z" fill="#4D3C6A"/>
<path d="M26.4517 14.0645H25.6775V15.6129H26.4517V14.0645Z" fill="#4D3C6A"/>
<path d="M28 13.2903H26.4517V14.0645H28V13.2903Z" fill="#4D3C6A"/>
<path d="M25.6773 13.2903H24.1289V14.0645H25.6773V13.2903Z" fill="#4D3C6A"/>
<path d="M7.4839 4H6.70972V5.54838H7.4839V4Z" fill="#4D3C6A"/>
<path d="M7.4839 6.32256H6.70972V7.87093H7.4839V6.32256Z" fill="#4D3C6A"/>
<path d="M9.03226 5.54839H7.48389V6.32257H9.03226V5.54839Z" fill="#4D3C6A"/>
<path d="M6.70963 5.54839H5.16125V6.32257H6.70963V5.54839Z" fill="#4D3C6A"/>
</g>
<defs>
<clipPath id="clip0_712_5687">
<rect width="24" height="24" fill="white" transform="translate(4 4)"/>
</clipPath>
</defs>
</svg>
